NimbusRomNo9L-Medi.ufo
<glyph name="exclam" format="1">
  <advance width="333"/>
  <unicode hex="0021"/>
  <outline>
    <contour>
      <point x="166" y="156" type="curve" smooth="yes"/>
      <point x="120" y="156"/>
      <point x="82" y="117"/>
      <point x="82" y="72" type="curve" smooth="yes"/>
      <point x="82" y="24"/>
      <point x="118" y="-13"/>
      <point x="165" y="-13" type="curve" smooth="yes"/>
      <point x="213" y="-13"/>
      <point x="251" y="24"/>
      <point x="251" y="70" type="curve" smooth="yes"/>
      <point x="251" y="117"/>
      <point x="213" y="156"/>
    </contour>
    <contour>
      <point x="180" y="234" type="line"/>
      <point x="193" y="357"/>
      <point x="202" y="406"/>
      <point x="232" y="502" type="curve" smooth="yes"/>
      <point x="246" y="546"/>
      <point x="250" y="566"/>
      <point x="250" y="589" type="curve" smooth="yes"/>
      <point x="250" y="654"/>
      <point x="219" y="691"/>
      <point x="166" y="691" type="curve" smooth="yes"/>
      <point x="112" y="691"/>
      <point x="81" y="654"/>
      <point x="81" y="591" type="curve" smooth="yes"/>
      <point x="81" y="566"/>
      <point x="85" y="547"/>
      <point x="99" y="502" type="curve" smooth="yes"/>
      <point x="128" y="407"/>
      <point x="138" y="357"/>
      <point x="151" y="234" type="curve"/>
    </contour>
  </outline>
</glyph>
<glyph name="quotedbl" format="1">
  <advance width="555"/>
  <unicode hex="0022"/>
  <outline>
    <contour>
      <point x="168" y="404" type="line"/>
      <point x="202" y="551"/>
      <point x="212" y="602"/>
      <point x="212" y="624" type="curve" smooth="yes"/>
      <point x="212" y="662"/>
      <point x="184" y="691"/>
      <point x="147" y="691" type="curve" smooth="yes"/>
      <point x="109" y="691"/>
      <point x="83" y="663"/>
      <point x="83" y="620" type="curve" smooth="yes"/>
      <point x="83" y="599"/>
      <point x="95" y="535"/>
      <point x="116" y="452" type="curve" smooth="yes"/>
      <point x="118" y="445"/>
      <point x="122" y="426"/>
      <point x="127" y="404" type="curve"/>
    </contour>
    <contour>
      <point x="428" y="404" type="line"/>
      <point x="459" y="537"/>
      <point x="472" y="602"/>
      <point x="472" y="624" type="curve" smooth="yes"/>
      <point x="472" y="662"/>
      <point x="444" y="691"/>
      <point x="407" y="691" type="curve" smooth="yes"/>
      <point x="369" y="691"/>
      <point x="343" y="663"/>
      <point x="343" y="620" type="curve" smooth="yes"/>
      <point x="343" y="599"/>
      <point x="355" y="536"/>
      <point x="376" y="452" type="curve"/>
      <point x="377" y="445"/>
      <point x="382" y="425"/>
      <point x="387" y="404" type="curve"/>
    </contour>
  </outline>
</glyph>
<glyph name="dollar" format="1">
  <advance width="500"/>
  <unicode hex="0024"/>
  <outline>
    <contour>
      <point x="428" y="481" type="line"/>
      <point x="428" y="622" type="line"/>
      <point x="381" y="650"/>
      <point x="347" y="661"/>
      <point x="269" y="674" type="curve"/>
      <point x="269" y="750" type="line"/>
      <point x="214" y="750" type="line"/>
      <point x="214" y="672" type="line"/>
      <point x="168" y="667"/>
      <point x="146" y="661"/>
      <point x="115" y="644" type="curve" smooth="yes"/>
      <point x="60" y="612"/>
      <point x="29" y="559"/>
      <point x="29" y="496" type="curve" smooth="yes"/>
      <point x="29" y="407"/>
      <point x="79" y="348"/>
      <point x="213" y="281" type="curve"/>
      <point x="213" y="30" type="line"/>
      <point x="139" y="44"/>
      <point x="99" y="89"/>
      <point x="67" y="197" type="curve"/>
      <point x="46" y="199" type="line"/>
      <point x="46" y="43" type="line"/>
      <point x="128" y="9"/>
      <point x="152" y="3"/>
      <point x="214" y="0" type="curve"/>
      <point x="214" y="-99" type="line"/>
      <point x="269" y="-99" type="line"/>
      <point x="269" y="0" type="line"/>
      <point x="351" y="15"/>
      <point x="390" y="32"/>
      <point x="422" y="63" type="curve" smooth="yes"/>
      <point x="455" y="95"/>
      <point x="472" y="140"/>
      <point x="472" y="196" type="curve" smooth="yes"/>
      <point x="472" y="244"/>
      <point x="457" y="287"/>
      <point x="431" y="316" type="curve" smooth="yes"/>
      <point x="396" y="356"/>
      <point x="366" y="376"/>
      <point x="269" y="426" type="curve"/>
      <point x="269" y="641" type="line"/>
      <point x="340" y="625"/>
      <point x="378" y="581"/>
      <point x="407" y="481" type="curve"/>
    </contour>
    <contour>
      <point x="269" y="250" type="line"/>
      <point x="349" y="205"/>
      <point x="362" y="188"/>
      <point x="362" y="134" type="curve" smooth="yes"/>
      <point x="362" y="75"/>
      <point x="332" y="42"/>
      <point x="269" y="30" type="curve"/>
    </contour>
    <contour>
      <point x="213" y="454" type="line"/>
      <point x="153" y="475"/>
      <point x="124" y="508"/>
      <point x="124" y="554" type="curve" smooth="yes"/>
      <point x="124" y="602"/>
      <point x="150" y="628"/>
      <point x="213" y="644" type="curve"/>
    </contour>
  </outline>
</glyph>
<glyph name="percent" format="1">
  <advance width="1000"/>
  <unicode hex="0025"/>
  <outline>
    <contour>
      <point x="761" y="372" type="curve" smooth="yes"/>
      <point x="648" y="372"/>
      <point x="535" y="248"/>
      <point x="535" y="125" type="curve" smooth="yes"/>
      <point x="535" y="41"/>
      <point x="588" y="-14"/>
      <point x="668" y="-14" type="curve" smooth="yes"/>
      <point x="712" y="-14"/>
      <point x="758" y="6"/>
      <point x="789" y="39" type="curve" smooth="yes"/>
      <point x="843" y="95"/>
      <point x="877" y="179"/>
      <point x="877" y="257" type="curve" smooth="yes"/>
      <point x="877" y="327"/>
      <point x="831" y="372"/>
    </contour>
    <contour>
      <point x="792" y="321" type="curve" smooth="yes"/>
      <point x="822" y="321"/>
      <point x="844" y="290"/>
      <point x="844" y="249" type="curve" smooth="yes"/>
      <point x="844" y="209"/>
      <point x="831" y="166"/>
      <point x="803" y="116" type="curve" smooth="yes"/>
      <point x="773" y="61"/>
      <point x="738" y="32"/>
      <point x="701" y="32" type="curve" smooth="yes"/>
      <point x="669" y="32"/>
      <point x="652" y="52"/>
      <point x="652" y="88" type="curve" smooth="yes"/>
      <point x="652" y="129"/>
      <point x="686" y="220"/>
      <point x="719" y="269" type="curve" smooth="yes"/>
      <point x="744" y="305"/>
      <point x="766" y="321"/>
    </contour>
    <contour>
      <point x="728" y="692" type="line"/>
      <point x="690" y="692" type="line" smooth="yes"/>
      <point x="685" y="692"/>
      <point x="680" y="688"/>
      <point x="675" y="681" type="curve" smooth="yes"/>
      <point x="653" y="650"/>
      <point x="579" y="623"/>
      <point x="518" y="623" type="curve" smooth="yes"/>
      <point x="477" y="623"/>
      <point x="456" y="629"/>
      <point x="425" y="651" type="curve" smooth="yes"/>
      <point x="398" y="670"/>
      <point x="375" y="678"/>
      <point x="350" y="678" type="curve" smooth="yes"/>
      <point x="234" y="678"/>
      <point x="124" y="558"/>
      <point x="124" y="430" type="curve" smooth="yes"/>
      <point x="124" y="350"/>
      <point x="177" y="294"/>
      <point x="253" y="294" type="curve" smooth="yes"/>
      <point x="313" y="294"/>
      <point x="366" y="325"/>
      <point x="406" y="383" type="curve" smooth="yes"/>
      <point x="448" y="445"/>
      <point x="464" y="501"/>
      <point x="465" y="590" type="curve"/>
      <point x="486" y="586"/>
      <point x="498" y="585"/>
      <point x="512" y="585" type="curve" smooth="yes"/>
      <point x="546" y="585"/>
      <point x="585" y="594"/>
      <point x="627" y="612" type="curve"/>
      <point x="279" y="-8" type="line"/>
      <point x="334" y="-8" type="line"/>
    </contour>
    <contour>
      <point x="371" y="631" type="curve"/>
      <point x="375" y="630"/>
      <point x="378" y="629"/>
      <point x="387" y="623" type="curve"/>
      <point x="396" y="616"/>
      <point x="397" y="615"/>
      <point x="403" y="613" type="curve"/>
      <point x="424" y="604"/>
      <point x="432" y="591"/>
      <point x="432" y="569" type="curve" smooth="yes"/>
      <point x="432" y="519"/>
      <point x="410" y="454"/>
      <point x="374" y="401" type="curve" smooth="yes"/>
      <point x="345" y="359"/>
      <point x="318" y="340"/>
      <point x="286" y="340" type="curve" smooth="yes"/>
      <point x="256" y="340"/>
      <point x="236" y="364"/>
      <point x="238" y="396" type="curve" smooth="yes"/>
      <point x="241" y="442"/>
      <point x="274" y="529"/>
      <point x="309" y="581" type="curve" smooth="yes"/>
      <point x="330" y="612"/>
      <point x="355" y="633"/>
    </contour>
  </outline>
</glyph>
<glyph name="ampersand" format="1">
  <advance width="833"/>
  <unicode hex="0026"/>
  <outline>
    <contour>
      <point x="577" y="419" type="line"/>
      <point x="577" y="395" type="line"/>
      <point x="636" y="388"/>
      <point x="643" y="383"/>
      <point x="643" y="354" type="curve" smooth="yes"/>
      <point x="643" y="314"/>
      <point x="625" y="281"/>
      <point x="567" y="209" type="curve"/>
      <point x="416" y="423" type="line"/>
      <point x="522" y="462"/>
      <point x="568" y="506"/>
      <point x="568" y="569" type="curve" smooth="yes"/>
      <point x="568" y="643"/>
      <point x="502" y="691"/>
      <point x="401" y="691" type="curve" smooth="yes"/>
      <point x="281" y="691"/>
      <point x="206" y="630"/>
      <point x="206" y="533" type="curve" smooth="yes"/>
      <point x="206" y="489"/>
      <point x="218" y="457"/>
      <point x="258" y="388" type="curve"/>
      <point x="116" y="318"/>
      <point x="62" y="255"/>
      <point x="62" y="161" type="curve" smooth="yes"/>
      <point x="62" y="58"/>
      <point x="141" y="-15"/>
      <point x="253" y="-15" type="curve" smooth="yes"/>
      <point x="327" y="-15"/>
      <point x="393" y="11"/>
      <point x="475" y="72" type="curve"/>
      <point x="535" y="6"/>
      <point x="571" y="-16"/>
      <point x="624" y="-16" type="curve" smooth="yes"/>
      <point x="655" y="-16"/>
      <point x="693" y="-3"/>
      <point x="717" y="15" type="curve" smooth="yes"/>
      <point x="733" y="28"/>
      <point x="746" y="44"/>
      <point x="771" y="85" type="curve" smooth="yes"/>
      <point x="787" y="111" type="line"/>
      <point x="767" y="123" type="line"/>
      <point x="750" y="96"/>
      <point x="733" y="85"/>
      <point x="709" y="85" type="curve" smooth="yes"/>
      <point x="671" y="85"/>
      <point x="646" y="104"/>
      <point x="590" y="176" type="curve"/>
      <point x="645" y="252"/>
      <point x="656" y="268"/>
      <point x="683" y="311" type="curve" smooth="yes"/>
      <point x="710" y="355" type="line" smooth="yes"/>
      <point x="728" y="384"/>
      <point x="740" y="391"/>
      <point x="783" y="395" type="curve"/>
      <point x="783" y="419" type="line"/>
    </contour>
    <contour>
      <point x="323" y="286" type="line" smooth="yes"/>
      <point x="398" y="174"/>
      <point x="420" y="142"/>
      <point x="452" y="100" type="curve"/>
      <point x="413" y="72"/>
      <point x="388" y="61"/>
      <point x="362" y="61" type="curve" smooth="yes"/>
      <point x="332" y="61"/>
      <point x="298" y="77"/>
      <point x="273" y="103" type="curve" smooth="yes"/>
      <point x="230" y="148"/>
      <point x="201" y="212"/>
      <point x="201" y="264" type="curve" smooth="yes"/>
      <point x="201" y="301"/>
      <point x="220" y="326"/>
      <point x="275" y="358" type="curve"/>
    </contour>
    <contour>
      <point x="397" y="452" type="curve"/>
      <point x="344" y="518"/>
      <point x="323" y="561"/>
      <point x="323" y="602" type="curve" smooth="yes"/>
      <point x="323" y="637"/>
      <point x="343" y="658"/>
      <point x="375" y="658" type="curve" smooth="yes"/>
      <point x="424" y="658"/>
      <point x="467" y="600"/>
      <point x="467" y="533" type="curve" smooth="yes"/>
      <point x="467" y="492"/>
      <point x="447" y="469"/>
    </contour>
  </outline>
</glyph>
<glyph name="plus" format="1">
  <advance width="570"/>
  <unicode hex="002B"/>
  <outline>
    <contour>
      <point x="241" y="297" type="line"/>
      <point x="33" y="297" type="line"/>
      <point x="33" y="209" type="line"/>
      <point x="241" y="209" type="line"/>
      <point x="241" y="0" type="line"/>
      <point x="329" y="0" type="line"/>
      <point x="329" y="209" type="line"/>
      <point x="537" y="209" type="line"/>
      <point x="537" y="297" type="line"/>
      <point x="329" y="297" type="line"/>
      <point x="329" y="506" type="line"/>
      <point x="241" y="506" type="line"/>
    </contour>
  </outline>
</glyph>
<glyph name="comma" format="1">
  <advance width="250"/>
  <unicode hex="002C"/>
  <outline>
    <contour>
      <point x="57" y="-180" type="line"/>
      <point x="173" y="-113"/>
      <point x="223" y="-47"/>
      <point x="223" y="39" type="curve" smooth="yes"/>
      <point x="223" y="108"/>
      <point x="182" y="155"/>
      <point x="122" y="155" type="curve" smooth="yes"/>
      <point x="72" y="155"/>
      <point x="39" y="122"/>
      <point x="39" y="72" type="curve" smooth="yes"/>
      <point x="39" y="26"/>
      <point x="69" y="-6"/>
      <point x="112" y="-6" type="curve" smooth="yes"/>
      <point x="117" y="-6"/>
      <point x="123" y="-6"/>
      <point x="129" y="-5" type="curve"/>
      <point x="132" y="-4"/>
      <point x="134" y="-4"/>
      <point x="136" y="-4" type="curve" smooth="yes"/>
      <point x="147" y="-4"/>
      <point x="155" y="-13"/>
      <point x="155" y="-26" type="curve" smooth="yes"/>
      <point x="155" y="-64"/>
      <point x="121" y="-106"/>
      <point x="46" y="-158" type="curve"/>
    </contour>
  </outline>
</glyph>
<glyph name="hyphen" format="1">
  <advance width="333"/>
  <unicode hex="002D"/>
  <outline>
    <contour>
      <point x="287" y="287" type="line"/>
      <point x="44" y="287" type="line"/>
      <point x="44" y="171" type="line"/>
      <point x="287" y="171" type="line"/>
    </contour>
  </outline>
</glyph>
<glyph name="period" format="1">
  <advance width="250"/>
  <unicode hex="002E"/>
  <outline>
    <contour>
      <point x="125" y="156" type="curve" smooth="yes"/>
      <point x="79" y="156"/>
      <point x="41" y="117"/>
      <point x="41" y="72" type="curve" smooth="yes"/>
      <point x="41" y="24"/>
      <point x="77" y="-13"/>
      <point x="124" y="-13" type="curve" smooth="yes"/>
      <point x="172" y="-13"/>
      <point x="210" y="24"/>
      <point x="210" y="70" type="curve" smooth="yes"/>
      <point x="210" y="117"/>
      <point x="172" y="156"/>
    </contour>
  </outline>
</glyph>
<glyph name="slash" format="1">
  <advance width="278"/>
  <unicode hex="002F"/>
  <outline>
    <contour>
      <point x="302" y="691" type="line"/>
      <point x="212" y="691" type="line"/>
      <point x="-24" y="-19" type="line"/>
      <point x="66" y="-19" type="line"/>
    </contour>
  </outline>
</glyph>
<glyph name="zero" format="1">
  <advance width="500"/>
  <unicode hex="0030"/>
  <outline>
    <contour>
      <point x="250" y="688" type="curve" smooth="yes"/>
      <point x="185" y="688"/>
      <point x="119" y="644"/>
      <point x="78" y="572" type="curve" smooth="yes"/>
      <point x="46" y="517"/>
      <point x="24" y="423"/>
      <point x="24" y="340" type="curve" smooth="yes"/>
      <point x="24" y="134"/>
      <point x="118" y="-13"/>
      <point x="251" y="-13" type="curve" smooth="yes"/>
      <point x="380" y="-13"/>
      <point x="476" y="136"/>
      <point x="476" y="337" type="curve" smooth="yes"/>
      <point x="476" y="537"/>
      <point x="379" y="688"/>
    </contour>
    <contour>
      <point x="318" y="222" type="line" smooth="yes"/>
      <point x="318" y="163"/>
      <point x="310" y="85"/>
      <point x="301" y="58" type="curve" smooth="yes"/>
      <point x="290" y="29"/>
      <point x="274" y="15"/>
      <point x="251" y="15" type="curve" smooth="yes"/>
      <point x="201" y="15"/>
      <point x="182" y="74"/>
      <point x="182" y="222" type="curve" smooth="yes"/>
      <point x="182" y="451" type="line" smooth="yes"/>
      <point x="182" y="602"/>
      <point x="201" y="660"/>
      <point x="249" y="660" type="curve" smooth="yes"/>
      <point x="298" y="660"/>
      <point x="318" y="598"/>
      <point x="318" y="451" type="curve" smooth="yes"/>
    </contour>
  </outline>
</glyph>
<glyph name="one" format="1">
  <advance width="500"/>
  <unicode hex="0031"/>
  <outline>
    <contour>
      <point x="317" y="688" type="line"/>
      <point x="65" y="579" type="line"/>
      <point x="65" y="553" type="line"/>
      <point x="74" y="556"/>
      <point x="82" y="559"/>
      <point x="85" y="561" type="curve"/>
      <point x="112" y="571"/>
      <point x="137" y="578"/>
      <point x="150" y="578" type="curve" smooth="yes"/>
      <point x="175" y="578"/>
      <point x="186" y="556"/>
      <point x="186" y="509" type="curve" smooth="yes"/>
      <point x="186" y="124" type="line" smooth="yes"/>
      <point x="186" y="42"/>
      <point x="166" y="25"/>
      <point x="67" y="24" type="curve"/>
      <point x="67" y="0" type="line"/>
      <point x="442" y="0" type="line"/>
      <point x="442" y="24" type="line"/>
      <point x="351" y="26"/>
      <point x="334" y="41"/>
      <point x="334" y="118" type="curve" smooth="yes"/>
      <point x="334" y="688" type="line"/>
    </contour>
  </outline>
</glyph>
<glyph name="two" format="1">
  <advance width="500"/>
  <unicode hex="0032"/>
  <outline>
    <contour>
      <point x="478" y="211" type="line"/>
      <point x="454" y="211" type="line"/>
      <point x="425" y="139"/>
      <point x="413" y="133"/>
      <point x="311" y="133" type="curve" smooth="yes"/>
      <point x="160" y="133" type="line"/>
      <point x="322" y="287" type="line" smooth="yes"/>
      <point x="401" y="362"/>
      <point x="436" y="429"/>
      <point x="436" y="505" type="curve" smooth="yes"/>
      <point x="436" y="612"/>
      <point x="359" y="688"/>
      <point x="251" y="688" type="curve" smooth="yes"/>
      <point x="201" y="688"/>
      <point x="153" y="668"/>
      <point x="118" y="632" type="curve" smooth="yes"/>
      <point x="79" y="593"/>
      <point x="59" y="559"/>
      <point x="31" y="484" type="curve"/>
      <point x="59" y="484" type="line"/>
      <point x="90" y="546"/>
      <point x="127" y="574"/>
      <point x="181" y="574" type="curve" smooth="yes"/>
      <point x="225" y="574"/>
      <point x="258" y="555"/>
      <point x="280" y="519" type="curve" smooth="yes"/>
      <point x="292" y="498"/>
      <point x="300" y="470"/>
      <point x="300" y="447" type="curve" smooth="yes"/>
      <point x="300" y="403"/>
      <point x="281" y="348"/>
      <point x="249" y="299" type="curve" smooth="yes"/>
      <point x="198" y="221"/>
      <point x="163" y="179"/>
      <point x="17" y="23" type="curve"/>
      <point x="17" y="0" type="line"/>
      <point x="433" y="0" type="line"/>
    </contour>
  </outline>
</glyph>
<glyph name="three" format="1">
  <advance width="500"/>
  <unicode hex="0033"/>
  <outline>
    <contour>
      <point x="58" y="523" type="line"/>
      <point x="96" y="584"/>
      <point x="129" y="607"/>
      <point x="181" y="607" type="curve" smooth="yes"/>
      <point x="244" y="607"/>
      <point x="283" y="567"/>
      <point x="283" y="504" type="curve" smooth="yes"/>
      <point x="283" y="438"/>
      <point x="248" y="403"/>
      <point x="153" y="373" type="curve"/>
      <point x="153" y="356" type="line"/>
      <point x="236" y="327"/>
      <point x="269" y="310"/>
      <point x="305" y="276" type="curve" smooth="yes"/>
      <point x="336" y="247"/>
      <point x="354" y="202"/>
      <point x="354" y="154" type="curve" smooth="yes"/>
      <point x="354" y="82"/>
      <point x="316" y="36"/>
      <point x="256" y="36" type="curve" smooth="yes"/>
      <point x="232" y="36"/>
      <point x="213" y="47"/>
      <point x="180" y="79" type="curve" smooth="yes"/>
      <point x="141" y="118"/>
      <point x="111" y="134"/>
      <point x="81" y="134" type="curve" smooth="yes"/>
      <point x="43" y="134"/>
      <point x="16" y="110"/>
      <point x="16" y="76" type="curve" smooth="yes"/>
      <point x="16" y="22"/>
      <point x="77" y="-14"/>
      <point x="169" y="-14" type="curve" smooth="yes"/>
      <point x="336" y="-14"/>
      <point x="468" y="100"/>
      <point x="468" y="246" type="curve" smooth="yes"/>
      <point x="468" y="292"/>
      <point x="453" y="335"/>
      <point x="424" y="370" type="curve" smooth="yes"/>
      <point x="403" y="394"/>
      <point x="386" y="406"/>
      <point x="346" y="424" type="curve"/>
      <point x="410" y="463"/>
      <point x="429" y="492"/>
      <point x="429" y="551" type="curve" smooth="yes"/>
      <point x="429" y="637"/>
      <point x="368" y="688"/>
      <point x="266" y="688" type="curve" smooth="yes"/>
      <point x="167" y="688"/>
      <point x="92" y="638"/>
      <point x="37" y="535" type="curve"/>
    </contour>
  </outline>
</glyph>
<glyph name="four" format="1">
  <advance width="500"/>
  <unicode hex="0034"/>
  <outline>
    <contour>
      <point x="412" y="255" type="line"/>
      <point x="412" y="688" type="line"/>
      <point x="332" y="688" type="line"/>
      <point x="273" y="611" type="line" smooth="yes"/>
      <point x="145" y="444"/>
      <point x="79" y="352"/>
      <point x="19" y="257" type="curve"/>
      <point x="19" y="144" type="line"/>
      <point x="267" y="144" type="line"/>
      <point x="267" y="0" type="line"/>
      <point x="412" y="0" type="line"/>
      <point x="412" y="144" type="line"/>
      <point x="475" y="144" type="line"/>
      <point x="475" y="255" type="line"/>
    </contour>
    <contour>
      <point x="269" y="255" type="line"/>
      <point x="60" y="255" type="line"/>
      <point x="269" y="552" type="line"/>
    </contour>
  </outline>
</glyph>
<glyph name="five" format="1">
  <advance width="500"/>
  <unicode hex="0035"/>
  <outline>
    <contour>
      <point x="149" y="549" type="line"/>
      <point x="427" y="549" type="line"/>
      <point x="470" y="676" type="line"/>
      <point x="148" y="676" type="line"/>
      <point x="51" y="331" type="line"/>
      <point x="146" y="324"/>
      <point x="187" y="318"/>
      <point x="231" y="304" type="curve" smooth="yes"/>
      <point x="320" y="276"/>
      <point x="373" y="219"/>
      <point x="373" y="153" type="curve" smooth="yes"/>
      <point x="373" y="97"/>
      <point x="329" y="53"/>
      <point x="273" y="53" type="curve" smooth="yes"/>
      <point x="250" y="53"/>
      <point x="223" y="65"/>
      <point x="183" y="95" type="curve" smooth="yes"/>
      <point x="140" y="127"/>
      <point x="110" y="140"/>
      <point x="84" y="140" type="curve" smooth="yes"/>
      <point x="48" y="140"/>
      <point x="22" y="115"/>
      <point x="22" y="80" type="curve" smooth="yes"/>
      <point x="22" y="27"/>
      <point x="80" y="-8"/>
      <point x="169" y="-8" type="curve" smooth="yes"/>
      <point x="334" y="-8"/>
      <point x="451" y="92"/>
      <point x="451" y="233" type="curve" smooth="yes"/>
      <point x="451" y="337"/>
      <point x="387" y="417"/>
      <point x="278" y="448" type="curve" smooth="yes"/>
      <point x="240" y="459"/>
      <point x="209" y="463"/>
      <point x="127" y="468" type="curve"/>
    </contour>
  </outline>
</glyph>
<glyph name="six" format="1">
  <advance width="500"/>
  <unicode hex="0036"/>
  <outline>
    <contour>
      <point x="470" y="688" type="line"/>
      <point x="337" y="669"/>
      <point x="275" y="647"/>
      <point x="199" y="595" type="curve" smooth="yes"/>
      <point x="87" y="518"/>
      <point x="28" y="406"/>
      <point x="28" y="273" type="curve" smooth="yes"/>
      <point x="28" y="100"/>
      <point x="120" y="-13"/>
      <point x="260" y="-13" type="curve" smooth="yes"/>
      <point x="384" y="-13"/>
      <point x="475" y="86"/>
      <point x="475" y="222" type="curve" smooth="yes"/>
      <point x="475" y="343"/>
      <point x="402" y="421"/>
      <point x="288" y="421" type="curve" smooth="yes"/>
      <point x="256" y="421"/>
      <point x="234" y="417"/>
      <point x="204" y="404" type="curve"/>
      <point x="241" y="551"/>
      <point x="324" y="632"/>
      <point x="470" y="662" type="curve"/>
    </contour>
    <contour>
      <point x="233" y="376" type="curve" smooth="yes"/>
      <point x="300" y="376"/>
      <point x="323" y="321"/>
      <point x="323" y="162" type="curve" smooth="yes"/>
      <point x="323" y="44"/>
      <point x="311" y="14"/>
      <point x="262" y="14" type="curve" smooth="yes"/>
      <point x="239" y="14"/>
      <point x="221" y="24"/>
      <point x="211" y="43" type="curve" smooth="yes"/>
      <point x="194" y="76"/>
      <point x="184" y="149"/>
      <point x="184" y="242" type="curve" smooth="yes"/>
      <point x="184" y="304"/>
      <point x="190" y="361"/>
      <point x="197" y="366" type="curve" smooth="yes"/>
      <point x="205" y="372"/>
      <point x="219" y="376"/>
    </contour>
  </outline>
</glyph>
<glyph name="seven" format="1">
  <advance width="500"/>
  <unicode hex="0037"/>
  <outline>
    <contour>
      <point x="477" y="676" type="line"/>
      <point x="61" y="676" type="line"/>
      <point x="17" y="454" type="line"/>
      <point x="42" y="454" type="line"/>
      <point x="61" y="518"/>
      <point x="85" y="539"/>
      <point x="140" y="539" type="curve" smooth="yes"/>
      <point x="347" y="539" type="line"/>
      <point x="147" y="0" type="line"/>
      <point x="242" y="0" type="line"/>
    </contour>
  </outline>
</glyph>
<glyph name="eight" format="1">
  <advance width="500"/>
  <unicode hex="0038"/>
  <outline>
    <contour>
      <point x="178" y="324" type="curve"/>
      <point x="121" y="305"/>
      <point x="98" y="292"/>
      <point x="72" y="267" type="curve" smooth="yes"/>
      <point x="43" y="239"/>
      <point x="28" y="201"/>
      <point x="28" y="157" type="curve" smooth="yes"/>
      <point x="28" y="55"/>
      <point x="113" y="-13"/>
      <point x="240" y="-13" type="curve" smooth="yes"/>
      <point x="379" y="-13"/>
      <point x="472" y="67"/>
      <point x="472" y="187" type="curve" smooth="yes"/>
      <point x="472" y="274"/>
      <point x="429" y="336"/>
      <point x="322" y="404" type="curve"/>
      <point x="418" y="438"/>
      <point x="458" y="479"/>
      <point x="458" y="543" type="curve" smooth="yes"/>
      <point x="458" y="632"/>
      <point x="382" y="688"/>
      <point x="263" y="688" type="curve" smooth="yes"/>
      <point x="128" y="688"/>
      <point x="39" y="618"/>
      <point x="39" y="513" type="curve" smooth="yes"/>
      <point x="39" y="438"/>
      <point x="79" y="383"/>
    </contour>
    <contour>
      <point x="298" y="422" type="curve"/>
      <point x="214" y="465"/>
      <point x="168" y="520"/>
      <point x="168" y="576" type="curve" smooth="yes"/>
      <point x="168" y="623"/>
      <point x="204" y="659"/>
      <point x="251" y="659" type="curve" smooth="yes"/>
      <point x="307" y="659"/>
      <point x="339" y="614"/>
      <point x="339" y="536" type="curve" smooth="yes"/>
      <point x="339" y="489"/>
      <point x="331" y="466"/>
    </contour>
    <contour>
      <point x="200" y="306" type="curve"/>
      <point x="309" y="233"/>
      <point x="333" y="201"/>
      <point x="333" y="127" type="curve" smooth="yes"/>
      <point x="333" y="60"/>
      <point x="300" y="19"/>
      <point x="246" y="19" type="curve" smooth="yes"/>
      <point x="185" y="19"/>
      <point x="149" y="72"/>
      <point x="149" y="161" type="curve" smooth="yes"/>
      <point x="149" y="216"/>
      <point x="160" y="247"/>
    </contour>
  </outline>
</glyph>
<glyph name="nine" format="1">
  <advance width="500"/>
  <unicode hex="0039"/>
  <outline>
    <contour>
      <point x="31" y="-13" type="line"/>
      <point x="171" y="7"/>
      <point x="239" y="32"/>
      <point x="317" y="91" type="curve" smooth="yes"/>
      <point x="419" y="168"/>
      <point x="473" y="275"/>
      <point x="473" y="402" type="curve" smooth="yes"/>
      <point x="473" y="575"/>
      <point x="381" y="688"/>
      <point x="241" y="688" type="curve" smooth="yes"/>
      <point x="116" y="688"/>
      <point x="26" y="589"/>
      <point x="26" y="452" type="curve" smooth="yes"/>
      <point x="26" y="334"/>
      <point x="99" y="254"/>
      <point x="208" y="254" type="curve" smooth="yes"/>
      <point x="246" y="254"/>
      <point x="272" y="259"/>
      <point x="299" y="273" type="curve"/>
      <point x="256" y="121"/>
      <point x="175" y="42"/>
      <point x="31" y="13" type="curve"/>
    </contour>
    <contour>
      <point x="309" y="328" type="line" smooth="yes"/>
      <point x="308" y="315"/>
      <point x="307" y="310"/>
      <point x="304" y="308" type="curve" smooth="yes"/>
      <point x="297" y="303"/>
      <point x="278" y="299"/>
      <point x="263" y="299" type="curve" smooth="yes"/>
      <point x="201" y="299"/>
      <point x="178" y="358"/>
      <point x="178" y="515" type="curve" smooth="yes"/>
      <point x="178" y="631"/>
      <point x="190" y="661"/>
      <point x="239" y="661" type="curve" smooth="yes"/>
      <point x="264" y="661"/>
      <point x="281" y="650"/>
      <point x="292" y="627" type="curve" smooth="yes"/>
      <point x="307" y="599"/>
      <point x="317" y="529"/>
      <point x="317" y="458" type="curve" smooth="yes"/>
      <point x="317" y="431"/>
      <point x="315" y="399"/>
      <point x="312" y="354" type="curve" smooth="yes"/>
    </contour>
  </outline>
</glyph>
<glyph name="semicolon" format="1">
  <advance width="333"/>
  <unicode hex="003B"/>
  <outline>
    <contour>
      <point x="100" y="-180" type="line"/>
      <point x="216" y="-113"/>
      <point x="266" y="-47"/>
      <point x="266" y="39" type="curve" smooth="yes"/>
      <point x="266" y="108"/>
      <point x="225" y="155"/>
      <point x="165" y="155" type="curve" smooth="yes"/>
      <point x="115" y="155"/>
      <point x="82" y="122"/>
      <point x="82" y="72" type="curve" smooth="yes"/>
      <point x="82" y="46"/>
      <point x="91" y="25"/>
      <point x="108" y="11" type="curve" smooth="yes"/>
      <point x="118" y="2"/>
      <point x="141" y="-6"/>
      <point x="153" y="-6" type="curve" smooth="yes"/>
      <point x="161" y="-6" type="line"/>
      <point x="173" y="-4" type="line"/>
      <point x="180" y="-4" type="line" smooth="yes"/>
      <point x="190" y="-4"/>
      <point x="198" y="-14"/>
      <point x="198" y="-25" type="curve" smooth="yes"/>
      <point x="198" y="-64"/>
      <point x="164" y="-106"/>
      <point x="89" y="-158" type="curve"/>
    </contour>
    <contour>
      <point x="166" y="472" type="curve" smooth="yes"/>
      <point x="120" y="472"/>
      <point x="82" y="434"/>
      <point x="82" y="389" type="curve" smooth="yes"/>
      <point x="82" y="340"/>
      <point x="118" y="303"/>
      <point x="166" y="303" type="curve" smooth="yes"/>
      <point x="213" y="303"/>
      <point x="251" y="341"/>
      <point x="251" y="387" type="curve" smooth="yes"/>
      <point x="251" y="434"/>
      <point x="213" y="472"/>
    </contour>
  </outline>
</glyph>
<glyph name="less" format="1">
  <advance width="570"/>
  <unicode hex="003C"/>
  <outline>
    <contour>
      <point x="539" y="-12" type="line"/>
      <point x="539" y="84" type="line"/>
      <point x="154" y="253" type="line"/>
      <point x="539" y="422" type="line"/>
      <point x="539" y="518" type="line"/>
      <point x="31" y="295" type="line"/>
      <point x="31" y="211" type="line"/>
    </contour>
  </outline>
</glyph>
<glyph name="at" format="1">
  <advance width="930"/>
  <unicode hex="0040"/>
  <outline>
    <contour>
      <point x="595" y="466" type="line"/>
      <point x="573" y="509"/>
      <point x="558" y="519"/>
      <point x="522" y="519" type="curve" smooth="yes"/>
      <point x="478" y="519"/>
      <point x="435" y="500"/>
      <point x="403" y="467" type="curve" smooth="yes"/>
      <point x="351" y="412"/>
      <point x="319" y="333"/>
      <point x="319" y="259" type="curve" smooth="yes"/>
      <point x="319" y="194"/>
      <point x="360" y="144"/>
      <point x="413" y="144" type="curve" smooth="yes"/>
      <point x="456" y="144"/>
      <point x="504" y="172"/>
      <point x="539" y="218" type="curve"/>
      <point x="546" y="173"/>
      <point x="583" y="143"/>
      <point x="633" y="143" type="curve" smooth="yes"/>
      <point x="735" y="143"/>
      <point x="822" y="257"/>
      <point x="822" y="390" type="curve" smooth="yes"/>
      <point x="822" y="560"/>
      <point x="675" y="691"/>
      <point x="485" y="691" type="curve" smooth="yes"/>
      <point x="275" y="691"/>
      <point x="108" y="531"/>
      <point x="108" y="330" type="curve" smooth="yes"/>
      <point x="108" y="134"/>
      <point x="274" y="-19"/>
      <point x="487" y="-19" type="curve" smooth="yes"/>
      <point x="561" y="-19"/>
      <point x="614" y="-5"/>
      <point x="711" y="41" type="curve"/>
      <point x="698" y="76" type="line"/>
      <point x="616" y="39"/>
      <point x="566" y="27"/>
      <point x="499" y="27" type="curve" smooth="yes"/>
      <point x="324" y="27"/>
      <point x="200" y="151"/>
      <point x="200" y="325" type="curve" smooth="yes"/>
      <point x="200" y="515"/>
      <point x="320" y="652"/>
      <point x="486" y="652" type="curve" smooth="yes"/>
      <point x="642" y="652"/>
      <point x="775" y="529"/>
      <point x="775" y="385" type="curve" smooth="yes"/>
      <point x="775" y="279"/>
      <point x="713" y="180"/>
      <point x="647" y="180" type="curve" smooth="yes"/>
      <point x="622" y="180"/>
      <point x="609" y="197"/>
      <point x="609" y="228" type="curve" smooth="yes"/>
      <point x="609" y="234"/>
      <point x="610" y="241"/>
      <point x="611" y="246" type="curve"/>
      <point x="677" y="506" type="line"/>
      <point x="606" y="506" type="line"/>
    </contour>
    <contour>
      <point x="535" y="471" type="curve" smooth="yes"/>
      <point x="564" y="469"/>
      <point x="579" y="445"/>
      <point x="577" y="406" type="curve" smooth="yes"/>
      <point x="575" y="361"/>
      <point x="558" y="300"/>
      <point x="537" y="259" type="curve" smooth="yes"/>
      <point x="515" y="216"/>
      <point x="485" y="191"/>
      <point x="455" y="191" type="curve" smooth="yes"/>
      <point x="419" y="191"/>
      <point x="396" y="224"/>
      <point x="396" y="277" type="curve" smooth="yes"/>
      <point x="396" y="331"/>
      <point x="414" y="382"/>
      <point x="448" y="420" type="curve" smooth="yes"/>
      <point x="476" y="453"/>
      <point x="510" y="473"/>
    </contour>
  </outline>
</glyph>
<glyph name="A" format="1">
  <advance width="722"/>
  <unicode hex="0041"/>
  <outline>
    <contour>
      <point x="689" y="25" type="line"/>
      <point x="685" y="25" type="line" smooth="yes"/>
      <point x="646" y="25"/>
      <point x="630" y="46"/>
      <point x="580" y="164" type="curve" smooth="yes"/>
      <point x="357" y="690" type="line"/>
      <point x="329" y="690" type="line"/>
      <point x="107" y="142" type="line" smooth="yes"/>
      <point x="69" y="49"/>
      <point x="57" y="34"/>
      <point x="9" y="25" type="curve"/>
      <point x="9" y="0" type="line"/>
      <point x="212" y="0" type="line"/>
      <point x="212" y="25" type="line"/>
      <point x="153" y="29"/>
      <point x="130" y="40"/>
      <point x="130" y="66" type="curve" smooth="yes"/>
      <point x="130" y="79"/>
      <point x="138" y="104"/>
      <point x="159" y="158" type="curve" smooth="yes"/>
      <point x="174" y="197" type="line"/>
      <point x="399" y="197" type="line"/>
      <point x="433" y="119"/>
      <point x="445" y="83"/>
      <point x="445" y="61" type="curve" smooth="yes"/>
      <point x="445" y="40"/>
      <point x="432" y="30"/>
      <point x="397" y="28" type="curve"/>
      <point x="392" y="28"/>
      <point x="379" y="27"/>
      <point x="365" y="25" type="curve"/>
      <point x="365" y="0" type="line"/>
      <point x="689" y="0" type="line"/>
    </contour>
    <contour>
      <point x="189" y="236" type="line"/>
      <point x="283" y="479" type="line"/>
      <point x="384" y="236" type="line"/>
    </contour>
  </outline>
</glyph>
<glyph name="B" format="1">
  <advance width="667"/>
  <unicode hex="0042"/>
  <outline>
    <contour>
      <point x="16" y="676" type="line"/>
      <point x="16" y="651" type="line"/>
      <point x="85" y="647"/>
      <point x="104" y="631"/>
      <point x="104" y="580" type="curve" smooth="yes"/>
      <point x="104" y="96" type="line" smooth="yes"/>
      <point x="104" y="45"/>
      <point x="89" y="33"/>
      <point x="16" y="25" type="curve"/>
      <point x="16" y="0" type="line"/>
      <point x="338" y="0" type="line" smooth="yes"/>
      <point x="507" y="0"/>
      <point x="619" y="75"/>
      <point x="619" y="188" type="curve" smooth="yes"/>
      <point x="619" y="233"/>
      <point x="600" y="274"/>
      <point x="565" y="305" type="curve" smooth="yes"/>
      <point x="530" y="335"/>
      <point x="496" y="350"/>
      <point x="426" y="365" type="curve"/>
      <point x="542" y="399"/>
      <point x="585" y="440"/>
      <point x="585" y="516" type="curve" smooth="yes"/>
      <point x="585" y="619"/>
      <point x="492" y="676"/>
      <point x="325" y="676" type="curve" smooth="yes"/>
    </contour>
    <contour>
      <point x="264" y="343" type="line"/>
      <point x="294" y="343" type="line" smooth="yes"/>
      <point x="397" y="343"/>
      <point x="447" y="289"/>
      <point x="447" y="179" type="curve" smooth="yes"/>
      <point x="447" y="82"/>
      <point x="406" y="32"/>
      <point x="325" y="32" type="curve" smooth="yes"/>
      <point x="281" y="32"/>
      <point x="264" y="49"/>
      <point x="264" y="93" type="curve" smooth="yes"/>
    </contour>
    <contour>
      <point x="264" y="597" type="line" smooth="yes"/>
      <point x="264" y="633"/>
      <point x="279" y="646"/>
      <point x="318" y="646" type="curve" smooth="yes"/>
      <point x="388" y="646"/>
      <point x="420" y="603"/>
      <point x="420" y="509" type="curve" smooth="yes"/>
      <point x="420" y="404"/>
      <point x="387" y="376"/>
      <point x="264" y="373" type="curve"/>
    </contour>
  </outline>
</glyph>
<glyph name="F" format="1">
  <advance width="611"/>
  <unicode hex="0046"/>
  <outline>
    <contour>
      <point x="583" y="676" type="line"/>
      <point x="16" y="676" type="line"/>
      <point x="16" y="651" type="line"/>
      <point x="85" y="647"/>
      <point x="104" y="632"/>
      <point x="104" y="580" type="curve" smooth="yes"/>
      <point x="104" y="96" type="line" smooth="yes"/>
      <point x="104" y="44"/>
      <point x="90" y="33"/>
      <point x="16" y="25" type="curve"/>
      <point x="16" y="0" type="line"/>
      <point x="376" y="0" type="line"/>
      <point x="376" y="25" type="line"/>
      <point x="284" y="29"/>
      <point x="266" y="41"/>
      <point x="266" y="96" type="curve" smooth="yes"/>
      <point x="266" y="329" type="line"/>
      <point x="368" y="327"/>
      <point x="405" y="290"/>
      <point x="419" y="174" type="curve"/>
      <point x="444" y="174" type="line"/>
      <point x="444" y="512" type="line"/>
      <point x="419" y="512" type="line"/>
      <point x="401" y="398"/>
      <point x="366" y="363"/>
      <point x="266" y="363" type="curve"/>
      <point x="266" y="595" type="line" smooth="yes"/>
      <point x="266" y="632"/>
      <point x="279" y="642"/>
      <point x="330" y="642" type="curve" smooth="yes"/>
      <point x="422" y="642"/>
      <point x="481" y="625"/>
      <point x="512" y="590" type="curve" smooth="yes"/>
      <point x="534" y="565"/>
      <point x="545" y="538"/>
      <point x="559" y="475" type="curve"/>
      <point x="583" y="475" type="line"/>
    </contour>
  </outline>
</glyph>
<glyph name="H" format="1">
  <advance width="778"/>
  <unicode hex="0048"/>
  <outline>
    <contour>
      <point x="509" y="326" type="line"/>
      <point x="509" y="96" type="line" smooth="yes"/>
      <point x="509" y="47"/>
      <point x="492" y="33"/>
      <point x="419" y="25" type="curve"/>
      <point x="419" y="0" type="line"/>
      <point x="759" y="0" type="line"/>
      <point x="759" y="25" type="line"/>
      <point x="687" y="34"/>
      <point x="671" y="47"/>
      <point x="671" y="96" type="curve" smooth="yes"/>
      <point x="671" y="580" type="line" smooth="yes"/>
      <point x="671" y="630"/>
      <point x="691" y="646"/>
      <point x="759" y="651" type="curve"/>
      <point x="759" y="676" type="line"/>
      <point x="419" y="676" type="line"/>
      <point x="419" y="651" type="line"/>
      <point x="489" y="646"/>
      <point x="509" y="630"/>
      <point x="509" y="580" type="curve" smooth="yes"/>
      <point x="509" y="373" type="line"/>
      <point x="268" y="373" type="line"/>
      <point x="268" y="580" type="line" smooth="yes"/>
      <point x="268" y="630"/>
      <point x="288" y="646"/>
      <point x="358" y="651" type="curve"/>
      <point x="358" y="676" type="line"/>
      <point x="21" y="676" type="line"/>
      <point x="21" y="651" type="line"/>
      <point x="88" y="645"/>
      <point x="106" y="630"/>
      <point x="106" y="580" type="curve" smooth="yes"/>
      <point x="106" y="96" type="line" smooth="yes"/>
      <point x="106" y="47"/>
      <point x="91" y="34"/>
      <point x="21" y="25" type="curve"/>
      <point x="21" y="0" type="line"/>
      <point x="358" y="0" type="line"/>
      <point x="358" y="25" type="line"/>
      <point x="285" y="33"/>
      <point x="268" y="47"/>
      <point x="268" y="96" type="curve" smooth="yes"/>
      <point x="268" y="326" type="line"/>
    </contour>
  </outline>
</glyph>
<glyph name="I" format="1">
  <advance width="389"/>
  <unicode hex="0049"/>
  <outline>
    <contour>
      <point x="113" y="96" type="line" smooth="yes"/>
      <point x="113" y="46"/>
      <point x="95" y="32"/>
      <point x="20" y="25" type="curve"/>
      <point x="20" y="0" type="line"/>
      <point x="370" y="0" type="line"/>
      <point x="370" y="25" type="line"/>
      <point x="294" y="30"/>
      <point x="275" y="44"/>
      <point x="275" y="96" type="curve" smooth="yes"/>
      <point x="275" y="580" type="line" smooth="yes"/>
      <point x="275" y="632"/>
      <point x="296" y="648"/>
      <point x="370" y="651" type="curve"/>
      <point x="370" y="676" type="line"/>
      <point x="20" y="676" type="line"/>
      <point x="20" y="651" type="line"/>
      <point x="92" y="646"/>
      <point x="113" y="631"/>
      <point x="113" y="580" type="curve" smooth="yes"/>
    </contour>
  </outline>
</glyph>
<glyph name="J" format="1">
  <advance width="500"/>
  <unicode hex="004A"/>
  <outline>
    <contour>
      <point x="390" y="559" type="line" smooth="yes"/>
      <point x="390" y="631"/>
      <point x="404" y="646"/>
      <point x="479" y="651" type="curve"/>
      <point x="479" y="676" type="line"/>
      <point x="127" y="676" type="line"/>
      <point x="127" y="651" type="line"/>
      <point x="208" y="648"/>
      <point x="228" y="634"/>
      <point x="228" y="580" type="curve" smooth="yes"/>
      <point x="228" y="24" type="line" smooth="yes"/>
      <point x="228" y="-38"/>
      <point x="209" y="-63"/>
      <point x="164" y="-63" type="curve" smooth="yes"/>
      <point x="137" y="-63"/>
      <point x="119" y="-50"/>
      <point x="119" y="-31" type="curve" smooth="yes"/>
      <point x="119" y="-23"/>
      <point x="122" y="-17"/>
      <point x="131" y="-5" type="curve" smooth="yes"/>
      <point x="143" y="10"/>
      <point x="146" y="18"/>
      <point x="146" y="33" type="curve" smooth="yes"/>
      <point x="146" y="73"/>
      <point x="112" y="108"/>
      <point x="73" y="108" type="curve" smooth="yes"/>
      <point x="36" y="108"/>
      <point x="3" y="74"/>
      <point x="3" y="36" type="curve" smooth="yes"/>
      <point x="3" y="-5"/>
      <point x="31" y="-50"/>
      <point x="70" y="-73" type="curve" smooth="yes"/>
      <point x="96" y="-87"/>
      <point x="136" y="-96"/>
      <point x="176" y="-96" type="curve" smooth="yes"/>
      <point x="316" y="-96"/>
      <point x="390" y="-20"/>
      <point x="390" y="123" type="curve" smooth="yes"/>
    </contour>
  </outline>
</glyph>
<glyph name="K" format="1">
  <advance width="778"/>
  <unicode hex="004B"/>
  <outline>
    <contour>
      <point x="769" y="25" type="line"/>
      <point x="744" y="26"/>
      <point x="733" y="31"/>
      <point x="720" y="46" type="curve" smooth="yes"/>
      <point x="415" y="424" type="line"/>
      <point x="603" y="618"/>
      <point x="639" y="643"/>
      <point x="736" y="651" type="curve"/>
      <point x="736" y="676" type="line"/>
      <point x="447" y="676" type="line"/>
      <point x="447" y="651" type="line"/>
      <point x="464" y="650"/>
      <point x="478" y="649"/>
      <point x="483" y="648" type="curve"/>
      <point x="519" y="646"/>
      <point x="532" y="638"/>
      <point x="532" y="618" type="curve" smooth="yes"/>
      <point x="532" y="602"/>
      <point x="527" y="594"/>
      <point x="496" y="563" type="curve" smooth="yes"/>
      <point x="279" y="345" type="line"/>
      <point x="279" y="559" type="line" smooth="yes"/>
      <point x="279" y="630"/>
      <point x="294" y="646"/>
      <point x="368" y="651" type="curve"/>
      <point x="368" y="676" type="line"/>
      <point x="30" y="676" type="line"/>
      <point x="30" y="651" type="line"/>
      <point x="99" y="647"/>
      <point x="117" y="632"/>
      <point x="117" y="580" type="curve" smooth="yes"/>
      <point x="117" y="96" type="line" smooth="yes"/>
      <point x="117" y="45"/>
      <point x="102" y="33"/>
      <point x="30" y="25" type="curve"/>
      <point x="30" y="0" type="line"/>
      <point x="367" y="0" type="line"/>
      <point x="367" y="25" type="line"/>
      <point x="295" y="34"/>
      <point x="279" y="47"/>
      <point x="279" y="96" type="curve" smooth="yes"/>
      <point x="279" y="292" type="line"/>
      <point x="306" y="317" type="line"/>
      <point x="488" y="90" type="line" smooth="yes"/>
      <point x="507" y="66"/>
      <point x="512" y="57"/>
      <point x="512" y="46" type="curve" smooth="yes"/>
      <point x="512" y="33"/>
      <point x="498" y="28"/>
      <point x="465" y="26" type="curve"/>
      <point x="460" y="26"/>
      <point x="447" y="26"/>
      <point x="433" y="25" type="curve"/>
      <point x="433" y="0" type="line"/>
      <point x="769" y="0" type="line"/>
    </contour>
  </outline>
</glyph>
<glyph name="L" format="1">
  <advance width="667"/>
  <unicode hex="004C"/>
  <outline>
    <contour>
      <point x="638" y="227" type="line"/>
      <point x="609" y="227" type="line"/>
      <point x="576" y="149"/>
      <point x="556" y="118"/>
      <point x="521" y="86" type="curve" smooth="yes"/>
      <point x="480" y="49"/>
      <point x="424" y="31"/>
      <point x="347" y="31" type="curve" smooth="yes"/>
      <point x="286" y="31"/>
      <point x="267" y="44"/>
      <point x="267" y="87" type="curve" smooth="yes"/>
      <point x="267" y="559" type="line" smooth="yes"/>
      <point x="267" y="634"/>
      <point x="281" y="647"/>
      <point x="368" y="651" type="curve"/>
      <point x="368" y="676" type="line"/>
      <point x="19" y="676" type="line"/>
      <point x="19" y="651" type="line"/>
      <point x="87" y="647"/>
      <point x="105" y="631"/>
      <point x="105" y="580" type="curve" smooth="yes"/>
      <point x="105" y="96" type="line" smooth="yes"/>
      <point x="105" y="45"/>
      <point x="92" y="34"/>
      <point x="19" y="25" type="curve"/>
      <point x="19" y="0" type="line"/>
      <point x="597" y="0" type="line"/>
    </contour>
  </outline>
</glyph>
<glyph name="M" format="1">
  <advance width="944"/>
  <unicode hex="004D"/>
  <outline>
    <contour>
      <point x="678" y="609" type="line"/>
      <point x="678" y="100" type="line" smooth="yes"/>
      <point x="678" y="44"/>
      <point x="664" y="32"/>
      <point x="589" y="25" type="curve"/>
      <point x="589" y="0" type="line"/>
      <point x="921" y="0" type="line"/>
      <point x="921" y="25" type="line"/>
      <point x="843" y="35"/>
      <point x="833" y="46"/>
      <point x="833" y="117" type="curve" smooth="yes"/>
      <point x="833" y="559" type="line" smooth="yes"/>
      <point x="833" y="631"/>
      <point x="848" y="646"/>
      <point x="921" y="651" type="curve"/>
      <point x="921" y="676" type="line"/>
      <point x="669" y="676" type="line"/>
      <point x="469" y="204" type="line"/>
      <point x="269" y="676" type="line"/>
      <point x="16" y="676" type="line"/>
      <point x="16" y="651" type="line"/>
      <point x="89" y="645"/>
      <point x="105" y="632"/>
      <point x="105" y="580" type="curve" smooth="yes"/>
      <point x="105" y="105" type="line" smooth="yes"/>
      <point x="105" y="45"/>
      <point x="92" y="33"/>
      <point x="14" y="25" type="curve"/>
      <point x="14" y="0" type="line"/>
      <point x="248" y="0" type="line"/>
      <point x="248" y="25" type="line"/>
      <point x="166" y="31"/>
      <point x="147" y="50"/>
      <point x="147" y="124" type="curve" smooth="yes"/>
      <point x="147" y="594" type="line"/>
      <point x="399" y="0" type="line"/>
      <point x="426" y="0" type="line"/>
    </contour>
  </outline>
</glyph>
<glyph name="N" format="1">
  <advance width="722"/>
  <unicode hex="004E"/>
  <outline>
    <contour>
      <point x="230" y="676" type="line"/>
      <point x="19" y="676" type="line"/>
      <point x="19" y="651" type="line"/>
      <point x="39" y="651"/>
      <point x="56" y="636"/>
      <point x="104" y="579" type="curve"/>
      <point x="104" y="105" type="line" smooth="yes"/>
      <point x="104" y="48"/>
      <point x="89" y="34"/>
      <point x="16" y="25" type="curve"/>
      <point x="16" y="0" type="line"/>
      <point x="243" y="0" type="line"/>
      <point x="243" y="25" type="line"/>
      <point x="166" y="34"/>
      <point x="148" y="53"/>
      <point x="148" y="124" type="curve" smooth="yes"/>
      <point x="148" y="526" type="line"/>
      <point x="595" y="-18" type="line"/>
      <point x="623" y="-18" type="line"/>
      <point x="623" y="571" type="line" smooth="yes"/>
      <point x="623" y="628"/>
      <point x="636" y="641"/>
      <point x="701" y="651" type="curve"/>
      <point x="701" y="676" type="line"/>
      <point x="486" y="676" type="line"/>
      <point x="486" y="651" type="line"/>
      <point x="560" y="644"/>
      <point x="579" y="623"/>
      <point x="579" y="552" type="curve" smooth="yes"/>
      <point x="579" y="247" type="line"/>
    </contour>
  </outline>
</glyph>
<glyph name="Q" format="1">
  <advance width="778"/>
  <unicode hex="0051"/>
  <outline>
    <contour>
      <point x="730" y="-117" type="line"/>
      <point x="698" y="-126"/>
      <point x="682" y="-129"/>
      <point x="663" y="-129" type="curve" smooth="yes"/>
      <point x="616" y="-129"/>
      <point x="571" y="-111"/>
      <point x="537" y="-77" type="curve" smooth="yes"/>
      <point x="518" y="-58"/>
      <point x="508" y="-43"/>
      <point x="490" y="-6" type="curve"/>
      <point x="571" y="20"/>
      <point x="606" y="40"/>
      <point x="649" y="86" type="curve" smooth="yes"/>
      <point x="710" y="151"/>
      <point x="743" y="237"/>
      <point x="743" y="334" type="curve" smooth="yes"/>
      <point x="743" y="542"/>
      <point x="595" y="691"/>
      <point x="389" y="691" type="curve" smooth="yes"/>
      <point x="185" y="691"/>
      <point x="35" y="539"/>
      <point x="35" y="331" type="curve" smooth="yes"/>
      <point x="35" y="240"/>
      <point x="66" y="156"/>
      <point x="124" y="92" type="curve" smooth="yes"/>
      <point x="165" y="46"/>
      <point x="197" y="26"/>
      <point x="273" y="-2" type="curve"/>
      <point x="294" y="-46"/>
      <point x="306" y="-65"/>
      <point x="329" y="-88" type="curve" smooth="yes"/>
      <point x="385" y="-144"/>
      <point x="469" y="-176"/>
      <point x="557" y="-176" type="curve" smooth="yes"/>
      <point x="618" y="-176"/>
      <point x="661" y="-168"/>
      <point x="736" y="-141" type="curve"/>
    </contour>
    <contour>
      <point x="390" y="658" type="curve" smooth="yes"/>
      <point x="502" y="658"/>
      <point x="566" y="538"/>
      <point x="566" y="330" type="curve" smooth="yes"/>
      <point x="566" y="124"/>
      <point x="504" y="14"/>
      <point x="389" y="14" type="curve" smooth="yes"/>
      <point x="273" y="14"/>
      <point x="212" y="123"/>
      <point x="212" y="331" type="curve" smooth="yes"/>
      <point x="212" y="541"/>
      <point x="276" y="658"/>
    </contour>
  </outline>
</glyph>
<glyph name="R" format="1">
  <advance width="722"/>
  <unicode hex="0052"/>
  <outline>
    <contour>
      <point x="715" y="25" type="line"/>
      <point x="697" y="25"/>
      <point x="684" y="31"/>
      <point x="674" y="44" type="curve" smooth="yes"/>
      <point x="473" y="329" type="line"/>
      <point x="532" y="348"/>
      <point x="557" y="361"/>
      <point x="585" y="386" type="curve" smooth="yes"/>
      <point x="614" y="413"/>
      <point x="630" y="453"/>
      <point x="630" y="498" type="curve" smooth="yes"/>
      <point x="630" y="613"/>
      <point x="531" y="676"/>
      <point x="348" y="676" type="curve" smooth="yes"/>
      <point x="26" y="676" type="line"/>
      <point x="26" y="651" type="line"/>
      <point x="100" y="646"/>
      <point x="114" y="631"/>
      <point x="114" y="559" type="curve" smooth="yes"/>
      <point x="114" y="117" type="line" smooth="yes"/>
      <point x="114" y="44"/>
      <point x="104" y="34"/>
      <point x="26" y="25" type="curve"/>
      <point x="26" y="0" type="line"/>
      <point x="364" y="0" type="line"/>
      <point x="364" y="25" type="line"/>
      <point x="286" y="35"/>
      <point x="276" y="46"/>
      <point x="276" y="117" type="curve" smooth="yes"/>
      <point x="276" y="313" type="line"/>
      <point x="303" y="313" type="line"/>
      <point x="510" y="0" type="line"/>
      <point x="715" y="0" type="line"/>
    </contour>
    <contour>
      <point x="276" y="600" type="line" smooth="yes"/>
      <point x="276" y="606"/>
      <point x="280" y="621"/>
      <point x="283" y="627" type="curve"/>
      <point x="289" y="637"/>
      <point x="305" y="642"/>
      <point x="330" y="642" type="curve" smooth="yes"/>
      <point x="422" y="642"/>
      <point x="459" y="599"/>
      <point x="459" y="494" type="curve" smooth="yes"/>
      <point x="459" y="430"/>
      <point x="444" y="391"/>
      <point x="412" y="370" type="curve" smooth="yes"/>
      <point x="386" y="353"/>
      <point x="352" y="346"/>
      <point x="276" y="345" type="curve"/>
    </contour>
  </outline>
</glyph>
<glyph name="V" format="1">
  <advance width="722"/>
  <unicode hex="0056"/>
  <outline>
    <contour>
      <point x="701" y="676" type="line"/>
      <point x="488" y="676" type="line"/>
      <point x="488" y="651" type="line"/>
      <point x="559" y="646"/>
      <point x="574" y="639"/>
      <point x="574" y="607" type="curve" smooth="yes"/>
      <point x="574" y="591"/>
      <point x="571" y="579"/>
      <point x="554" y="536" type="curve" smooth="yes"/>
      <point x="427" y="207" type="line"/>
      <point x="289" y="541" type="line" smooth="yes"/>
      <point x="270" y="586"/>
      <point x="266" y="598"/>
      <point x="266" y="613" type="curve" smooth="yes"/>
      <point x="266" y="636"/>
      <point x="281" y="647"/>
      <point x="319" y="649" type="curve"/>
      <point x="324" y="649"/>
      <point x="337" y="650"/>
      <point x="352" y="651" type="curve"/>
      <point x="352" y="676" type="line"/>
      <point x="16" y="676" type="line"/>
      <point x="16" y="651" type="line"/>
      <point x="66" y="644"/>
      <point x="75" y="636"/>
      <point x="100" y="581" type="curve" smooth="yes"/>
      <point x="356" y="-18" type="line"/>
      <point x="383" y="-18" type="line"/>
      <point x="611" y="569" type="line" smooth="yes"/>
      <point x="635" y="631"/>
      <point x="649" y="644"/>
      <point x="701" y="651" type="curve"/>
    </contour>
  </outline>
</glyph>
<glyph name="W" format="1">
  <advance width="1000"/>
  <unicode hex="0057"/>
  <outline>
    <contour>
      <point x="981" y="676" type="line"/>
      <point x="799" y="676" type="line"/>
      <point x="799" y="651" type="line"/>
      <point x="853" y="648"/>
      <point x="868" y="638"/>
      <point x="868" y="607" type="curve" smooth="yes"/>
      <point x="868" y="594"/>
      <point x="866" y="579"/>
      <point x="861" y="565" type="curve" smooth="yes"/>
      <point x="749" y="222" type="line"/>
      <point x="641" y="558" type="line" smooth="yes"/>
      <point x="631" y="590"/>
      <point x="627" y="605"/>
      <point x="627" y="614" type="curve" smooth="yes"/>
      <point x="627" y="638"/>
      <point x="642" y="647"/>
      <point x="686" y="650" type="curve"/>
      <point x="688" y="650"/>
      <point x="693" y="650"/>
      <point x="699" y="651" type="curve"/>
      <point x="699" y="676" type="line"/>
      <point x="387" y="676" type="line"/>
      <point x="387" y="651" type="line"/>
      <point x="428" y="649"/>
      <point x="448" y="640"/>
      <point x="459" y="616" type="curve"/>
      <point x="494" y="520" type="line"/>
      <point x="376" y="212" type="line"/>
      <point x="256" y="576" type="line" smooth="yes"/>
      <point x="251" y="592"/>
      <point x="249" y="600"/>
      <point x="249" y="609" type="curve" smooth="yes"/>
      <point x="249" y="638"/>
      <point x="261" y="647"/>
      <point x="313" y="651" type="curve"/>
      <point x="313" y="676" type="line"/>
      <point x="19" y="676" type="line"/>
      <point x="19" y="651" type="line"/>
      <point x="61" y="645"/>
      <point x="71" y="636"/>
      <point x="88" y="587" type="curve" smooth="yes"/>
      <point x="300" y="-15" type="line"/>
      <point x="328" y="-15" type="line"/>
      <point x="514" y="462" type="line"/>
      <point x="685" y="-15" type="line"/>
      <point x="712" y="-15" type="line"/>
      <point x="912" y="587" type="line" smooth="yes"/>
      <point x="925" y="627"/>
      <point x="948" y="648"/>
      <point x="981" y="651" type="curve"/>
    </contour>
  </outline>
</glyph>
<glyph name="Z" format="1">
  <advance width="667"/>
  <unicode hex="005A"/>
  <outline>
    <contour>
      <point x="634" y="241" type="line"/>
      <point x="608" y="241" type="line"/>
      <point x="581" y="147"/>
      <point x="558" y="107"/>
      <point x="511" y="74" type="curve" smooth="yes"/>
      <point x="477" y="50"/>
      <point x="395" y="35"/>
      <point x="299" y="35" type="curve" smooth="yes"/>
      <point x="225" y="35" type="line"/>
      <point x="604" y="660" type="line"/>
      <point x="604" y="676" type="line"/>
      <point x="80" y="676" type="line"/>
      <point x="59" y="470" type="line"/>
      <point x="87" y="470" type="line"/>
      <point x="135" y="609"/>
      <point x="179" y="640"/>
      <point x="327" y="638" type="curve"/>
      <point x="339" y="639"/>
      <point x="373" y="640"/>
      <point x="410" y="641" type="curve"/>
      <point x="28" y="16" type="line"/>
      <point x="28" y="0" type="line"/>
      <point x="608" y="0" type="line"/>
    </contour>
  </outline>
</glyph>
<glyph name="bracketleft" format="1">
  <advance width="333"/>
  <unicode hex="005B"/>
  <outline>
    <contour>
      <point x="301" y="-116" type="line"/>
      <point x="221" y="-116" type="line" smooth="yes"/>
      <point x="180" y="-116"/>
      <point x="171" y="-106"/>
      <point x="171" y="-63" type="curve" smooth="yes"/>
      <point x="171" y="575" type="line" smooth="yes"/>
      <point x="171" y="633"/>
      <point x="182" y="645"/>
      <point x="238" y="645" type="curve" smooth="yes"/>
      <point x="301" y="645" type="line"/>
      <point x="301" y="678" type="line"/>
      <point x="67" y="678" type="line"/>
      <point x="67" y="-149" type="line"/>
      <point x="301" y="-149" type="line"/>
    </contour>
  </outline>
</glyph>
<glyph name="backslash" format="1">
  <advance width="278"/>
  <unicode hex="005C"/>
  <outline>
    <contour>
      <point x="211" y="-19" type="line"/>
      <point x="303" y="-19" type="line"/>
      <point x="68" y="691" type="line"/>
      <point x="-25" y="691" type="line"/>
    </contour>
  </outline>
</glyph>
<glyph name="asciicircum" format="1">
  <advance width="581"/>
  <unicode hex="005E"/>
  <outline>
    <contour>
      <point x="162" y="311" type="line"/>
      <point x="291" y="583" type="line"/>
      <point x="420" y="311" type="line"/>
      <point x="509" y="311" type="line"/>
      <point x="331" y="676" type="line"/>
      <point x="251" y="676" type="line"/>
      <point x="73" y="311" type="line"/>
    </contour>
  </outline>
</glyph>
<glyph name="grave" format="1">
  <advance width="333"/>
  <unicode hex="0060"/>
  <outline>
    <contour>
      <point x="246" y="528" type="line"/>
      <point x="109" y="685" type="line" smooth="yes"/>
      <point x="93" y="703"/>
      <point x="74" y="713"/>
      <point x="55" y="713" type="curve" smooth="yes"/>
      <point x="29" y="713"/>
      <point x="8" y="693"/>
      <point x="8" y="668" type="curve" smooth="yes"/>
      <point x="8" y="648"/>
      <point x="19" y="634"/>
      <point x="48" y="616" type="curve" smooth="yes"/>
      <point x="190" y="528" type="line"/>
    </contour>
  </outline>
</glyph>
<glyph name="b" format="1">
  <advance width="556"/>
  <unicode hex="0062"/>
  <outline>
    <contour>
      <point x="211" y="676" type="line"/>
      <point x="17" y="676" type="line"/>
      <point x="17" y="652" type="line"/>
      <point x="63" y="643"/>
      <point x="72" y="634"/>
      <point x="72" y="594" type="curve" smooth="yes"/>
      <point x="72" y="-13" type="line"/>
      <point x="84" y="-13" type="line"/>
      <point x="163" y="43" type="line"/>
      <point x="209" y="2"/>
      <point x="245" y="-14"/>
      <point x="295" y="-14" type="curve" smooth="yes"/>
      <point x="428" y="-14"/>
      <point x="521" y="90"/>
      <point x="521" y="239" type="curve" smooth="yes"/>
      <point x="521" y="377"/>
      <point x="444" y="473"/>
      <point x="333" y="473" type="curve" smooth="yes"/>
      <point x="285" y="473"/>
      <point x="248" y="456"/>
      <point x="211" y="417" type="curve"/>
    </contour>
    <contour>
      <point x="211" y="360" type="line"/>
      <point x="228" y="403"/>
      <point x="248" y="419"/>
      <point x="281" y="419" type="curve" smooth="yes"/>
      <point x="343" y="419"/>
      <point x="374" y="352"/>
      <point x="374" y="221" type="curve" smooth="yes"/>
      <point x="374" y="83"/>
      <point x="344" y="18"/>
      <point x="280" y="18" type="curve" smooth="yes"/>
      <point x="238" y="18"/>
      <point x="211" y="49"/>
      <point x="211" y="97" type="curve" smooth="yes"/>
    </contour>
  </outline>
</glyph>
<glyph name="i" format="1">
  <advance width="278"/>
  <unicode hex="0069"/>
  <outline>
    <contour>
      <point x="208" y="461" type="line"/>
      <point x="16" y="461" type="line"/>
      <point x="16" y="437" type="line"/>
      <point x="60" y="428"/>
      <point x="69" y="419"/>
      <point x="69" y="378" type="curve" smooth="yes"/>
      <point x="69" y="84" type="line" smooth="yes"/>
      <point x="69" y="43"/>
      <point x="62" y="35"/>
      <point x="16" y="24" type="curve"/>
      <point x="16" y="0" type="line"/>
      <point x="255" y="0" type="line"/>
      <point x="255" y="24" type="line"/>
      <point x="220" y="29"/>
      <point x="208" y="43"/>
      <point x="208" y="81" type="curve" smooth="yes"/>
    </contour>
    <contour>
      <point x="138" y="691" type="curve" smooth="yes"/>
      <point x="95" y="691"/>
      <point x="60" y="656"/>
      <point x="60" y="614" type="curve" smooth="yes"/>
      <point x="60" y="569"/>
      <point x="93" y="536"/>
      <point x="137" y="536" type="curve" smooth="yes"/>
      <point x="181" y="536"/>
      <point x="215" y="569"/>
      <point x="215" y="613" type="curve" smooth="yes"/>
      <point x="215" y="656"/>
      <point x="181" y="691"/>
    </contour>
  </outline>
</glyph>
<glyph name="j" format="1">
  <advance width="333"/>
  <unicode hex="006A"/>
  <outline>
    <contour>
      <point x="260" y="461" type="line"/>
      <point x="58" y="461" type="line"/>
      <point x="58" y="437" type="line"/>
      <point x="109" y="433"/>
      <point x="121" y="421"/>
      <point x="121" y="378" type="curve" smooth="yes"/>
      <point x="121" y="-96" type="line" smooth="yes"/>
      <point x="121" y="-149"/>
      <point x="106" y="-172"/>
      <point x="73" y="-172" type="curve" smooth="yes"/>
      <point x="54" y="-172"/>
      <point x="41" y="-165"/>
      <point x="41" y="-155" type="curve" smooth="yes"/>
      <point x="41" y="-150"/>
      <point x="44" y="-143"/>
      <point x="50" y="-133" type="curve" smooth="yes"/>
      <point x="60" y="-117"/>
      <point x="64" y="-106"/>
      <point x="64" y="-96" type="curve" smooth="yes"/>
      <point x="64" y="-66"/>
      <point x="37" y="-42"/>
      <point x="5" y="-42" type="curve" smooth="yes"/>
      <point x="-32" y="-42"/>
      <point x="-57" y="-67"/>
      <point x="-57" y="-103" type="curve" smooth="yes"/>
      <point x="-57" y="-162"/>
      <point x="1" y="-203"/>
      <point x="83" y="-203" type="curve" smooth="yes"/>
      <point x="152" y="-203"/>
      <point x="205" y="-176"/>
      <point x="233" y="-127" type="curve" smooth="yes"/>
      <point x="252" y="-95"/>
      <point x="260" y="-57"/>
      <point x="260" y="2" type="curve" smooth="yes"/>
    </contour>
    <contour>
      <point x="185" y="691" type="curve" smooth="yes"/>
      <point x="142" y="691"/>
      <point x="108" y="656"/>
      <point x="108" y="614" type="curve" smooth="yes"/>
      <point x="108" y="569"/>
      <point x="140" y="536"/>
      <point x="185" y="536" type="curve" smooth="yes"/>
      <point x="228" y="536"/>
      <point x="263" y="570"/>
      <point x="263" y="613" type="curve" smooth="yes"/>
      <point x="263" y="656"/>
      <point x="228" y="691"/>
    </contour>
  </outline>
</glyph>
<glyph name="k" format="1">
  <advance width="556"/>
  <unicode hex="006B"/>
  <outline>
    <contour>
      <point x="513" y="461" type="line"/>
      <point x="299" y="461" type="line"/>
      <point x="299" y="438" type="line"/>
      <point x="310" y="436"/>
      <point x="320" y="435"/>
      <point x="323" y="434" type="curve"/>
      <point x="347" y="431"/>
      <point x="358" y="424"/>
      <point x="358" y="411" type="curve" smooth="yes"/>
      <point x="358" y="402"/>
      <point x="348" y="384"/>
      <point x="337" y="373" type="curve" smooth="yes"/>
      <point x="209" y="245" type="line"/>
      <point x="209" y="676" type="line"/>
      <point x="22" y="676" type="line"/>
      <point x="22" y="652" type="line"/>
      <point x="56" y="649"/>
      <point x="70" y="632"/>
      <point x="70" y="594" type="curve" smooth="yes"/>
      <point x="70" y="84" type="line" smooth="yes"/>
      <point x="70" y="45"/>
      <point x="55" y="27"/>
      <point x="22" y="24" type="curve"/>
      <point x="22" y="0" type="line"/>
      <point x="261" y="0" type="line"/>
      <point x="261" y="24" type="line"/>
      <point x="214" y="31"/>
      <point x="209" y="37"/>
      <point x="209" y="84" type="curve" smooth="yes"/>
      <point x="209" y="198" type="line"/>
      <point x="232" y="222" type="line"/>
      <point x="327" y="88" type="line" smooth="yes"/>
      <point x="344" y="63"/>
      <point x="351" y="51"/>
      <point x="351" y="43" type="curve" smooth="yes"/>
      <point x="351" y="31"/>
      <point x="337" y="25"/>
      <point x="309" y="24" type="curve"/>
      <point x="309" y="0" type="line"/>
      <point x="543" y="0" type="line"/>
      <point x="543" y="24" type="line"/>
      <point x="532" y="24"/>
      <point x="527" y="27"/>
      <point x="518" y="39" type="curve" smooth="yes"/>
      <point x="324" y="307" type="line"/>
      <point x="424" y="412"/>
      <point x="450" y="430"/>
      <point x="513" y="438" type="curve"/>
    </contour>
  </outline>
</glyph>
<glyph name="l" format="1">
  <advance width="278"/>
  <unicode hex="006C"/>
  <outline>
    <contour>
      <point x="206" y="676" type="line"/>
      <point x="16" y="676" type="line"/>
      <point x="16" y="652" type="line"/>
      <point x="51" y="649"/>
      <point x="67" y="631"/>
      <point x="67" y="594" type="curve" smooth="yes"/>
      <point x="67" y="84" type="line" smooth="yes"/>
      <point x="67" y="47"/>
      <point x="50" y="27"/>
      <point x="16" y="24" type="curve"/>
      <point x="16" y="0" type="line"/>
      <point x="255" y="0" type="line"/>
      <point x="255" y="24" type="line"/>
      <point x="222" y="25"/>
      <point x="206" y="44"/>
      <point x="206" y="84" type="curve" smooth="yes"/>
    </contour>
  </outline>
</glyph>
<glyph name="m" format="1">
  <advance width="833"/>
  <unicode hex="006D"/>
  <outline>
    <contour>
      <point x="207" y="461" type="line"/>
      <point x="16" y="461" type="line"/>
      <point x="16" y="437" type="line"/>
      <point x="60" y="431"/>
      <point x="71" y="419"/>
      <point x="71" y="378" type="curve" smooth="yes"/>
      <point x="71" y="84" type="line" smooth="yes"/>
      <point x="71" y="43"/>
      <point x="60" y="32"/>
      <point x="16" y="24" type="curve"/>
      <point x="16" y="0" type="line"/>
      <point x="256" y="0" type="line"/>
      <point x="256" y="24" type="line"/>
      <point x="221" y="29"/>
      <point x="210" y="43"/>
      <point x="210" y="81" type="curve" smooth="yes"/>
      <point x="210" y="348" type="line" smooth="yes"/>
      <point x="210" y="354"/>
      <point x="226" y="373"/>
      <point x="239" y="383" type="curve" smooth="yes"/>
      <point x="260" y="399"/>
      <point x="277" y="406"/>
      <point x="294" y="406" type="curve" smooth="yes"/>
      <point x="333" y="406"/>
      <point x="348" y="383"/>
      <point x="348" y="323" type="curve" smooth="yes"/>
      <point x="348" y="81" type="line" smooth="yes"/>
      <point x="348" y="40"/>
      <point x="337" y="27"/>
      <point x="300" y="24" type="curve"/>
      <point x="300" y="0" type="line"/>
      <point x="534" y="0" type="line"/>
      <point x="534" y="24" type="line"/>
      <point x="499" y="28"/>
      <point x="487" y="43"/>
      <point x="487" y="81" type="curve" smooth="yes"/>
      <point x="487" y="348" type="line" smooth="yes"/>
      <point x="487" y="353"/>
      <point x="503" y="372"/>
      <point x="516" y="382" type="curve" smooth="yes"/>
      <point x="538" y="399"/>
      <point x="555" y="406"/>
      <point x="572" y="406" type="curve" smooth="yes"/>
      <point x="610" y="406"/>
      <point x="625" y="382"/>
      <point x="625" y="323" type="curve" smooth="yes"/>
      <point x="625" y="81" type="line" smooth="yes"/>
      <point x="625" y="39"/>
      <point x="614" y="27"/>
      <point x="576" y="24" type="curve"/>
      <point x="576" y="0" type="line"/>
      <point x="814" y="0" type="line"/>
      <point x="814" y="24" type="line"/>
      <point x="775" y="26"/>
      <point x="764" y="38"/>
      <point x="764" y="81" type="curve" smooth="yes"/>
      <point x="764" y="332" type="line" smooth="yes"/>
      <point x="764" y="418"/>
      <point x="711" y="473"/>
      <point x="629" y="473" type="curve" smooth="yes"/>
      <point x="572" y="473"/>
      <point x="534" y="450"/>
      <point x="482" y="386" type="curve"/>
      <point x="452" y="449"/>
      <point x="417" y="473"/>
      <point x="354" y="473" type="curve" smooth="yes"/>
      <point x="291" y="473"/>
      <point x="245" y="446"/>
      <point x="207" y="386" type="curve"/>
    </contour>
  </outline>
</glyph>
<glyph name="p" format="1">
  <advance width="556"/>
  <unicode hex="0070"/>
  <outline>
    <contour>
      <point x="212" y="461" type="line"/>
      <point x="21" y="461" type="line"/>
      <point x="21" y="437" type="line"/>
      <point x="65" y="430"/>
      <point x="75" y="420"/>
      <point x="75" y="378" type="curve" smooth="yes"/>
      <point x="75" y="-123" type="line" smooth="yes"/>
      <point x="75" y="-164"/>
      <point x="67" y="-173"/>
      <point x="19" y="-181" type="curve"/>
      <point x="19" y="-205" type="line"/>
      <point x="292" y="-205" type="line"/>
      <point x="292" y="-184" type="line"/>
      <point x="231" y="-181"/>
      <point x="214" y="-161"/>
      <point x="214" y="-94" type="curve" smooth="yes"/>
      <point x="214" y="47" type="line"/>
      <point x="262" y="0"/>
      <point x="288" y="-13"/>
      <point x="332" y="-13" type="curve" smooth="yes"/>
      <point x="444" y="-13"/>
      <point x="524" y="91"/>
      <point x="524" y="239" type="curve" smooth="yes"/>
      <point x="524" y="378"/>
      <point x="449" y="473"/>
      <point x="338" y="473" type="curve" smooth="yes"/>
      <point x="279" y="473"/>
      <point x="243" y="450"/>
      <point x="212" y="392" type="curve"/>
    </contour>
    <contour>
      <point x="214" y="346" type="line" smooth="yes"/>
      <point x="214" y="353"/>
      <point x="223" y="369"/>
      <point x="235" y="382" type="curve" smooth="yes"/>
      <point x="255" y="404"/>
      <point x="278" y="416"/>
      <point x="300" y="416" type="curve" smooth="yes"/>
      <point x="352" y="416"/>
      <point x="376" y="356"/>
      <point x="376" y="225" type="curve" smooth="yes"/>
      <point x="376" y="101"/>
      <point x="348" y="42"/>
      <point x="291" y="42" type="curve" smooth="yes"/>
      <point x="258" y="42"/>
      <point x="229" y="65"/>
      <point x="214" y="103" type="curve"/>
    </contour>
  </outline>
</glyph>
<glyph name="q" format="1">
  <advance width="556"/>
  <unicode hex="0071"/>
  <outline>
    <contour>
      <point x="342" y="-97" type="line" smooth="yes"/>
      <point x="342" y="-159"/>
      <point x="334" y="-168"/>
      <point x="269" y="-180" type="curve"/>
      <point x="269" y="-205" type="line"/>
      <point x="536" y="-205" type="line"/>
      <point x="536" y="-181" type="line"/>
      <point x="490" y="-172"/>
      <point x="481" y="-163"/>
      <point x="481" y="-123" type="curve" smooth="yes"/>
      <point x="481" y="472" type="line"/>
      <point x="466" y="472" type="line"/>
      <point x="388" y="416" type="line"/>
      <point x="337" y="459"/>
      <point x="306" y="473"/>
      <point x="256" y="473" type="curve" smooth="yes"/>
      <point x="126" y="473"/>
      <point x="34" y="368"/>
      <point x="34" y="219" type="curve" smooth="yes"/>
      <point x="34" y="82"/>
      <point x="110" y="-14"/>
      <point x="219" y="-14" type="curve" smooth="yes"/>
      <point x="266" y="-14"/>
      <point x="301" y="2"/>
      <point x="342" y="42" type="curve"/>
    </contour>
    <contour>
      <point x="342" y="98" type="line"/>
      <point x="332" y="61"/>
      <point x="307" y="40"/>
      <point x="273" y="40" type="curve" smooth="yes"/>
      <point x="211" y="40"/>
      <point x="180" y="105"/>
      <point x="180" y="236" type="curve" smooth="yes"/>
      <point x="180" y="371"/>
      <point x="212" y="441"/>
      <point x="275" y="441" type="curve" smooth="yes"/>
      <point x="315" y="441"/>
      <point x="342" y="409"/>
      <point x="342" y="361" type="curve" smooth="yes"/>
    </contour>
  </outline>
</glyph>
<glyph name="u" format="1">
  <advance width="556"/>
  <unicode hex="0075"/>
  <outline>
    <contour>
      <point x="343" y="-13" type="line"/>
      <point x="386" y="2"/>
      <point x="410" y="6"/>
      <point x="475" y="13" type="curve" smooth="yes"/>
      <point x="537" y="20" type="line"/>
      <point x="537" y="43" type="line"/>
      <point x="493" y="45"/>
      <point x="481" y="58"/>
      <point x="481" y="101" type="curve" smooth="yes"/>
      <point x="481" y="461" type="line"/>
      <point x="280" y="461" type="line"/>
      <point x="280" y="437" type="line"/>
      <point x="330" y="433"/>
      <point x="342" y="421"/>
      <point x="342" y="378" type="curve" smooth="yes"/>
      <point x="342" y="95" type="line"/>
      <point x="309" y="62"/>
      <point x="288" y="51"/>
      <point x="260" y="51" type="curve" smooth="yes"/>
      <point x="219" y="51"/>
      <point x="204" y="71"/>
      <point x="204" y="122" type="curve" smooth="yes"/>
      <point x="204" y="461" type="line"/>
      <point x="16" y="461" type="line"/>
      <point x="16" y="437" type="line"/>
      <point x="57" y="429"/>
      <point x="65" y="420"/>
      <point x="65" y="378" type="curve" smooth="yes"/>
      <point x="65" y="126" type="line" smooth="yes"/>
      <point x="65" y="38"/>
      <point x="115" y="-14"/>
      <point x="198" y="-14" type="curve" smooth="yes"/>
      <point x="250" y="-14"/>
      <point x="285" y="2"/>
      <point x="343" y="52" type="curve"/>
    </contour>
  </outline>
</glyph>
<glyph name="v" format="1">
  <advance width="500"/>
  <unicode hex="0076"/>
  <outline>
    <contour>
      <point x="485" y="461" type="line"/>
      <point x="334" y="461" type="line"/>
      <point x="334" y="437" type="line"/>
      <point x="377" y="435"/>
      <point x="389" y="428"/>
      <point x="389" y="404" type="curve" smooth="yes"/>
      <point x="389" y="393"/>
      <point x="385" y="377"/>
      <point x="378" y="359" type="curve" smooth="yes"/>
      <point x="306" y="177" type="line"/>
      <point x="227" y="380" type="line" smooth="yes"/>
      <point x="220" y="399"/>
      <point x="218" y="405"/>
      <point x="218" y="411" type="curve" smooth="yes"/>
      <point x="218" y="426"/>
      <point x="228" y="433"/>
      <point x="253" y="435" type="curve"/>
      <point x="255" y="435"/>
      <point x="263" y="436"/>
      <point x="271" y="437" type="curve"/>
      <point x="271" y="461" type="line"/>
      <point x="21" y="461" type="line"/>
      <point x="21" y="437" type="line"/>
      <point x="44" y="434"/>
      <point x="50" y="431"/>
      <point x="56" y="422" type="curve"/>
      <point x="58" y="423"/>
      <point x="105" y="323"/>
      <point x="121" y="282" type="curve" smooth="yes"/>
      <point x="241" y="-14" type="line"/>
      <point x="267" y="-14" type="line"/>
      <point x="427" y="382" type="line" smooth="yes"/>
      <point x="446" y="426"/>
      <point x="454" y="434"/>
      <point x="485" y="437" type="curve"/>
    </contour>
  </outline>
</glyph>
<glyph name="z" format="1">
  <advance width="444"/>
  <unicode hex="007A"/>
  <outline>
    <contour>
      <point x="420" y="160" type="line"/>
      <point x="392" y="160" type="line"/>
      <point x="383" y="128"/>
      <point x="375" y="110"/>
      <point x="359" y="89" type="curve" smooth="yes"/>
      <point x="327" y="45"/>
      <point x="294" y="32"/>
      <point x="214" y="32" type="curve" smooth="yes"/>
      <point x="185" y="32" type="line"/>
      <point x="416" y="435" type="line"/>
      <point x="416" y="461" type="line"/>
      <point x="45" y="461" type="line"/>
      <point x="38" y="319" type="line"/>
      <point x="64" y="319" type="line"/>
      <point x="89" y="414"/>
      <point x="115" y="430"/>
      <point x="255" y="429" type="curve"/>
      <point x="21" y="25" type="line"/>
      <point x="21" y="0" type="line"/>
      <point x="404" y="0" type="line"/>
    </contour>
  </outline>
</glyph>
<glyph name="bar" format="1">
  <advance width="220"/>
  <unicode hex="007C"/>
  <outline>
    <contour>
      <point x="66" y="-19" type="line"/>
      <point x="154" y="-19" type="line"/>
      <point x="154" y="691" type="line"/>
      <point x="66" y="691" type="line"/>
    </contour>
  </outline>
</glyph>
<glyph name="asciitilde" format="1">
  <advance width="520"/>
  <unicode hex="007E"/>
  <outline>
    <contour>
      <point x="436" y="308" type="line"/>
      <point x="411" y="276"/>
      <point x="391" y="263"/>
      <point x="368" y="263" type="curve" smooth="yes"/>
      <point x="351" y="263"/>
      <point x="333" y="269"/>
      <point x="287" y="289" type="curve" smooth="yes"/>
      <point x="212" y="323"/>
      <point x="186" y="331"/>
      <point x="153" y="331" type="curve" smooth="yes"/>
      <point x="99" y="331"/>
      <point x="63" y="306"/>
      <point x="29" y="247" type="curve"/>
      <point x="82" y="201" type="line"/>
      <point x="105" y="233"/>
      <point x="122" y="243"/>
      <point x="151" y="243" type="curve" smooth="yes"/>
      <point x="186" y="243"/>
      <point x="217" y="233"/>
      <point x="263" y="208" type="curve" smooth="yes"/>
      <point x="309" y="183"/>
      <point x="335" y="175"/>
      <point x="368" y="175" type="curve" smooth="yes"/>
      <point x="414" y="175"/>
      <point x="446" y="197"/>
      <point x="491" y="260" type="curve"/>
    </contour>
  </outline>
</glyph>
<glyph name="exclamdown" format="1">
  <advance width="333"/>
  <unicode hex="00A1"/>
  <outline>
    <contour>
      <point x="168" y="501" type="curve" smooth="yes"/>
      <point x="120" y="501"/>
      <point x="82" y="464"/>
      <point x="82" y="417" type="curve" smooth="yes"/>
      <point x="82" y="371"/>
      <point x="120" y="332"/>
      <point x="167" y="332" type="curve" smooth="yes"/>
      <point x="213" y="332"/>
      <point x="251" y="370"/>
      <point x="251" y="416" type="curve" smooth="yes"/>
      <point x="251" y="464"/>
      <point x="215" y="501"/>
    </contour>
    <contour>
      <point x="153" y="254" type="line"/>
      <point x="140" y="130"/>
      <point x="130" y="82"/>
      <point x="101" y="-14" type="curve" smooth="yes"/>
      <point x="87" y="-59"/>
      <point x="83" y="-78"/>
      <point x="83" y="-102" type="curve" smooth="yes"/>
      <point x="83" y="-166"/>
      <point x="114" y="-203"/>
      <point x="167" y="-203" type="curve" smooth="yes"/>
      <point x="220" y="-203"/>
      <point x="252" y="-166"/>
      <point x="252" y="-103" type="curve" smooth="yes"/>
      <point x="252" y="-78"/>
      <point x="248" y="-59"/>
      <point x="234" y="-14" type="curve" smooth="yes"/>
      <point x="204" y="82"/>
      <point x="195" y="131"/>
      <point x="182" y="254" type="curve"/>
    </contour>
  </outline>
</glyph>
<glyph name="sterling" format="1">
  <advance width="500"/>
  <unicode hex="00A3"/>
  <outline>
    <contour>
      <point x="384" y="373" type="line"/>
      <point x="270" y="373" type="line"/>
      <point x="251" y="458"/>
      <point x="231" y="569"/>
      <point x="231" y="591" type="curve" smooth="yes"/>
      <point x="231" y="629"/>
      <point x="254" y="654"/>
      <point x="287" y="654" type="curve" smooth="yes"/>
      <point x="315" y="654"/>
      <point x="331" y="639"/>
      <point x="331" y="611" type="curve" smooth="yes"/>
      <point x="331" y="608" type="line"/>
      <point x="329" y="564" type="line" smooth="yes"/>
      <point x="327" y="526"/>
      <point x="353" y="499"/>
      <point x="391" y="499" type="curve" smooth="yes"/>
      <point x="433" y="499"/>
      <point x="459" y="527"/>
      <point x="459" y="571" type="curve" smooth="yes"/>
      <point x="459" y="640"/>
      <point x="401" y="684"/>
      <point x="308" y="684" type="curve" smooth="yes"/>
      <point x="258" y="684"/>
      <point x="214" y="671"/>
      <point x="182" y="648" type="curve" smooth="yes"/>
      <point x="134" y="613"/>
      <point x="105" y="553"/>
      <point x="105" y="489" type="curve" smooth="yes"/>
      <point x="105" y="459"/>
      <point x="108" y="434"/>
      <point x="119" y="373" type="curve"/>
      <point x="39" y="373" type="line"/>
      <point x="39" y="308" type="line"/>
      <point x="137" y="308" type="line"/>
      <point x="172" y="210"/>
      <point x="176" y="194"/>
      <point x="178" y="157" type="curve"/>
      <point x="158" y="162"/>
      <point x="145" y="164"/>
      <point x="127" y="164" type="curve" smooth="yes"/>
      <point x="58" y="164"/>
      <point x="21" y="132"/>
      <point x="21" y="72" type="curve" smooth="yes"/>
      <point x="21" y="18"/>
      <point x="53" y="-13"/>
      <point x="109" y="-13" type="curve" smooth="yes"/>
      <point x="154" y="-13"/>
      <point x="188" y="6"/>
      <point x="221" y="49" type="curve"/>
      <point x="275" y="0"/>
      <point x="303" y="-14"/>
      <point x="346" y="-14" type="curve" smooth="yes"/>
      <point x="386" y="-14"/>
      <point x="418" y="3"/>
      <point x="439" y="34" type="curve" smooth="yes"/>
      <point x="460" y="65"/>
      <point x="470" y="104"/>
      <point x="477" y="183" type="curve"/>
      <point x="454" y="183" type="line"/>
      <point x="439" y="129"/>
      <point x="416" y="112"/>
      <point x="354" y="112" type="curve" smooth="yes"/>
      <point x="327" y="112"/>
      <point x="300" y="118"/>
      <point x="257" y="134" type="curve"/>
      <point x="273" y="180"/>
      <point x="277" y="206"/>
      <point x="277" y="254" type="curve" smooth="yes"/>
      <point x="277" y="275"/>
      <point x="276" y="289"/>
      <point x="275" y="308" type="curve"/>
      <point x="384" y="308" type="line"/>
    </contour>
    <contour>
      <point x="181" y="86" type="curve"/>
      <point x="167" y="37"/>
      <point x="146" y="17"/>
      <point x="109" y="17" type="curve" smooth="yes"/>
      <point x="76" y="17"/>
      <point x="53" y="37"/>
      <point x="53" y="66" type="curve" smooth="yes"/>
      <point x="53" y="98"/>
      <point x="75" y="118"/>
      <point x="109" y="118" type="curve" smooth="yes"/>
      <point x="136" y="118"/>
      <point x="154" y="110"/>
    </contour>
  </outline>
</glyph>
<glyph name="yen" format="1">
  <advance width="500"/>
  <unicode hex="00A5"/>
  <outline>
    <contour>
      <point x="450" y="292" type="line"/>
      <point x="450" y="342" type="line"/>
      <point x="339" y="342" type="line"/>
      <point x="483" y="613" type="line" smooth="yes"/>
      <point x="496" y="637"/>
      <point x="513" y="647"/>
      <point x="547" y="650" type="curve"/>
      <point x="547" y="676" type="line"/>
      <point x="342" y="676" type="line"/>
      <point x="342" y="650" type="line"/>
      <point x="406" y="647"/>
      <point x="420" y="639"/>
      <point x="420" y="607" type="curve" smooth="yes"/>
      <point x="420" y="595"/>
      <point x="417" y="583"/>
      <point x="412" y="572" type="curve"/>
      <point x="293" y="342" type="line"/>
      <point x="278" y="371" type="line" smooth="yes"/>
      <point x="263" y="403"/>
      <point x="248" y="430"/>
      <point x="236" y="454" type="curve" smooth="yes"/>
      <point x="183" y="555"/>
      <point x="160" y="605"/>
      <point x="160" y="621" type="curve" smooth="yes"/>
      <point x="160" y="642"/>
      <point x="177" y="648"/>
      <point x="237" y="650" type="curve"/>
      <point x="237" y="676" type="line"/>
      <point x="-64" y="676" type="line"/>
      <point x="-64" y="650" type="line"/>
      <point x="-23" y="647"/>
      <point x="0" y="633"/>
      <point x="19" y="597" type="curve" smooth="yes"/>
      <point x="149" y="342" type="line"/>
      <point x="50" y="342" type="line"/>
      <point x="50" y="292" type="line"/>
      <point x="174" y="292" type="line"/>
      <point x="185" y="271" type="line"/>
      <point x="185" y="214" type="line"/>
      <point x="50" y="214" type="line"/>
      <point x="50" y="164" type="line"/>
      <point x="185" y="164" type="line"/>
      <point x="185" y="115" type="line" smooth="yes"/>
      <point x="185" y="47"/>
      <point x="168" y="32"/>
      <point x="83" y="25" type="curve"/>
      <point x="83" y="0" type="line"/>
      <point x="414" y="0" type="line"/>
      <point x="414" y="25" type="line"/>
      <point x="331" y="32"/>
      <point x="315" y="47"/>
      <point x="315" y="115" type="curve" smooth="yes"/>
      <point x="315" y="164" type="line"/>
      <point x="450" y="164" type="line"/>
      <point x="450" y="214" type="line"/>
      <point x="315" y="214" type="line"/>
      <point x="315" y="281" type="line"/>
      <point x="319" y="292" type="line"/>
    </contour>
  </outline>
</glyph>
<glyph name="brokenbar" format="1">
  <advance width="220"/>
  <unicode hex="00A6"/>
  <outline>
    <contour>
      <point x="66" y="-19" type="line"/>
      <point x="154" y="-19" type="line"/>
      <point x="154" y="258" type="line"/>
      <point x="66" y="258" type="line"/>
    </contour>
    <contour>
      <point x="66" y="414" type="line"/>
      <point x="154" y="414" type="line"/>
      <point x="154" y="691" type="line"/>
      <point x="66" y="691" type="line"/>
    </contour>
  </outline>
</glyph>
<glyph name="dieresis" format="1">
  <advance width="333"/>
  <unicode hex="00A8"/>
  <outline>
    <contour>
      <point x="62" y="666" type="curve" smooth="yes"/>
      <point x="28" y="666"/>
      <point x="-2" y="636"/>
      <point x="-2" y="602" type="curve" smooth="yes"/>
      <point x="-2" y="567"/>
      <point x="27" y="537"/>
      <point x="62" y="537" type="curve" smooth="yes"/>
      <point x="98" y="537"/>
      <point x="127" y="565"/>
      <point x="127" y="600" type="curve" smooth="yes"/>
      <point x="127" y="636"/>
      <point x="97" y="666"/>
    </contour>
    <contour>
      <point x="271" y="666" type="curve" smooth="yes"/>
      <point x="238" y="666"/>
      <point x="208" y="636"/>
      <point x="208" y="603" type="curve" smooth="yes"/>
      <point x="208" y="566"/>
      <point x="236" y="537"/>
      <point x="271" y="537" type="curve" smooth="yes"/>
      <point x="308" y="537"/>
      <point x="337" y="565"/>
      <point x="337" y="600" type="curve" smooth="yes"/>
      <point x="337" y="636"/>
      <point x="307" y="666"/>
    </contour>
  </outline>
</glyph>
<glyph name="ordfeminine" format="1">
  <advance width="300"/>
  <unicode hex="00AA"/>
  <outline>
    <contour>
      <point x="291" y="443" type="line"/>
      <point x="285" y="437" type="line" smooth="yes"/>
      <point x="284" y="436"/>
      <point x="282" y="435"/>
      <point x="279" y="435" type="curve" smooth="yes"/>
      <point x="271" y="435"/>
      <point x="268" y="439"/>
      <point x="268" y="450" type="curve" smooth="yes"/>
      <point x="268" y="606" type="line" smooth="yes"/>
      <point x="268" y="656"/>
      <point x="219" y="688"/>
      <point x="141" y="688" type="curve" smooth="yes"/>
      <point x="63" y="688"/>
      <point x="12" y="659"/>
      <point x="12" y="613" type="curve" smooth="yes"/>
      <point x="12" y="588"/>
      <point x="28" y="573"/>
      <point x="54" y="573" type="curve" smooth="yes"/>
      <point x="82" y="573"/>
      <point x="102" y="587"/>
      <point x="102" y="608" type="curve" smooth="yes"/>
      <point x="102" y="614"/>
      <point x="99" y="621"/>
      <point x="91" y="629" type="curve" smooth="yes"/>
      <point x="85" y="635"/>
      <point x="82" y="640"/>
      <point x="82" y="643" type="curve" smooth="yes"/>
      <point x="82" y="655"/>
      <point x="101" y="665"/>
      <point x="123" y="665" type="curve" smooth="yes"/>
      <point x="159" y="665"/>
      <point x="173" y="650"/>
      <point x="173" y="613" type="curve" smooth="yes"/>
      <point x="173" y="573" type="line"/>
      <point x="38" y="538"/>
      <point x="-1" y="513"/>
      <point x="-1" y="463" type="curve" smooth="yes"/>
      <point x="-1" y="424"/>
      <point x="29" y="397"/>
      <point x="73" y="397" type="curve" smooth="yes"/>
      <point x="111" y="397"/>
      <point x="140" y="409"/>
      <point x="175" y="438" type="curve"/>
      <point x="182" y="408"/>
      <point x="196" y="397"/>
      <point x="228" y="397" type="curve" smooth="yes"/>
      <point x="257" y="397"/>
      <point x="277" y="406"/>
      <point x="301" y="431" type="curve"/>
    </contour>
    <contour>
      <point x="172" y="465" type="line"/>
      <point x="158" y="447"/>
      <point x="145" y="439"/>
      <point x="129" y="439" type="curve" smooth="yes"/>
      <point x="110" y="439"/>
      <point x="97" y="456"/>
      <point x="97" y="479" type="curve" smooth="yes"/>
      <point x="97" y="513"/>
      <point x="122" y="537"/>
      <point x="172" y="552" type="curve"/>
    </contour>
  </outline>
</glyph>
<glyph name="guillemotleft" format="1">
  <advance width="500"/>
  <unicode hex="00AB"/>
  <outline>
    <contour>
      <point x="23" y="229" type="line"/>
      <point x="23" y="225" type="line"/>
      <point x="229" y="59" type="line"/>
      <point x="230" y="58"/>
      <point x="233" y="55"/>
      <point x="237" y="52" type="curve"/>
      <point x="249" y="41"/>
      <point x="258" y="36"/>
      <point x="265" y="36" type="curve" smooth="yes"/>
      <point x="272" y="36"/>
      <point x="277" y="42"/>
      <point x="277" y="51" type="curve" smooth="yes"/>
      <point x="277" y="71"/>
      <point x="249" y="115"/>
      <point x="199" y="173" type="curve" smooth="yes"/>
      <point x="185" y="190"/>
      <point x="174" y="205"/>
      <point x="159" y="227" type="curve"/>
      <point x="169" y="240"/>
      <point x="179" y="253"/>
      <point x="183" y="257" type="curve"/>
      <point x="240" y="328"/>
      <point x="275" y="383"/>
      <point x="275" y="404" type="curve" smooth="yes"/>
      <point x="275" y="411"/>
      <point x="271" y="415"/>
      <point x="263" y="415" type="curve" smooth="yes"/>
      <point x="255" y="415"/>
      <point x="247" y="411"/>
      <point x="232" y="398" type="curve"/>
      <point x="231" y="397"/>
      <point x="229" y="395"/>
      <point x="226" y="393" type="curve"/>
    </contour>
    <contour>
      <point x="219" y="229" type="line"/>
      <point x="219" y="225" type="line"/>
      <point x="425" y="59" type="line"/>
      <point x="426" y="58"/>
      <point x="429" y="55"/>
      <point x="433" y="52" type="curve"/>
      <point x="445" y="41"/>
      <point x="454" y="36"/>
      <point x="461" y="36" type="curve" smooth="yes"/>
      <point x="468" y="36"/>
      <point x="473" y="42"/>
      <point x="473" y="51" type="curve" smooth="yes"/>
      <point x="473" y="71"/>
      <point x="445" y="115"/>
      <point x="395" y="173" type="curve" smooth="yes"/>
      <point x="381" y="190"/>
      <point x="370" y="205"/>
      <point x="355" y="227" type="curve"/>
      <point x="378" y="257" type="line" smooth="yes"/>
      <point x="436" y="328"/>
      <point x="471" y="383"/>
      <point x="471" y="404" type="curve" smooth="yes"/>
      <point x="471" y="411"/>
      <point x="467" y="415"/>
      <point x="459" y="415" type="curve" smooth="yes"/>
      <point x="451" y="415"/>
      <point x="443" y="411"/>
      <point x="428" y="398" type="curve"/>
      <point x="427" y="397"/>
      <point x="425" y="395"/>
      <point x="422" y="393" type="curve"/>
    </contour>
  </outline>
</glyph>
<glyph name="logicalnot" format="1">
  <advance width="570"/>
  <unicode hex="00AC"/>
  <outline>
    <contour>
      <point x="449" y="108" type="line"/>
      <point x="537" y="108" type="line"/>
      <point x="537" y="399" type="line"/>
      <point x="33" y="399" type="line"/>
      <point x="33" y="311" type="line"/>
      <point x="449" y="311" type="line"/>
    </contour>
  </outline>
</glyph>
<glyph name="macron" format="1">
  <advance width="333"/>
  <unicode hex="00AF"/>
  <outline>
    <contour>
      <point x="331" y="637" type="line"/>
      <point x="1" y="637" type="line"/>
      <point x="1" y="565" type="line"/>
      <point x="331" y="565" type="line"/>
    </contour>
  </outline>
</glyph>
<glyph name="degree" format="1">
  <advance width="400"/>
  <unicode hex="00B0"/>
  <outline>
    <contour>
      <point x="200" y="688" type="curve" smooth="yes"/>
      <point x="120" y="688"/>
      <point x="57" y="625"/>
      <point x="57" y="545" type="curve" smooth="yes"/>
      <point x="57" y="466"/>
      <point x="120" y="402"/>
      <point x="198" y="402" type="curve" smooth="yes"/>
      <point x="280" y="402"/>
      <point x="343" y="464"/>
      <point x="343" y="545" type="curve" smooth="yes"/>
      <point x="343" y="625"/>
      <point x="280" y="688"/>
    </contour>
    <contour>
      <point x="200" y="652" type="curve" smooth="yes"/>
      <point x="255" y="652"/>
      <point x="302" y="603"/>
      <point x="302" y="545" type="curve" smooth="yes"/>
      <point x="302" y="486"/>
      <point x="256" y="438"/>
      <point x="199" y="438" type="curve" smooth="yes"/>
      <point x="144" y="438"/>
      <point x="98" y="487"/>
      <point x="98" y="545" type="curve" smooth="yes"/>
      <point x="98" y="603"/>
      <point x="144" y="652"/>
    </contour>
  </outline>
</glyph>
<glyph name="acute" format="1">
  <advance width="333"/>
  <unicode hex="00B4"/>
  <outline>
    <contour>
      <point x="86" y="528" type="line"/>
      <point x="142" y="528" type="line"/>
      <point x="284" y="616" type="line" smooth="yes"/>
      <point x="316" y="636"/>
      <point x="324" y="646"/>
      <point x="324" y="669" type="curve" smooth="yes"/>
      <point x="324" y="695"/>
      <point x="305" y="713"/>
      <point x="276" y="713" type="curve" smooth="yes"/>
      <point x="257" y="713"/>
      <point x="240" y="704"/>
      <point x="223" y="685" type="curve" smooth="yes"/>
    </contour>
  </outline>
</glyph>
<glyph name="paragraph" format="1">
  <advance width="540"/>
  <unicode hex="00B6"/>
  <outline>
    <contour>
      <point x="293" y="651" type="line"/>
      <point x="343" y="651" type="line"/>
      <point x="343" y="-186" type="line"/>
      <point x="514" y="-186" type="line"/>
      <point x="514" y="-161" type="line"/>
      <point x="504" y="-160"/>
      <point x="494" y="-159"/>
      <point x="491" y="-159" type="curve"/>
      <point x="443" y="-153"/>
      <point x="439" y="-148"/>
      <point x="438" y="-109" type="curve"/>
      <point x="437" y="-99" type="line"/>
      <point x="437" y="-61" type="line"/>
      <point x="437" y="551" type="line"/>
      <point x="437" y="589" type="line"/>
      <point x="438" y="599" type="line"/>
      <point x="438" y="638"/>
      <point x="444" y="643"/>
      <point x="493" y="649" type="curve"/>
      <point x="497" y="649"/>
      <point x="508" y="650"/>
      <point x="519" y="651" type="curve"/>
      <point x="519" y="676" type="line"/>
      <point x="219" y="676" type="line" smooth="yes"/>
      <point x="69" y="676"/>
      <point x="0" y="615"/>
      <point x="0" y="481" type="curve" smooth="yes"/>
      <point x="0" y="392"/>
      <point x="32" y="327"/>
      <point x="92" y="292" type="curve" smooth="yes"/>
      <point x="122" y="274"/>
      <point x="148" y="267"/>
      <point x="199" y="265" type="curve"/>
      <point x="199" y="-61" type="line"/>
      <point x="199" y="-99" type="line"/>
      <point x="198" y="-109" type="line"/>
      <point x="198" y="-150"/>
      <point x="192" y="-154"/>
      <point x="118" y="-161" type="curve"/>
      <point x="118" y="-186" type="line"/>
      <point x="293" y="-186" type="line"/>
    </contour>
    <contour>
      <point x="199" y="290" type="line"/>
      <point x="124" y="317"/>
      <point x="90" y="378"/>
      <point x="90" y="483" type="curve" smooth="yes"/>
      <point x="90" y="532"/>
      <point x="99" y="572"/>
      <point x="115" y="598" type="curve" smooth="yes"/>
      <point x="132" y="627"/>
      <point x="152" y="639"/>
      <point x="199" y="651" type="curve"/>
    </contour>
  </outline>
</glyph>
<glyph name="cedilla" format="1">
  <advance width="333"/>
  <unicode hex="00B8"/>
  <outline>
    <contour>
      <point x="116" y="-96" type="line"/>
      <point x="127" y="-104" type="line"/>
      <point x="138" y="-101"/>
      <point x="146" y="-100"/>
      <point x="155" y="-100" type="curve" smooth="yes"/>
      <point x="184" y="-100"/>
      <point x="201" y="-114"/>
      <point x="201" y="-136" type="curve" smooth="yes"/>
      <point x="201" y="-162"/>
      <point x="180" y="-177"/>
      <point x="144" y="-177" type="curve" smooth="yes"/>
      <point x="127" y="-177"/>
      <point x="113" y="-174"/>
      <point x="90" y="-165" type="curve"/>
      <point x="84" y="-163" type="line"/>
      <point x="68" y="-200" type="line"/>
      <point x="104" y="-213"/>
      <point x="131" y="-218"/>
      <point x="164" y="-218" type="curve" smooth="yes"/>
      <point x="244" y="-218"/>
      <point x="294" y="-184"/>
      <point x="294" y="-129" type="curve" smooth="yes"/>
      <point x="294" y="-85"/>
      <point x="261" y="-59"/>
      <point x="206" y="-59" type="curve" smooth="yes"/>
      <point x="193" y="-59"/>
      <point x="185" y="-60"/>
      <point x="173" y="-64" type="curve"/>
      <point x="201" y="0" type="line"/>
      <point x="159" y="0" type="line"/>
    </contour>
  </outline>
</glyph>
<glyph name="ordmasculine" format="1">
  <advance width="330"/>
  <unicode hex="00BA"/>
  <outline>
    <contour>
      <point x="165" y="688" type="curve" smooth="yes"/>
      <point x="81" y="688"/>
      <point x="18" y="626"/>
      <point x="18" y="542" type="curve" smooth="yes"/>
      <point x="18" y="459"/>
      <point x="80" y="397"/>
      <point x="163" y="397" type="curve" smooth="yes"/>
      <point x="250" y="397"/>
      <point x="312" y="457"/>
      <point x="312" y="543" type="curve" smooth="yes"/>
      <point x="312" y="626"/>
      <point x="249" y="688"/>
    </contour>
    <contour>
      <point x="165" y="667" type="curve" smooth="yes"/>
      <point x="202" y="667"/>
      <point x="214" y="636"/>
      <point x="214" y="536" type="curve" smooth="yes"/>
      <point x="214" y="447"/>
      <point x="201" y="417"/>
      <point x="164" y="417" type="curve" smooth="yes"/>
      <point x="128" y="417"/>
      <point x="115" y="449"/>
      <point x="115" y="538" type="curve" smooth="yes"/>
      <point x="115" y="635"/>
      <point x="127" y="667"/>
    </contour>
  </outline>
</glyph>
<glyph name="guillemotright" format="1">
  <advance width="500"/>
  <unicode hex="00BB"/>
  <outline>
    <contour>
      <point x="78" y="58" type="line"/>
      <point x="281" y="222" type="line"/>
      <point x="281" y="226" type="line"/>
      <point x="75" y="392" type="line"/>
      <point x="74" y="393"/>
      <point x="71" y="396"/>
      <point x="67" y="399" type="curve"/>
      <point x="55" y="410"/>
      <point x="45" y="415"/>
      <point x="38" y="415" type="curve" smooth="yes"/>
      <point x="32" y="415"/>
      <point x="27" y="409"/>
      <point x="27" y="400" type="curve" smooth="yes"/>
      <point x="27" y="380"/>
      <point x="54" y="337"/>
      <point x="105" y="277" type="curve" smooth="yes"/>
      <point x="118" y="262"/>
      <point x="130" y="246"/>
      <point x="145" y="224" type="curve"/>
      <point x="122" y="194" type="line" smooth="yes"/>
      <point x="64" y="123"/>
      <point x="29" y="68"/>
      <point x="29" y="47" type="curve" smooth="yes"/>
      <point x="29" y="40"/>
      <point x="33" y="36"/>
      <point x="41" y="36" type="curve" smooth="yes"/>
      <point x="49" y="36"/>
      <point x="56" y="39"/>
      <point x="72" y="53" type="curve" smooth="yes"/>
    </contour>
    <contour>
      <point x="477" y="222" type="line"/>
      <point x="477" y="226" type="line"/>
      <point x="271" y="392" type="line"/>
      <point x="269" y="393"/>
      <point x="266" y="396"/>
      <point x="263" y="399" type="curve"/>
      <point x="250" y="410"/>
      <point x="241" y="415"/>
      <point x="235" y="415" type="curve" smooth="yes"/>
      <point x="228" y="415"/>
      <point x="223" y="409"/>
      <point x="223" y="400" type="curve" smooth="yes"/>
      <point x="223" y="380"/>
      <point x="250" y="337"/>
      <point x="301" y="277" type="curve" smooth="yes"/>
      <point x="314" y="262"/>
      <point x="326" y="246"/>
      <point x="341" y="224" type="curve"/>
      <point x="317" y="194" type="line" smooth="yes"/>
      <point x="260" y="124"/>
      <point x="225" y="68"/>
      <point x="225" y="47" type="curve" smooth="yes"/>
      <point x="225" y="40"/>
      <point x="229" y="36"/>
      <point x="237" y="36" type="curve" smooth="yes"/>
      <point x="245" y="36"/>
      <point x="251" y="39"/>
      <point x="267" y="53" type="curve"/>
      <point x="271" y="56"/>
      <point x="273" y="57"/>
      <point x="274" y="58" type="curve"/>
    </contour>
  </outline>
</glyph>
<glyph name="onequarter" format="1">
  <advance width="750"/>
  <unicode hex="00BC"/>
  <outline>
    <contour>
      <point x="702" y="153" type="line"/>
      <point x="702" y="413" type="line"/>
      <point x="650" y="413" type="line"/>
      <point x="611" y="367" type="line" smooth="yes"/>
      <point x="522" y="259"/>
      <point x="489" y="217"/>
      <point x="447" y="154" type="curve"/>
      <point x="447" y="87" type="line"/>
      <point x="608" y="87" type="line"/>
      <point x="608" y="0" type="line"/>
      <point x="702" y="0" type="line"/>
      <point x="702" y="87" type="line"/>
      <point x="743" y="87" type="line"/>
      <point x="743" y="153" type="line"/>
    </contour>
    <contour>
      <point x="609" y="153" type="line"/>
      <point x="472" y="153" type="line"/>
      <point x="609" y="328" type="line"/>
    </contour>
    <contour>
      <point x="615" y="688" type="line"/>
      <point x="174" y="-12" type="line"/>
      <point x="232" y="-12" type="line"/>
      <point x="671" y="688" type="line"/>
    </contour>
    <contour>
      <point x="273" y="295" type="line"/>
      <point x="214" y="296"/>
      <point x="203" y="305"/>
      <point x="203" y="351" type="curve" smooth="yes"/>
      <point x="203" y="688" type="line"/>
      <point x="192" y="688" type="line"/>
      <point x="28" y="623" type="line"/>
      <point x="28" y="602" type="line"/>
      <point x="34" y="604"/>
      <point x="39" y="606"/>
      <point x="41" y="607" type="curve"/>
      <point x="59" y="613"/>
      <point x="75" y="617"/>
      <point x="84" y="617" type="curve" smooth="yes"/>
      <point x="100" y="617"/>
      <point x="107" y="604"/>
      <point x="107" y="576" type="curve" smooth="yes"/>
      <point x="107" y="355" type="line" smooth="yes"/>
      <point x="107" y="305"/>
      <point x="94" y="295"/>
      <point x="30" y="295" type="curve"/>
      <point x="30" y="275" type="line"/>
      <point x="273" y="275" type="line"/>
    </contour>
  </outline>
</glyph>
<glyph name="onehalf" format="1">
  <advance width="750"/>
  <unicode hex="00BD"/>
  <outline>
    <contour>
      <point x="573" y="688" type="line"/>
      <point x="132" y="-12" type="line"/>
      <point x="190" y="-12" type="line"/>
      <point x="629" y="688" type="line"/>
    </contour>
    <contour>
      <point x="238" y="295" type="line"/>
      <point x="179" y="296"/>
      <point x="168" y="305"/>
      <point x="168" y="351" type="curve" smooth="yes"/>
      <point x="168" y="688" type="line"/>
      <point x="157" y="688" type="line"/>
      <point x="-7" y="623" type="line"/>
      <point x="-7" y="602" type="line"/>
      <point x="-1" y="604"/>
      <point x="4" y="606"/>
      <point x="6" y="607" type="curve"/>
      <point x="24" y="613"/>
      <point x="40" y="617"/>
      <point x="49" y="617" type="curve" smooth="yes"/>
      <point x="65" y="617"/>
      <point x="72" y="604"/>
      <point x="72" y="576" type="curve" smooth="yes"/>
      <point x="72" y="355" type="line" smooth="yes"/>
      <point x="72" y="305"/>
      <point x="59" y="295"/>
      <point x="-5" y="295" type="curve"/>
      <point x="-5" y="275" type="line"/>
      <point x="238" y="275" type="line"/>
    </contour>
    <contour>
      <point x="775" y="127" type="line"/>
      <point x="759" y="127" type="line"/>
      <point x="740" y="84"/>
      <point x="732" y="80"/>
      <point x="666" y="80" type="curve" smooth="yes"/>
      <point x="580" y="80" type="line"/>
      <point x="580" y="85" type="line"/>
      <point x="673" y="172" type="line" smooth="yes"/>
      <point x="727" y="222"/>
      <point x="747" y="258"/>
      <point x="747" y="302" type="curve" smooth="yes"/>
      <point x="747" y="367"/>
      <point x="697" y="413"/>
      <point x="627" y="413" type="curve" smooth="yes"/>
      <point x="563" y="413"/>
      <point x="518" y="375"/>
      <point x="484" y="291" type="curve"/>
      <point x="508" y="291" type="line"/>
      <point x="529" y="330"/>
      <point x="550" y="345"/>
      <point x="584" y="345" type="curve" smooth="yes"/>
      <point x="626" y="345"/>
      <point x="659" y="311"/>
      <point x="659" y="269" type="curve" smooth="yes"/>
      <point x="659" y="211"/>
      <point x="624" y="163"/>
      <point x="475" y="14" type="curve"/>
      <point x="475" y="0" type="line"/>
      <point x="745" y="0" type="line"/>
    </contour>
  </outline>
</glyph>
<glyph name="threequarters" format="1">
  <advance width="750"/>
  <unicode hex="00BE"/>
  <outline>
    <contour>
      <point x="613" y="688" type="line"/>
      <point x="172" y="-12" type="line"/>
      <point x="230" y="-12" type="line"/>
      <point x="669" y="688" type="line"/>
    </contour>
    <contour>
      <point x="56" y="590" type="line"/>
      <point x="81" y="627"/>
      <point x="100" y="640"/>
      <point x="131" y="640" type="curve" smooth="yes"/>
      <point x="170" y="640"/>
      <point x="196" y="616"/>
      <point x="196" y="579" type="curve" smooth="yes"/>
      <point x="196" y="539"/>
      <point x="173" y="518"/>
      <point x="112" y="500" type="curve"/>
      <point x="112" y="490" type="line"/>
      <point x="208" y="459"/>
      <point x="242" y="427"/>
      <point x="242" y="369" type="curve" smooth="yes"/>
      <point x="242" y="330"/>
      <point x="217" y="304"/>
      <point x="179" y="304" type="curve" smooth="yes"/>
      <point x="163" y="304"/>
      <point x="151" y="310"/>
      <point x="130" y="330" type="curve" smooth="yes"/>
      <point x="100" y="356"/>
      <point x="92" y="360"/>
      <point x="63" y="363" type="curve"/>
      <point x="36" y="354"/>
      <point x="23" y="341"/>
      <point x="23" y="322" type="curve" smooth="yes"/>
      <point x="23" y="289"/>
      <point x="62" y="268"/>
      <point x="123" y="268" type="curve" smooth="yes"/>
      <point x="231" y="268"/>
      <point x="317" y="337"/>
      <point x="317" y="424" type="curve" smooth="yes"/>
      <point x="317" y="473"/>
      <point x="291" y="509"/>
      <point x="241" y="529" type="curve"/>
      <point x="241" y="533" type="line"/>
      <point x="278" y="553"/>
      <point x="291" y="572"/>
      <point x="291" y="607" type="curve" smooth="yes"/>
      <point x="291" y="658"/>
      <point x="252" y="688"/>
      <point x="185" y="688" type="curve" smooth="yes"/>
      <point x="120" y="688"/>
      <point x="72" y="658"/>
      <point x="36" y="597" type="curve"/>
    </contour>
    <contour>
      <point x="692" y="153" type="line"/>
      <point x="692" y="413" type="line"/>
      <point x="640" y="413" type="line"/>
      <point x="601" y="367" type="line" smooth="yes"/>
      <point x="512" y="259"/>
      <point x="479" y="217"/>
      <point x="437" y="154" type="curve"/>
      <point x="437" y="87" type="line"/>
      <point x="598" y="87" type="line"/>
      <point x="598" y="0" type="line"/>
      <point x="692" y="0" type="line"/>
      <point x="692" y="87" type="line"/>
      <point x="733" y="87" type="line"/>
      <point x="733" y="153" type="line"/>
    </contour>
    <contour>
      <point x="599" y="153" type="line"/>
      <point x="462" y="153" type="line"/>
      <point x="599" y="328" type="line"/>
    </contour>
  </outline>
</glyph>
<glyph name="questiondown" format="1">
  <advance width="500"/>
  <unicode hex="00BF"/>
  <outline>
    <contour>
      <point x="247" y="257" type="line"/>
      <point x="247" y="184"/>
      <point x="239" y="170"/>
      <point x="176" y="131" type="curve" smooth="yes"/>
      <point x="85" y="75"/>
      <point x="55" y="34"/>
      <point x="55" y="-35" type="curve" smooth="yes"/>
      <point x="55" y="-135"/>
      <point x="135" y="-201"/>
      <point x="255" y="-201" type="curve" smooth="yes"/>
      <point x="364" y="-201"/>
      <point x="443" y="-141"/>
      <point x="443" y="-57" type="curve" smooth="yes"/>
      <point x="443" y="-13"/>
      <point x="414" y="19"/>
      <point x="375" y="19" type="curve" smooth="yes"/>
      <point x="337" y="19"/>
      <point x="312" y="-7"/>
      <point x="312" y="-45" type="curve" smooth="yes"/>
      <point x="312" y="-65"/>
      <point x="317" y="-77"/>
      <point x="334" y="-96" type="curve" smooth="yes"/>
      <point x="346" y="-109"/>
      <point x="349" y="-115"/>
      <point x="349" y="-125" type="curve" smooth="yes"/>
      <point x="349" y="-149"/>
      <point x="324" y="-165"/>
      <point x="288" y="-165" type="curve" smooth="yes"/>
      <point x="235" y="-165"/>
      <point x="204" y="-117"/>
      <point x="204" y="-35" type="curve" smooth="yes"/>
      <point x="204" y="17"/>
      <point x="214" y="51"/>
      <point x="247" y="114" type="curve" smooth="yes"/>
      <point x="271" y="160"/>
      <point x="279" y="184"/>
      <point x="279" y="211" type="curve" smooth="yes"/>
      <point x="279" y="218"/>
      <point x="279" y="230"/>
      <point x="278" y="243" type="curve" smooth="yes"/>
      <point x="277" y="257" type="line"/>
    </contour>
    <contour>
      <point x="262" y="501" type="curve" smooth="yes"/>
      <point x="214" y="501"/>
      <point x="177" y="464"/>
      <point x="177" y="417" type="curve" smooth="yes"/>
      <point x="177" y="371"/>
      <point x="215" y="332"/>
      <point x="261" y="332" type="curve" smooth="yes"/>
      <point x="307" y="332"/>
      <point x="346" y="371"/>
      <point x="346" y="416" type="curve" smooth="yes"/>
      <point x="346" y="464"/>
      <point x="309" y="501"/>
    </contour>
  </outline>
</glyph>
<glyph name="Agrave" format="1">
  <advance width="722"/>
  <unicode hex="00C0"/>
  <outline>
    <contour>
      <point x="689" y="25" type="line"/>
      <point x="685" y="25" type="line" smooth="yes"/>
      <point x="646" y="25"/>
      <point x="630" y="46"/>
      <point x="580" y="164" type="curve" smooth="yes"/>
      <point x="357" y="690" type="line"/>
      <point x="329" y="690" type="line"/>
      <point x="107" y="142" type="line" smooth="yes"/>
      <point x="69" y="49"/>
      <point x="57" y="34"/>
      <point x="9" y="25" type="curve"/>
      <point x="9" y="0" type="line"/>
      <point x="212" y="0" type="line"/>
      <point x="212" y="25" type="line"/>
      <point x="153" y="29"/>
      <point x="130" y="40"/>
      <point x="130" y="66" type="curve" smooth="yes"/>
      <point x="130" y="79"/>
      <point x="138" y="104"/>
      <point x="159" y="158" type="curve" smooth="yes"/>
      <point x="174" y="197" type="line"/>
      <point x="399" y="197" type="line"/>
      <point x="433" y="119"/>
      <point x="445" y="83"/>
      <point x="445" y="61" type="curve" smooth="yes"/>
      <point x="445" y="40"/>
      <point x="432" y="30"/>
      <point x="397" y="28" type="curve"/>
      <point x="392" y="28"/>
      <point x="379" y="27"/>
      <point x="365" y="25" type="curve"/>
      <point x="365" y="0" type="line"/>
      <point x="689" y="0" type="line"/>
    </contour>
    <contour>
      <point x="189" y="236" type="line"/>
      <point x="283" y="479" type="line"/>
      <point x="384" y="236" type="line"/>
    </contour>
    <contour>
      <point x="434" y="738" type="line"/>
      <point x="297" y="895" type="line" smooth="yes"/>
      <point x="281" y="913"/>
      <point x="262" y="923"/>
      <point x="243" y="923" type="curve" smooth="yes"/>
      <point x="217" y="923"/>
      <point x="196" y="903"/>
      <point x="196" y="878" type="curve" smooth="yes"/>
      <point x="196" y="858"/>
      <point x="207" y="844"/>
      <point x="236" y="826" type="curve" smooth="yes"/>
      <point x="378" y="738" type="line"/>
    </contour>
  </outline>
</glyph>
<glyph name="Atilde" format="1">
  <advance width="722"/>
  <unicode hex="00C3"/>
  <outline>
    <contour>
      <point x="689" y="25" type="line"/>
      <point x="685" y="25" type="line" smooth="yes"/>
      <point x="646" y="25"/>
      <point x="630" y="46"/>
      <point x="580" y="164" type="curve" smooth="yes"/>
      <point x="357" y="690" type="line"/>
      <point x="329" y="690" type="line"/>
      <point x="107" y="142" type="line" smooth="yes"/>
      <point x="69" y="49"/>
      <point x="57" y="34"/>
      <point x="9" y="25" type="curve"/>
      <point x="9" y="0" type="line"/>
      <point x="212" y="0" type="line"/>
      <point x="212" y="25" type="line"/>
      <point x="153" y="29"/>
      <point x="130" y="40"/>
      <point x="130" y="66" type="curve" smooth="yes"/>
      <point x="130" y="79"/>
      <point x="138" y="104"/>
      <point x="159" y="158" type="curve" smooth="yes"/>
      <point x="174" y="197" type="line"/>
      <point x="399" y="197" type="line"/>
      <point x="433" y="119"/>
      <point x="445" y="83"/>
      <point x="445" y="61" type="curve" smooth="yes"/>
      <point x="445" y="40"/>
      <point x="432" y="30"/>
      <point x="397" y="28" type="curve"/>
      <point x="392" y="28"/>
      <point x="379" y="27"/>
      <point x="365" y="25" type="curve"/>
      <point x="365" y="0" type="line"/>
      <point x="689" y="0" type="line"/>
    </contour>
    <contour>
      <point x="189" y="236" type="line"/>
      <point x="283" y="479" type="line"/>
      <point x="384" y="236" type="line"/>
    </contour>
    <contour>
      <point x="210" y="759" type="line"/>
      <point x="214" y="787"/>
      <point x="233" y="806"/>
      <point x="259" y="806" type="curve" smooth="yes"/>
      <point x="272" y="806"/>
      <point x="280" y="803"/>
      <point x="323" y="784" type="curve" smooth="yes"/>
      <point x="352" y="771" type="line" smooth="yes"/>
      <point x="371" y="763"/>
      <point x="396" y="757"/>
      <point x="416" y="757" type="curve" smooth="yes"/>
      <point x="473" y="757"/>
      <point x="510" y="797"/>
      <point x="533" y="884" type="curve"/>
      <point x="490" y="884" type="line"/>
      <point x="477" y="848"/>
      <point x="463" y="835"/>
      <point x="436" y="835" type="curve" smooth="yes"/>
      <point x="425" y="835"/>
      <point x="421" y="836"/>
      <point x="397" y="847" type="curve" smooth="yes"/>
      <point x="357" y="865" type="line" smooth="yes"/>
      <point x="329" y="878"/>
      <point x="305" y="884"/>
      <point x="284" y="884" type="curve" smooth="yes"/>
      <point x="222" y="884"/>
      <point x="186" y="845"/>
      <point x="168" y="759" type="curve"/>
    </contour>
  </outline>
</glyph>
<glyph name="Adieresis" format="1">
  <advance width="722"/>
  <unicode hex="00C4"/>
  <outline>
    <contour>
      <point x="689" y="25" type="line"/>
      <point x="685" y="25" type="line" smooth="yes"/>
      <point x="646" y="25"/>
      <point x="630" y="46"/>
      <point x="580" y="164" type="curve" smooth="yes"/>
      <point x="357" y="690" type="line"/>
      <point x="329" y="690" type="line"/>
      <point x="107" y="142" type="line" smooth="yes"/>
      <point x="69" y="49"/>
      <point x="57" y="34"/>
      <point x="9" y="25" type="curve"/>
      <point x="9" y="0" type="line"/>
      <point x="212" y="0" type="line"/>
      <point x="212" y="25" type="line"/>
      <point x="153" y="29"/>
      <point x="130" y="40"/>
      <point x="130" y="66" type="curve" smooth="yes"/>
      <point x="130" y="79"/>
      <point x="138" y="104"/>
      <point x="159" y="158" type="curve" smooth="yes"/>
      <point x="174" y="197" type="line"/>
      <point x="399" y="197" type="line"/>
      <point x="433" y="119"/>
      <point x="445" y="83"/>
      <point x="445" y="61" type="curve" smooth="yes"/>
      <point x="445" y="40"/>
      <point x="432" y="30"/>
      <point x="397" y="28" type="curve"/>
      <point x="392" y="28"/>
      <point x="379" y="27"/>
      <point x="365" y="25" type="curve"/>
      <point x="365" y="0" type="line"/>
      <point x="689" y="0" type="line"/>
    </contour>
    <contour>
      <point x="189" y="236" type="line"/>
      <point x="283" y="479" type="line"/>
      <point x="384" y="236" type="line"/>
    </contour>
    <contour>
      <point x="238" y="876" type="curve" smooth="yes"/>
      <point x="204" y="876"/>
      <point x="174" y="846"/>
      <point x="174" y="812" type="curve" smooth="yes"/>
      <point x="174" y="777"/>
      <point x="203" y="747"/>
      <point x="238" y="747" type="curve" smooth="yes"/>
      <point x="274" y="747"/>
      <point x="303" y="775"/>
      <point x="303" y="810" type="curve" smooth="yes"/>
      <point x="303" y="846"/>
      <point x="273" y="876"/>
    </contour>
    <contour>
      <point x="447" y="876" type="curve" smooth="yes"/>
      <point x="414" y="876"/>
      <point x="384" y="846"/>
      <point x="384" y="813" type="curve" smooth="yes"/>
      <point x="384" y="776"/>
      <point x="412" y="747"/>
      <point x="447" y="747" type="curve" smooth="yes"/>
      <point x="484" y="747"/>
      <point x="513" y="775"/>
      <point x="513" y="810" type="curve" smooth="yes"/>
      <point x="513" y="846"/>
      <point x="483" y="876"/>
    </contour>
  </outline>
</glyph>
<glyph name="Aring" format="1">
  <advance width="722"/>
  <unicode hex="00C5"/>
  <outline>
    <contour>
      <point x="689" y="25" type="line"/>
      <point x="685" y="25" type="line" smooth="yes"/>
      <point x="646" y="25"/>
      <point x="630" y="46"/>
      <point x="580" y="164" type="curve" smooth="yes"/>
      <point x="357" y="690" type="line"/>
      <point x="329" y="690" type="line"/>
      <point x="107" y="142" type="line" smooth="yes"/>
      <point x="69" y="49"/>
      <point x="57" y="34"/>
      <point x="9" y="25" type="curve"/>
      <point x="9" y="0" type="line"/>
      <point x="212" y="0" type="line"/>
      <point x="212" y="25" type="line"/>
      <point x="153" y="29"/>
      <point x="130" y="40"/>
      <point x="130" y="66" type="curve" smooth="yes"/>
      <point x="130" y="79"/>
      <point x="138" y="104"/>
      <point x="159" y="158" type="curve" smooth="yes"/>
      <point x="174" y="197" type="line"/>
      <point x="399" y="197" type="line"/>
      <point x="433" y="119"/>
      <point x="445" y="83"/>
      <point x="445" y="61" type="curve" smooth="yes"/>
      <point x="445" y="40"/>
      <point x="432" y="30"/>
      <point x="397" y="28" type="curve"/>
      <point x="392" y="28"/>
      <point x="379" y="27"/>
      <point x="365" y="25" type="curve"/>
      <point x="365" y="0" type="line"/>
      <point x="689" y="0" type="line"/>
    </contour>
    <contour>
      <point x="189" y="236" type="line"/>
      <point x="283" y="479" type="line"/>
      <point x="384" y="236" type="line"/>
    </contour>
    <contour>
      <point x="342" y="948" type="curve" smooth="yes"/>
      <point x="284" y="948"/>
      <point x="235" y="899"/>
      <point x="235" y="843" type="curve" smooth="yes"/>
      <point x="235" y="783"/>
      <point x="282" y="735"/>
      <point x="341" y="735" type="curve" smooth="yes"/>
      <point x="400" y="735"/>
      <point x="448" y="782"/>
      <point x="448" y="841" type="curve" smooth="yes"/>
      <point x="448" y="899"/>
      <point x="400" y="948"/>
    </contour>
    <contour>
      <point x="341" y="900" type="curve" smooth="yes"/>
      <point x="373" y="900"/>
      <point x="400" y="872"/>
      <point x="400" y="840" type="curve" smooth="yes"/>
      <point x="400" y="809"/>
      <point x="373" y="783"/>
      <point x="340" y="783" type="curve" smooth="yes"/>
      <point x="309" y="783"/>
      <point x="283" y="809"/>
      <point x="283" y="841" type="curve" smooth="yes"/>
      <point x="283" y="872"/>
      <point x="310" y="900"/>
    </contour>
  </outline>
</glyph>
<glyph name="AE" format="1">
  <advance width="1000"/>
  <unicode hex="00C6"/>
  <outline>
    <contour>
      <point x="432" y="303" type="line"/>
      <point x="432" y="119" type="line" smooth="yes"/>
      <point x="432" y="45"/>
      <point x="417" y="29"/>
      <point x="344" y="25" type="curve"/>
      <point x="344" y="0" type="line"/>
      <point x="910" y="0" type="line"/>
      <point x="951" y="211" type="line"/>
      <point x="928" y="211" type="line"/>
      <point x="920" y="181"/>
      <point x="886" y="130"/>
      <point x="852" y="95" type="curve" smooth="yes"/>
      <point x="812" y="53"/>
      <point x="753" y="34"/>
      <point x="668" y="34" type="curve" smooth="yes"/>
      <point x="608" y="34"/>
      <point x="592" y="45"/>
      <point x="592" y="88" type="curve" smooth="yes"/>
      <point x="592" y="331" type="line"/>
      <point x="704" y="324"/>
      <point x="729" y="298"/>
      <point x="747" y="174" type="curve"/>
      <point x="770" y="174" type="line"/>
      <point x="770" y="512" type="line"/>
      <point x="747" y="512" type="line"/>
      <point x="719" y="383"/>
      <point x="709" y="373"/>
      <point x="592" y="363" type="curve"/>
      <point x="592" y="611" type="line" smooth="yes"/>
      <point x="592" y="635"/>
      <point x="606" y="641"/>
      <point x="660" y="641" type="curve" smooth="yes"/>
      <point x="752" y="641"/>
      <point x="812" y="624"/>
      <point x="840" y="589" type="curve" smooth="yes"/>
      <point x="861" y="563"/>
      <point x="871" y="539"/>
      <point x="884" y="475" type="curve"/>
      <point x="909" y="475" type="line"/>
      <point x="909" y="676" type="line"/>
      <point x="275" y="676" type="line"/>
      <point x="275" y="654" type="line"/>
      <point x="341" y="650"/>
      <point x="362" y="641"/>
      <point x="362" y="617" type="curve" smooth="yes"/>
      <point x="362" y="607"/>
      <point x="353" y="587"/>
      <point x="334" y="555" type="curve"/>
      <point x="332" y="552"/>
      <point x="330" y="547"/>
      <point x="327" y="542" type="curve" smooth="yes"/>
      <point x="114" y="153" type="line" smooth="yes"/>
      <point x="51" y="40"/>
      <point x="43" y="31"/>
      <point x="4" y="25" type="curve"/>
      <point x="4" y="0" type="line"/>
      <point x="210" y="0" type="line"/>
      <point x="210" y="25" type="line"/>
      <point x="193" y="27" type="line" smooth="yes"/>
      <point x="141" y="33"/>
      <point x="127" y="43"/>
      <point x="127" y="70" type="curve" smooth="yes"/>
      <point x="127" y="82"/>
      <point x="131" y="95"/>
      <point x="142" y="115" type="curve" smooth="yes"/>
      <point x="242" y="303" type="line"/>
    </contour>
    <contour>
      <point x="264" y="343" type="line"/>
      <point x="425" y="633" type="line"/>
      <point x="432" y="633" type="line"/>
      <point x="432" y="343" type="line"/>
    </contour>
  </outline>
</glyph>
<glyph name="Ccedilla" format="1">
  <advance width="722"/>
  <unicode hex="00C7"/>
  <outline>
    <contour>
      <point x="401" y="-19" type="line"/>
      <point x="518" y="-18"/>
      <point x="593" y="20"/>
      <point x="687" y="127" type="curve"/>
      <point x="657" y="152" type="line"/>
      <point x="598" y="90"/>
      <point x="566" y="66"/>
      <point x="517" y="47" type="curve" smooth="yes"/>
      <point x="488" y="35"/>
      <point x="455" y="29"/>
      <point x="427" y="29" type="curve" smooth="yes"/>
      <point x="361" y="29"/>
      <point x="298" y="64"/>
      <point x="269" y="116" type="curve" smooth="yes"/>
      <point x="240" y="169"/>
      <point x="226" y="241"/>
      <point x="226" y="341" type="curve" smooth="yes"/>
      <point x="226" y="548"/>
      <point x="290" y="658"/>
      <point x="410" y="658" type="curve" smooth="yes"/>
      <point x="457" y="658"/>
      <point x="500" y="640"/>
      <point x="543" y="602" type="curve" smooth="yes"/>
      <point x="586" y="563"/>
      <point x="609" y="530"/>
      <point x="644" y="454" type="curve"/>
      <point x="669" y="454" type="line"/>
      <point x="669" y="688" type="line"/>
      <point x="642" y="688" type="line"/>
      <point x="628" y="653"/>
      <point x="617" y="642"/>
      <point x="598" y="642" type="curve" smooth="yes"/>
      <point x="589" y="642"/>
      <point x="574" y="646"/>
      <point x="552" y="656" type="curve" smooth="yes"/>
      <point x="493" y="680"/>
      <point x="445" y="691"/>
      <point x="397" y="691" type="curve" smooth="yes"/>
      <point x="198" y="691"/>
      <point x="49" y="537"/>
      <point x="49" y="332" type="curve" smooth="yes"/>
      <point x="49" y="144"/>
      <point x="174" y="2"/>
      <point x="356" y="-16" type="curve"/>
      <point x="359" y="-17" type="line"/>
      <point x="324" y="-96" type="line"/>
      <point x="335" y="-104" type="line"/>
      <point x="346" y="-101"/>
      <point x="354" y="-100"/>
      <point x="363" y="-100" type="curve" smooth="yes"/>
      <point x="392" y="-100"/>
      <point x="409" y="-114"/>
      <point x="409" y="-136" type="curve" smooth="yes"/>
      <point x="409" y="-162"/>
      <point x="388" y="-177"/>
      <point x="351" y="-177" type="curve" smooth="yes"/>
      <point x="335" y="-177"/>
      <point x="323" y="-174"/>
      <point x="298" y="-165" type="curve" smooth="yes"/>
      <point x="292" y="-163" type="line"/>
      <point x="276" y="-200" type="line"/>
      <point x="312" y="-213"/>
      <point x="339" y="-218"/>
      <point x="372" y="-218" type="curve" smooth="yes"/>
      <point x="452" y="-218"/>
      <point x="502" y="-184"/>
      <point x="502" y="-129" type="curve" smooth="yes"/>
      <point x="502" y="-85"/>
      <point x="469" y="-59"/>
      <point x="414" y="-59" type="curve" smooth="yes"/>
      <point x="401" y="-59"/>
      <point x="393" y="-60"/>
      <point x="381" y="-64" type="curve"/>
    </contour>
  </outline>
</glyph>
<glyph name="Ecircumflex" format="1">
  <advance width="667"/>
  <unicode hex="00CA"/>
  <outline>
    <contour>
      <point x="593" y="676" type="line"/>
      <point x="16" y="676" type="line"/>
      <point x="16" y="651" type="line"/>
      <point x="85" y="647"/>
      <point x="104" y="631"/>
      <point x="104" y="580" type="curve" smooth="yes"/>
      <point x="104" y="96" type="line" smooth="yes"/>
      <point x="104" y="44"/>
      <point x="90" y="33"/>
      <point x="16" y="25" type="curve"/>
      <point x="16" y="0" type="line"/>
      <point x="601" y="0" type="line"/>
      <point x="641" y="208" type="line"/>
      <point x="613" y="208" type="line"/>
      <point x="582" y="141"/>
      <point x="562" y="113"/>
      <point x="526" y="84" type="curve" smooth="yes"/>
      <point x="480" y="47"/>
      <point x="425" y="31"/>
      <point x="349" y="31" type="curve" smooth="yes"/>
      <point x="285" y="31"/>
      <point x="266" y="44"/>
      <point x="266" y="87" type="curve" smooth="yes"/>
      <point x="266" y="329" type="line"/>
      <point x="375" y="329"/>
      <point x="416" y="290"/>
      <point x="428" y="174" type="curve"/>
      <point x="454" y="174" type="line"/>
      <point x="454" y="512" type="line"/>
      <point x="428" y="512" type="line"/>
      <point x="413" y="398"/>
      <point x="374" y="362"/>
      <point x="266" y="363" type="curve"/>
      <point x="266" y="595" type="line" smooth="yes"/>
      <point x="266" y="633"/>
      <point x="279" y="642"/>
      <point x="331" y="642" type="curve" smooth="yes"/>
      <point x="494" y="642"/>
      <point x="543" y="608"/>
      <point x="568" y="475" type="curve"/>
      <point x="593" y="475" type="line"/>
    </contour>
    <contour>
      <point x="439" y="738" type="line"/>
      <point x="496" y="738" type="line"/>
      <point x="373" y="914" type="line"/>
      <point x="281" y="914" type="line"/>
      <point x="159" y="738" type="line"/>
      <point x="215" y="738" type="line"/>
      <point x="327" y="836" type="line"/>
    </contour>
  </outline>
</glyph>
<glyph name="Edieresis" format="1">
  <advance width="667"/>
  <unicode hex="00CB"/>
  <outline>
    <contour>
      <point x="593" y="676" type="line"/>
      <point x="16" y="676" type="line"/>
      <point x="16" y="651" type="line"/>
      <point x="85" y="647"/>
      <point x="104" y="631"/>
      <point x="104" y="580" type="curve" smooth="yes"/>
      <point x="104" y="96" type="line" smooth="yes"/>
      <point x="104" y="44"/>
      <point x="90" y="33"/>
      <point x="16" y="25" type="curve"/>
      <point x="16" y="0" type="line"/>
      <point x="601" y="0" type="line"/>
      <point x="641" y="208" type="line"/>
      <point x="613" y="208" type="line"/>
      <point x="582" y="141"/>
      <point x="562" y="113"/>
      <point x="526" y="84" type="curve" smooth="yes"/>
      <point x="480" y="47"/>
      <point x="425" y="31"/>
      <point x="349" y="31" type="curve" smooth="yes"/>
      <point x="285" y="31"/>
      <point x="266" y="44"/>
      <point x="266" y="87" type="curve" smooth="yes"/>
      <point x="266" y="329" type="line"/>
      <point x="375" y="329"/>
      <point x="416" y="290"/>
      <point x="428" y="174" type="curve"/>
      <point x="454" y="174" type="line"/>
      <point x="454" y="512" type="line"/>
      <point x="428" y="512" type="line"/>
      <point x="413" y="398"/>
      <point x="374" y="362"/>
      <point x="266" y="363" type="curve"/>
      <point x="266" y="595" type="line" smooth="yes"/>
      <point x="266" y="633"/>
      <point x="279" y="642"/>
      <point x="331" y="642" type="curve" smooth="yes"/>
      <point x="494" y="642"/>
      <point x="543" y="608"/>
      <point x="568" y="475" type="curve"/>
      <point x="593" y="475" type="line"/>
    </contour>
    <contour>
      <point x="222" y="876" type="curve" smooth="yes"/>
      <point x="188" y="876"/>
      <point x="158" y="846"/>
      <point x="158" y="812" type="curve" smooth="yes"/>
      <point x="158" y="777"/>
      <point x="187" y="747"/>
      <point x="222" y="747" type="curve" smooth="yes"/>
      <point x="258" y="747"/>
      <point x="287" y="775"/>
      <point x="287" y="810" type="curve" smooth="yes"/>
      <point x="287" y="846"/>
      <point x="257" y="876"/>
    </contour>
    <contour>
      <point x="431" y="876" type="curve" smooth="yes"/>
      <point x="398" y="876"/>
      <point x="368" y="846"/>
      <point x="368" y="813" type="curve" smooth="yes"/>
      <point x="368" y="776"/>
      <point x="396" y="747"/>
      <point x="431" y="747" type="curve" smooth="yes"/>
      <point x="468" y="747"/>
      <point x="497" y="775"/>
      <point x="497" y="810" type="curve" smooth="yes"/>
      <point x="497" y="846"/>
      <point x="467" y="876"/>
    </contour>
  </outline>
</glyph>
<glyph name="Igrave" format="1">
  <advance width="389"/>
  <unicode hex="00CC"/>
  <outline>
    <contour>
      <point x="113" y="96" type="line" smooth="yes"/>
      <point x="113" y="46"/>
      <point x="95" y="32"/>
      <point x="20" y="25" type="curve"/>
      <point x="20" y="0" type="line"/>
      <point x="370" y="0" type="line"/>
      <point x="370" y="25" type="line"/>
      <point x="294" y="30"/>
      <point x="275" y="44"/>
      <point x="275" y="96" type="curve" smooth="yes"/>
      <point x="275" y="580" type="line" smooth="yes"/>
      <point x="275" y="632"/>
      <point x="296" y="648"/>
      <point x="370" y="651" type="curve"/>
      <point x="370" y="676" type="line"/>
      <point x="20" y="676" type="line"/>
      <point x="20" y="651" type="line"/>
      <point x="92" y="646"/>
      <point x="113" y="631"/>
      <point x="113" y="580" type="curve" smooth="yes"/>
    </contour>
    <contour>
      <point x="267" y="738" type="line"/>
      <point x="130" y="895" type="line" smooth="yes"/>
      <point x="114" y="913"/>
      <point x="95" y="923"/>
      <point x="76" y="923" type="curve" smooth="yes"/>
      <point x="50" y="923"/>
      <point x="29" y="903"/>
      <point x="29" y="878" type="curve" smooth="yes"/>
      <point x="29" y="858"/>
      <point x="40" y="844"/>
      <point x="69" y="826" type="curve" smooth="yes"/>
      <point x="211" y="738" type="line"/>
    </contour>
  </outline>
</glyph>
<glyph name="Icircumflex" format="1">
  <advance width="389"/>
  <unicode hex="00CE"/>
  <outline>
    <contour>
      <point x="113" y="96" type="line" smooth="yes"/>
      <point x="113" y="46"/>
      <point x="95" y="32"/>
      <point x="20" y="25" type="curve"/>
      <point x="20" y="0" type="line"/>
      <point x="370" y="0" type="line"/>
      <point x="370" y="25" type="line"/>
      <point x="294" y="30"/>
      <point x="275" y="44"/>
      <point x="275" y="96" type="curve" smooth="yes"/>
      <point x="275" y="580" type="line" smooth="yes"/>
      <point x="275" y="632"/>
      <point x="296" y="648"/>
      <point x="370" y="651" type="curve"/>
      <point x="370" y="676" type="line"/>
      <point x="20" y="676" type="line"/>
      <point x="20" y="651" type="line"/>
      <point x="92" y="646"/>
      <point x="113" y="631"/>
      <point x="113" y="580" type="curve" smooth="yes"/>
    </contour>
    <contour>
      <point x="306" y="738" type="line"/>
      <point x="363" y="738" type="line"/>
      <point x="240" y="914" type="line"/>
      <point x="148" y="914" type="line"/>
      <point x="26" y="738" type="line"/>
      <point x="82" y="738" type="line"/>
      <point x="194" y="836" type="line"/>
    </contour>
  </outline>
</glyph>
<glyph name="Idieresis" format="1">
  <advance width="389"/>
  <unicode hex="00CF"/>
  <outline>
    <contour>
      <point x="113" y="96" type="line" smooth="yes"/>
      <point x="113" y="46"/>
      <point x="95" y="32"/>
      <point x="20" y="25" type="curve"/>
      <point x="20" y="0" type="line"/>
      <point x="370" y="0" type="line"/>
      <point x="370" y="25" type="line"/>
      <point x="294" y="30"/>
      <point x="275" y="44"/>
      <point x="275" y="96" type="curve" smooth="yes"/>
      <point x="275" y="580" type="line" smooth="yes"/>
      <point x="275" y="632"/>
      <point x="296" y="648"/>
      <point x="370" y="651" type="curve"/>
      <point x="370" y="676" type="line"/>
      <point x="20" y="676" type="line"/>
      <point x="20" y="651" type="line"/>
      <point x="92" y="646"/>
      <point x="113" y="631"/>
      <point x="113" y="580" type="curve" smooth="yes"/>
    </contour>
    <contour>
      <point x="90" y="876" type="curve" smooth="yes"/>
      <point x="56" y="876"/>
      <point x="26" y="846"/>
      <point x="26" y="812" type="curve" smooth="yes"/>
      <point x="26" y="776"/>
      <point x="55" y="747"/>
      <point x="90" y="747" type="curve" smooth="yes"/>
      <point x="126" y="747"/>
      <point x="155" y="775"/>
      <point x="155" y="810" type="curve" smooth="yes"/>
      <point x="155" y="846"/>
      <point x="125" y="876"/>
    </contour>
    <contour>
      <point x="299" y="876" type="curve" smooth="yes"/>
      <point x="266" y="876"/>
      <point x="236" y="846"/>
      <point x="236" y="813" type="curve" smooth="yes"/>
      <point x="236" y="776"/>
      <point x="264" y="747"/>
      <point x="299" y="747" type="curve" smooth="yes"/>
      <point x="336" y="747"/>
      <point x="365" y="775"/>
      <point x="365" y="810" type="curve" smooth="yes"/>
      <point x="365" y="846"/>
      <point x="335" y="876"/>
    </contour>
  </outline>
</glyph>
<glyph name="Ntilde" format="1">
  <advance width="722"/>
  <unicode hex="00D1"/>
  <outline>
    <contour>
      <point x="230" y="676" type="line"/>
      <point x="19" y="676" type="line"/>
      <point x="19" y="651" type="line"/>
      <point x="39" y="651"/>
      <point x="56" y="636"/>
      <point x="104" y="579" type="curve"/>
      <point x="104" y="105" type="line" smooth="yes"/>
      <point x="104" y="48"/>
      <point x="89" y="34"/>
      <point x="16" y="25" type="curve"/>
      <point x="16" y="0" type="line"/>
      <point x="243" y="0" type="line"/>
      <point x="243" y="25" type="line"/>
      <point x="166" y="34"/>
      <point x="148" y="53"/>
      <point x="148" y="124" type="curve" smooth="yes"/>
      <point x="148" y="526" type="line"/>
      <point x="595" y="-18" type="line"/>
      <point x="623" y="-18" type="line"/>
      <point x="623" y="571" type="line" smooth="yes"/>
      <point x="623" y="628"/>
      <point x="636" y="641"/>
      <point x="701" y="651" type="curve"/>
      <point x="701" y="676" type="line"/>
      <point x="486" y="676" type="line"/>
      <point x="486" y="651" type="line"/>
      <point x="560" y="644"/>
      <point x="579" y="623"/>
      <point x="579" y="552" type="curve" smooth="yes"/>
      <point x="579" y="247" type="line"/>
    </contour>
    <contour>
      <point x="214" y="759" type="line"/>
      <point x="218" y="787"/>
      <point x="237" y="806"/>
      <point x="263" y="806" type="curve" smooth="yes"/>
      <point x="276" y="806"/>
      <point x="284" y="803"/>
      <point x="327" y="784" type="curve" smooth="yes"/>
      <point x="356" y="771" type="line" smooth="yes"/>
      <point x="375" y="763"/>
      <point x="400" y="757"/>
      <point x="420" y="757" type="curve" smooth="yes"/>
      <point x="477" y="757"/>
      <point x="514" y="797"/>
      <point x="537" y="884" type="curve"/>
      <point x="494" y="884" type="line"/>
      <point x="481" y="848"/>
      <point x="467" y="835"/>
      <point x="440" y="835" type="curve" smooth="yes"/>
      <point x="429" y="835"/>
      <point x="425" y="836"/>
      <point x="401" y="847" type="curve" smooth="yes"/>
      <point x="361" y="865" type="line" smooth="yes"/>
      <point x="333" y="878"/>
      <point x="309" y="884"/>
      <point x="288" y="884" type="curve" smooth="yes"/>
      <point x="226" y="884"/>
      <point x="190" y="845"/>
      <point x="172" y="759" type="curve"/>
    </contour>
  </outline>
</glyph>
<glyph name="Ocircumflex" format="1">
  <advance width="778"/>
  <unicode hex="00D4"/>
  <outline>
    <contour>
      <point x="393" y="691" type="curve" smooth="yes"/>
      <point x="184" y="691"/>
      <point x="35" y="543"/>
      <point x="35" y="335" type="curve" smooth="yes"/>
      <point x="35" y="128"/>
      <point x="182" y="-19"/>
      <point x="389" y="-19" type="curve" smooth="yes"/>
      <point x="596" y="-19"/>
      <point x="743" y="129"/>
      <point x="743" y="336" type="curve" smooth="yes"/>
      <point x="743" y="540"/>
      <point x="594" y="691"/>
    </contour>
    <contour>
      <point x="392" y="658" type="curve" smooth="yes"/>
      <point x="502" y="658"/>
      <point x="566" y="537"/>
      <point x="566" y="329" type="curve" smooth="yes"/>
      <point x="566" y="124"/>
      <point x="504" y="14"/>
      <point x="389" y="14" type="curve" smooth="yes"/>
      <point x="274" y="14"/>
      <point x="212" y="124"/>
      <point x="212" y="326" type="curve" smooth="yes"/>
      <point x="212" y="542"/>
      <point x="275" y="658"/>
    </contour>
    <contour>
      <point x="494" y="738" type="line"/>
      <point x="551" y="738" type="line"/>
      <point x="428" y="914" type="line"/>
      <point x="336" y="914" type="line"/>
      <point x="214" y="738" type="line"/>
      <point x="270" y="738" type="line"/>
      <point x="382" y="836" type="line"/>
    </contour>
  </outline>
</glyph>
<glyph name="Otilde" format="1">
  <advance width="778"/>
  <unicode hex="00D5"/>
  <outline>
    <contour>
      <point x="393" y="691" type="curve" smooth="yes"/>
      <point x="184" y="691"/>
      <point x="35" y="543"/>
      <point x="35" y="335" type="curve" smooth="yes"/>
      <point x="35" y="128"/>
      <point x="182" y="-19"/>
      <point x="389" y="-19" type="curve" smooth="yes"/>
      <point x="596" y="-19"/>
      <point x="743" y="129"/>
      <point x="743" y="336" type="curve" smooth="yes"/>
      <point x="743" y="540"/>
      <point x="594" y="691"/>
    </contour>
    <contour>
      <point x="392" y="658" type="curve" smooth="yes"/>
      <point x="502" y="658"/>
      <point x="566" y="537"/>
      <point x="566" y="329" type="curve" smooth="yes"/>
      <point x="566" y="124"/>
      <point x="504" y="14"/>
      <point x="389" y="14" type="curve" smooth="yes"/>
      <point x="274" y="14"/>
      <point x="212" y="124"/>
      <point x="212" y="326" type="curve" smooth="yes"/>
      <point x="212" y="542"/>
      <point x="275" y="658"/>
    </contour>
    <contour>
      <point x="242" y="759" type="line"/>
      <point x="246" y="787"/>
      <point x="265" y="806"/>
      <point x="291" y="806" type="curve" smooth="yes"/>
      <point x="304" y="806"/>
      <point x="312" y="803"/>
      <point x="355" y="784" type="curve" smooth="yes"/>
      <point x="384" y="771" type="line" smooth="yes"/>
      <point x="403" y="763"/>
      <point x="428" y="757"/>
      <point x="448" y="757" type="curve" smooth="yes"/>
      <point x="505" y="757"/>
      <point x="542" y="797"/>
      <point x="565" y="884" type="curve"/>
      <point x="522" y="884" type="line"/>
      <point x="509" y="848"/>
      <point x="495" y="835"/>
      <point x="468" y="835" type="curve" smooth="yes"/>
      <point x="457" y="835"/>
      <point x="453" y="836"/>
      <point x="429" y="847" type="curve" smooth="yes"/>
      <point x="389" y="865" type="line" smooth="yes"/>
      <point x="361" y="878"/>
      <point x="337" y="884"/>
      <point x="316" y="884" type="curve" smooth="yes"/>
      <point x="254" y="884"/>
      <point x="218" y="845"/>
      <point x="200" y="759" type="curve"/>
    </contour>
  </outline>
</glyph>
<glyph name="Odieresis" format="1">
  <advance width="778"/>
  <unicode hex="00D6"/>
  <outline>
    <contour>
      <point x="393" y="691" type="curve" smooth="yes"/>
      <point x="184" y="691"/>
      <point x="35" y="543"/>
      <point x="35" y="335" type="curve" smooth="yes"/>
      <point x="35" y="128"/>
      <point x="182" y="-19"/>
      <point x="389" y="-19" type="curve" smooth="yes"/>
      <point x="596" y="-19"/>
      <point x="743" y="129"/>
      <point x="743" y="336" type="curve" smooth="yes"/>
      <point x="743" y="540"/>
      <point x="594" y="691"/>
    </contour>
    <contour>
      <point x="392" y="658" type="curve" smooth="yes"/>
      <point x="502" y="658"/>
      <point x="566" y="537"/>
      <point x="566" y="329" type="curve" smooth="yes"/>
      <point x="566" y="124"/>
      <point x="504" y="14"/>
      <point x="389" y="14" type="curve" smooth="yes"/>
      <point x="274" y="14"/>
      <point x="212" y="124"/>
      <point x="212" y="326" type="curve" smooth="yes"/>
      <point x="212" y="542"/>
      <point x="275" y="658"/>
    </contour>
    <contour>
      <point x="278" y="876" type="curve" smooth="yes"/>
      <point x="244" y="876"/>
      <point x="214" y="846"/>
      <point x="214" y="812" type="curve" smooth="yes"/>
      <point x="214" y="777"/>
      <point x="243" y="747"/>
      <point x="278" y="747" type="curve" smooth="yes"/>
      <point x="314" y="747"/>
      <point x="343" y="775"/>
      <point x="343" y="810" type="curve" smooth="yes"/>
      <point x="343" y="846"/>
      <point x="313" y="876"/>
    </contour>
    <contour>
      <point x="487" y="876" type="curve" smooth="yes"/>
      <point x="454" y="876"/>
      <point x="424" y="846"/>
      <point x="424" y="813" type="curve" smooth="yes"/>
      <point x="424" y="776"/>
      <point x="452" y="747"/>
      <point x="487" y="747" type="curve" smooth="yes"/>
      <point x="524" y="747"/>
      <point x="553" y="775"/>
      <point x="553" y="810" type="curve" smooth="yes"/>
      <point x="553" y="846"/>
      <point x="523" y="876"/>
    </contour>
  </outline>
</glyph>
<glyph name="Udieresis" format="1">
  <advance width="722"/>
  <unicode hex="00DC"/>
  <outline>
    <contour>
      <point x="623" y="566" type="line" smooth="yes"/>
      <point x="623" y="625"/>
      <point x="637" y="641"/>
      <point x="701" y="651" type="curve"/>
      <point x="701" y="676" type="line"/>
      <point x="481" y="676" type="line"/>
      <point x="481" y="651" type="line"/>
      <point x="559" y="645"/>
      <point x="579" y="625"/>
      <point x="579" y="552" type="curve" smooth="yes"/>
      <point x="579" y="247" type="line" smooth="yes"/>
      <point x="579" y="99"/>
      <point x="523" y="30"/>
      <point x="404" y="30" type="curve" smooth="yes"/>
      <point x="302" y="30"/>
      <point x="257" y="89"/>
      <point x="257" y="225" type="curve" smooth="yes"/>
      <point x="257" y="559" type="line" smooth="yes"/>
      <point x="257" y="599"/>
      <point x="263" y="621"/>
      <point x="278" y="635" type="curve"/>
      <point x="290" y="645"/>
      <point x="306" y="649"/>
      <point x="354" y="651" type="curve"/>
      <point x="354" y="676" type="line"/>
      <point x="16" y="676" type="line"/>
      <point x="16" y="651" type="line"/>
      <point x="86" y="644"/>
      <point x="98" y="631"/>
      <point x="98" y="559" type="curve" smooth="yes"/>
      <point x="98" y="225" type="line" smooth="yes"/>
      <point x="98" y="127"/>
      <point x="119" y="78"/>
      <point x="180" y="34" type="curve" smooth="yes"/>
      <point x="228" y="-1"/>
      <point x="292" y="-19"/>
      <point x="365" y="-19" type="curve" smooth="yes"/>
      <point x="439" y="-19"/>
      <point x="509" y="3"/>
      <point x="552" y="40" type="curve" smooth="yes"/>
      <point x="597" y="78"/>
      <point x="623" y="154"/>
      <point x="623" y="247" type="curve" smooth="yes"/>
    </contour>
    <contour>
      <point x="278" y="876" type="curve" smooth="yes"/>
      <point x="244" y="876"/>
      <point x="214" y="846"/>
      <point x="214" y="812" type="curve" smooth="yes"/>
      <point x="214" y="777"/>
      <point x="243" y="747"/>
      <point x="278" y="747" type="curve" smooth="yes"/>
      <point x="314" y="747"/>
      <point x="343" y="775"/>
      <point x="343" y="810" type="curve" smooth="yes"/>
      <point x="343" y="846"/>
      <point x="313" y="876"/>
    </contour>
    <contour>
      <point x="487" y="876" type="curve" smooth="yes"/>
      <point x="454" y="876"/>
      <point x="424" y="846"/>
      <point x="424" y="813" type="curve" smooth="yes"/>
      <point x="424" y="776"/>
      <point x="452" y="747"/>
      <point x="487" y="747" type="curve" smooth="yes"/>
      <point x="524" y="747"/>
      <point x="553" y="775"/>
      <point x="553" y="810" type="curve" smooth="yes"/>
      <point x="553" y="846"/>
      <point x="523" y="876"/>
    </contour>
  </outline>
</glyph>
<glyph name="Thorn" format="1">
  <advance width="611"/>
  <unicode hex="00DE"/>
  <outline>
    <contour>
      <point x="262" y="546" type="line"/>
      <point x="262" y="558" type="line" smooth="yes"/>
      <point x="262" y="631"/>
      <point x="270" y="640"/>
      <point x="350" y="651" type="curve"/>
      <point x="350" y="676" type="line"/>
      <point x="16" y="676" type="line"/>
      <point x="16" y="651" type="line"/>
      <point x="86" y="645"/>
      <point x="100" y="629"/>
      <point x="100" y="559" type="curve" smooth="yes"/>
      <point x="100" y="117" type="line" smooth="yes"/>
      <point x="100" y="55"/>
      <point x="87" y="35"/>
      <point x="40" y="29" type="curve"/>
      <point x="37" y="29"/>
      <point x="27" y="27"/>
      <point x="16" y="25" type="curve"/>
      <point x="16" y="0" type="line"/>
      <point x="350" y="0" type="line"/>
      <point x="350" y="25" type="line"/>
      <point x="271" y="35"/>
      <point x="262" y="44"/>
      <point x="262" y="117" type="curve" smooth="yes"/>
      <point x="262" y="173" type="line"/>
      <point x="421" y="174"/>
      <point x="457" y="180"/>
      <point x="512" y="212" type="curve" smooth="yes"/>
      <point x="569" y="247"/>
      <point x="600" y="299"/>
      <point x="600" y="363" type="curve" smooth="yes"/>
      <point x="600" y="483"/>
      <point x="507" y="546"/>
      <point x="328" y="546" type="curve" smooth="yes"/>
    </contour>
    <contour>
      <point x="262" y="476" type="line" smooth="yes"/>
      <point x="262" y="499"/>
      <point x="279" y="511"/>
      <point x="312" y="511" type="curve" smooth="yes"/>
      <point x="395" y="511"/>
      <point x="428" y="467"/>
      <point x="428" y="359" type="curve" smooth="yes"/>
      <point x="428" y="296"/>
      <point x="416" y="258"/>
      <point x="390" y="235" type="curve" smooth="yes"/>
      <point x="366" y="215"/>
      <point x="333" y="208"/>
      <point x="262" y="208" type="curve"/>
    </contour>
  </outline>
</glyph>
<glyph name="aacute" format="1">
  <advance width="500"/>
  <unicode hex="00E1"/>
  <outline>
    <contour>
      <point x="473" y="64" type="line"/>
      <point x="463" y="54" type="line" smooth="yes"/>
      <point x="460" y="51"/>
      <point x="457" y="50"/>
      <point x="452" y="50" type="curve" smooth="yes"/>
      <point x="438" y="50"/>
      <point x="431" y="59"/>
      <point x="431" y="75" type="curve" smooth="yes"/>
      <point x="431" y="336" type="line" smooth="yes"/>
      <point x="431" y="420"/>
      <point x="355" y="473"/>
      <point x="233" y="473" type="curve" smooth="yes"/>
      <point x="120" y="473"/>
      <point x="44" y="422"/>
      <point x="44" y="347" type="curve" smooth="yes"/>
      <point x="44" y="306"/>
      <point x="68" y="281"/>
      <point x="109" y="281" type="curve" smooth="yes"/>
      <point x="149" y="281"/>
      <point x="177" y="305"/>
      <point x="177" y="339" type="curve" smooth="yes"/>
      <point x="177" y="353"/>
      <point x="171" y="366"/>
      <point x="159" y="382" type="curve"/>
      <point x="150" y="392"/>
      <point x="147" y="398"/>
      <point x="147" y="404" type="curve" smooth="yes"/>
      <point x="147" y="425"/>
      <point x="175" y="441"/>
      <point x="210" y="441" type="curve" smooth="yes"/>
      <point x="268" y="441"/>
      <point x="294" y="414"/>
      <point x="294" y="353" type="curve" smooth="yes"/>
      <point x="294" y="280" type="line"/>
      <point x="175" y="244"/>
      <point x="126" y="224"/>
      <point x="89" y="199" type="curve" smooth="yes"/>
      <point x="46" y="169"/>
      <point x="25" y="135"/>
      <point x="25" y="92" type="curve" smooth="yes"/>
      <point x="25" y="31"/>
      <point x="72" y="-14"/>
      <point x="136" y="-14" type="curve" smooth="yes"/>
      <point x="193" y="-14"/>
      <point x="239" y="6"/>
      <point x="294" y="56" type="curve"/>
      <point x="305" y="5"/>
      <point x="327" y="-14"/>
      <point x="376" y="-14" type="curve" smooth="yes"/>
      <point x="419" y="-14"/>
      <point x="450" y="2"/>
      <point x="488" y="43" type="curve"/>
    </contour>
    <contour>
      <point x="293" y="100" type="line"/>
      <point x="266" y="69"/>
      <point x="246" y="57"/>
      <point x="222" y="57" type="curve" smooth="yes"/>
      <point x="192" y="57"/>
      <point x="171" y="84"/>
      <point x="171" y="124" type="curve" smooth="yes"/>
      <point x="171" y="182"/>
      <point x="213" y="224"/>
      <point x="293" y="245" type="curve"/>
    </contour>
    <contour>
      <point x="154" y="528" type="line"/>
      <point x="210" y="528" type="line"/>
      <point x="352" y="616" type="line" smooth="yes"/>
      <point x="384" y="636"/>
      <point x="392" y="646"/>
      <point x="392" y="669" type="curve" smooth="yes"/>
      <point x="392" y="695"/>
      <point x="373" y="713"/>
      <point x="344" y="713" type="curve" smooth="yes"/>
      <point x="325" y="713"/>
      <point x="308" y="704"/>
      <point x="291" y="685" type="curve" smooth="yes"/>
    </contour>
  </outline>
</glyph>
<glyph name="atilde" format="1">
  <advance width="500"/>
  <unicode hex="00E3"/>
  <outline>
    <contour>
      <point x="473" y="64" type="line"/>
      <point x="463" y="54" type="line" smooth="yes"/>
      <point x="460" y="51"/>
      <point x="457" y="50"/>
      <point x="452" y="50" type="curve" smooth="yes"/>
      <point x="438" y="50"/>
      <point x="431" y="59"/>
      <point x="431" y="75" type="curve" smooth="yes"/>
      <point x="431" y="336" type="line" smooth="yes"/>
      <point x="431" y="420"/>
      <point x="355" y="473"/>
      <point x="233" y="473" type="curve" smooth="yes"/>
      <point x="120" y="473"/>
      <point x="44" y="422"/>
      <point x="44" y="347" type="curve" smooth="yes"/>
      <point x="44" y="306"/>
      <point x="68" y="281"/>
      <point x="109" y="281" type="curve" smooth="yes"/>
      <point x="149" y="281"/>
      <point x="177" y="305"/>
      <point x="177" y="339" type="curve" smooth="yes"/>
      <point x="177" y="353"/>
      <point x="171" y="366"/>
      <point x="159" y="382" type="curve"/>
      <point x="150" y="392"/>
      <point x="147" y="398"/>
      <point x="147" y="404" type="curve" smooth="yes"/>
      <point x="147" y="425"/>
      <point x="175" y="441"/>
      <point x="210" y="441" type="curve" smooth="yes"/>
      <point x="268" y="441"/>
      <point x="294" y="414"/>
      <point x="294" y="353" type="curve" smooth="yes"/>
      <point x="294" y="280" type="line"/>
      <point x="175" y="244"/>
      <point x="126" y="224"/>
      <point x="89" y="199" type="curve" smooth="yes"/>
      <point x="46" y="169"/>
      <point x="25" y="135"/>
      <point x="25" y="92" type="curve" smooth="yes"/>
      <point x="25" y="31"/>
      <point x="72" y="-14"/>
      <point x="136" y="-14" type="curve" smooth="yes"/>
      <point x="193" y="-14"/>
      <point x="239" y="6"/>
      <point x="294" y="56" type="curve"/>
      <point x="305" y="5"/>
      <point x="327" y="-14"/>
      <point x="376" y="-14" type="curve" smooth="yes"/>
      <point x="419" y="-14"/>
      <point x="450" y="2"/>
      <point x="488" y="43" type="curve"/>
    </contour>
    <contour>
      <point x="293" y="100" type="line"/>
      <point x="266" y="69"/>
      <point x="246" y="57"/>
      <point x="222" y="57" type="curve" smooth="yes"/>
      <point x="192" y="57"/>
      <point x="171" y="84"/>
      <point x="171" y="124" type="curve" smooth="yes"/>
      <point x="171" y="182"/>
      <point x="213" y="224"/>
      <point x="293" y="245" type="curve"/>
    </contour>
    <contour>
      <point x="110" y="549" type="line"/>
      <point x="114" y="577"/>
      <point x="133" y="596"/>
      <point x="159" y="596" type="curve" smooth="yes"/>
      <point x="172" y="596"/>
      <point x="180" y="593"/>
      <point x="223" y="574" type="curve" smooth="yes"/>
      <point x="252" y="561" type="line" smooth="yes"/>
      <point x="271" y="553"/>
      <point x="296" y="547"/>
      <point x="316" y="547" type="curve" smooth="yes"/>
      <point x="373" y="547"/>
      <point x="410" y="587"/>
      <point x="433" y="674" type="curve"/>
      <point x="390" y="674" type="line"/>
      <point x="377" y="638"/>
      <point x="363" y="625"/>
      <point x="336" y="625" type="curve" smooth="yes"/>
      <point x="325" y="625"/>
      <point x="321" y="626"/>
      <point x="297" y="637" type="curve" smooth="yes"/>
      <point x="257" y="655" type="line" smooth="yes"/>
      <point x="229" y="668"/>
      <point x="205" y="674"/>
      <point x="184" y="674" type="curve" smooth="yes"/>
      <point x="122" y="674"/>
      <point x="86" y="635"/>
      <point x="68" y="549" type="curve"/>
    </contour>
  </outline>
</glyph>
<glyph name="adieresis" format="1">
  <advance width="500"/>
  <unicode hex="00E4"/>
  <outline>
    <contour>
      <point x="473" y="64" type="line"/>
      <point x="463" y="54" type="line" smooth="yes"/>
      <point x="460" y="51"/>
      <point x="457" y="50"/>
      <point x="452" y="50" type="curve" smooth="yes"/>
      <point x="438" y="50"/>
      <point x="431" y="59"/>
      <point x="431" y="75" type="curve" smooth="yes"/>
      <point x="431" y="336" type="line" smooth="yes"/>
      <point x="431" y="420"/>
      <point x="355" y="473"/>
      <point x="233" y="473" type="curve" smooth="yes"/>
      <point x="120" y="473"/>
      <point x="44" y="422"/>
      <point x="44" y="347" type="curve" smooth="yes"/>
      <point x="44" y="306"/>
      <point x="68" y="281"/>
      <point x="109" y="281" type="curve" smooth="yes"/>
      <point x="149" y="281"/>
      <point x="177" y="305"/>
      <point x="177" y="339" type="curve" smooth="yes"/>
      <point x="177" y="353"/>
      <point x="171" y="366"/>
      <point x="159" y="382" type="curve"/>
      <point x="150" y="392"/>
      <point x="147" y="398"/>
      <point x="147" y="404" type="curve" smooth="yes"/>
      <point x="147" y="425"/>
      <point x="175" y="441"/>
      <point x="210" y="441" type="curve" smooth="yes"/>
      <point x="268" y="441"/>
      <point x="294" y="414"/>
      <point x="294" y="353" type="curve" smooth="yes"/>
      <point x="294" y="280" type="line"/>
      <point x="175" y="244"/>
      <point x="126" y="224"/>
      <point x="89" y="199" type="curve" smooth="yes"/>
      <point x="46" y="169"/>
      <point x="25" y="135"/>
      <point x="25" y="92" type="curve" smooth="yes"/>
      <point x="25" y="31"/>
      <point x="72" y="-14"/>
      <point x="136" y="-14" type="curve" smooth="yes"/>
      <point x="193" y="-14"/>
      <point x="239" y="6"/>
      <point x="294" y="56" type="curve"/>
      <point x="305" y="5"/>
      <point x="327" y="-14"/>
      <point x="376" y="-14" type="curve" smooth="yes"/>
      <point x="419" y="-14"/>
      <point x="450" y="2"/>
      <point x="488" y="43" type="curve"/>
    </contour>
    <contour>
      <point x="293" y="100" type="line"/>
      <point x="266" y="69"/>
      <point x="246" y="57"/>
      <point x="222" y="57" type="curve" smooth="yes"/>
      <point x="192" y="57"/>
      <point x="171" y="84"/>
      <point x="171" y="124" type="curve" smooth="yes"/>
      <point x="171" y="182"/>
      <point x="213" y="224"/>
      <point x="293" y="245" type="curve"/>
    </contour>
    <contour>
      <point x="140" y="666" type="curve" smooth="yes"/>
      <point x="106" y="666"/>
      <point x="76" y="636"/>
      <point x="76" y="602" type="curve" smooth="yes"/>
      <point x="76" y="567"/>
      <point x="105" y="537"/>
      <point x="140" y="537" type="curve" smooth="yes"/>
      <point x="176" y="537"/>
      <point x="205" y="565"/>
      <point x="205" y="600" type="curve" smooth="yes"/>
      <point x="205" y="636"/>
      <point x="175" y="666"/>
    </contour>
    <contour>
      <point x="349" y="666" type="curve" smooth="yes"/>
      <point x="316" y="666"/>
      <point x="286" y="636"/>
      <point x="286" y="603" type="curve" smooth="yes"/>
      <point x="286" y="566"/>
      <point x="314" y="537"/>
      <point x="349" y="537" type="curve" smooth="yes"/>
      <point x="386" y="537"/>
      <point x="415" y="565"/>
      <point x="415" y="600" type="curve" smooth="yes"/>
      <point x="415" y="636"/>
      <point x="385" y="666"/>
    </contour>
  </outline>
</glyph>
<glyph name="ccedilla" format="1">
  <advance width="444"/>
  <unicode hex="00E7"/>
  <outline>
    <contour>
      <point x="265" y="-13" type="line"/>
      <point x="334" y="-3"/>
      <point x="383" y="28"/>
      <point x="430" y="91" type="curve"/>
      <point x="412" y="109" type="line"/>
      <point x="375" y="67"/>
      <point x="349" y="53"/>
      <point x="308" y="53" type="curve" smooth="yes"/>
      <point x="221" y="53"/>
      <point x="166" y="140"/>
      <point x="166" y="276" type="curve" smooth="yes"/>
      <point x="166" y="379"/>
      <point x="198" y="442"/>
      <point x="250" y="442" type="curve" smooth="yes"/>
      <point x="266" y="442"/>
      <point x="281" y="434"/>
      <point x="287" y="423" type="curve" smooth="yes"/>
      <point x="292" y="414"/>
      <point x="292" y="414"/>
      <point x="292" y="372" type="curve" smooth="yes"/>
      <point x="293" y="323"/>
      <point x="311" y="300"/>
      <point x="348" y="300" type="curve" smooth="yes"/>
      <point x="390" y="300"/>
      <point x="416" y="324"/>
      <point x="416" y="363" type="curve" smooth="yes"/>
      <point x="416" y="425"/>
      <point x="349" y="473"/>
      <point x="261" y="473" type="curve" smooth="yes"/>
      <point x="125" y="473"/>
      <point x="25" y="367"/>
      <point x="25" y="222" type="curve" smooth="yes"/>
      <point x="25" y="91"/>
      <point x="103" y="-2"/>
      <point x="222" y="-13" type="curve"/>
      <point x="185" y="-96" type="line"/>
      <point x="196" y="-104" type="line"/>
      <point x="207" y="-101"/>
      <point x="215" y="-100"/>
      <point x="224" y="-100" type="curve" smooth="yes"/>
      <point x="253" y="-100"/>
      <point x="270" y="-114"/>
      <point x="270" y="-136" type="curve" smooth="yes"/>
      <point x="270" y="-162"/>
      <point x="249" y="-177"/>
      <point x="212" y="-177" type="curve" smooth="yes"/>
      <point x="196" y="-177"/>
      <point x="184" y="-174"/>
      <point x="159" y="-165" type="curve" smooth="yes"/>
      <point x="153" y="-163" type="line"/>
      <point x="137" y="-200" type="line"/>
      <point x="173" y="-213"/>
      <point x="200" y="-218"/>
      <point x="233" y="-218" type="curve" smooth="yes"/>
      <point x="313" y="-218"/>
      <point x="363" y="-184"/>
      <point x="363" y="-129" type="curve" smooth="yes"/>
      <point x="363" y="-85"/>
      <point x="330" y="-59"/>
      <point x="275" y="-59" type="curve" smooth="yes"/>
      <point x="262" y="-59"/>
      <point x="254" y="-60"/>
      <point x="242" y="-64" type="curve"/>
    </contour>
  </outline>
</glyph>
<glyph name="igrave" format="1">
  <advance width="278"/>
  <unicode hex="00EC"/>
  <outline>
    <contour>
      <point x="208" y="461" type="line"/>
      <point x="16" y="461" type="line"/>
      <point x="16" y="437" type="line"/>
      <point x="60" y="428"/>
      <point x="69" y="419"/>
      <point x="69" y="378" type="curve" smooth="yes"/>
      <point x="69" y="84" type="line" smooth="yes"/>
      <point x="69" y="43"/>
      <point x="62" y="35"/>
      <point x="16" y="24" type="curve"/>
      <point x="16" y="0" type="line"/>
      <point x="255" y="0" type="line"/>
      <point x="255" y="24" type="line"/>
      <point x="220" y="29"/>
      <point x="208" y="43"/>
      <point x="208" y="81" type="curve" smooth="yes"/>
    </contour>
    <contour>
      <point x="212" y="528" type="line"/>
      <point x="75" y="685" type="line" smooth="yes"/>
      <point x="59" y="703"/>
      <point x="40" y="713"/>
      <point x="21" y="713" type="curve" smooth="yes"/>
      <point x="-5" y="713"/>
      <point x="-26" y="693"/>
      <point x="-26" y="668" type="curve" smooth="yes"/>
      <point x="-26" y="648"/>
      <point x="-15" y="634"/>
      <point x="14" y="616" type="curve" smooth="yes"/>
      <point x="156" y="528" type="line"/>
    </contour>
  </outline>
</glyph>
<glyph name="iacute" format="1">
  <advance width="278"/>
  <unicode hex="00ED"/>
  <outline>
    <contour>
      <point x="208" y="461" type="line"/>
      <point x="16" y="461" type="line"/>
      <point x="16" y="437" type="line"/>
      <point x="60" y="428"/>
      <point x="69" y="419"/>
      <point x="69" y="378" type="curve" smooth="yes"/>
      <point x="69" y="84" type="line" smooth="yes"/>
      <point x="69" y="43"/>
      <point x="62" y="35"/>
      <point x="16" y="24" type="curve"/>
      <point x="16" y="0" type="line"/>
      <point x="255" y="0" type="line"/>
      <point x="255" y="24" type="line"/>
      <point x="220" y="29"/>
      <point x="208" y="43"/>
      <point x="208" y="81" type="curve" smooth="yes"/>
    </contour>
    <contour>
      <point x="52" y="528" type="line"/>
      <point x="108" y="528" type="line"/>
      <point x="250" y="616" type="line" smooth="yes"/>
      <point x="282" y="636"/>
      <point x="290" y="646"/>
      <point x="290" y="669" type="curve" smooth="yes"/>
      <point x="290" y="695"/>
      <point x="271" y="713"/>
      <point x="242" y="713" type="curve" smooth="yes"/>
      <point x="223" y="713"/>
      <point x="206" y="704"/>
      <point x="189" y="685" type="curve" smooth="yes"/>
    </contour>
  </outline>
</glyph>
<glyph name="icircumflex" format="1">
  <advance width="278"/>
  <unicode hex="00EE"/>
  <outline>
    <contour>
      <point x="208" y="461" type="line"/>
      <point x="16" y="461" type="line"/>
      <point x="16" y="437" type="line"/>
      <point x="60" y="428"/>
      <point x="69" y="419"/>
      <point x="69" y="378" type="curve" smooth="yes"/>
      <point x="69" y="84" type="line" smooth="yes"/>
      <point x="69" y="43"/>
      <point x="62" y="35"/>
      <point x="16" y="24" type="curve"/>
      <point x="16" y="0" type="line"/>
      <point x="255" y="0" type="line"/>
      <point x="255" y="24" type="line"/>
      <point x="220" y="29"/>
      <point x="208" y="43"/>
      <point x="208" y="81" type="curve" smooth="yes"/>
    </contour>
    <contour>
      <point x="244" y="528" type="line"/>
      <point x="301" y="528" type="line"/>
      <point x="178" y="704" type="line"/>
      <point x="86" y="704" type="line"/>
      <point x="-36" y="528" type="line"/>
      <point x="20" y="528" type="line"/>
      <point x="132" y="626" type="line"/>
    </contour>
  </outline>
</glyph>
<glyph name="idieresis" format="1">
  <advance width="278"/>
  <unicode hex="00EF"/>
  <outline>
    <contour>
      <point x="208" y="461" type="line"/>
      <point x="16" y="461" type="line"/>
      <point x="16" y="437" type="line"/>
      <point x="60" y="428"/>
      <point x="69" y="419"/>
      <point x="69" y="378" type="curve" smooth="yes"/>
      <point x="69" y="84" type="line" smooth="yes"/>
      <point x="69" y="43"/>
      <point x="62" y="35"/>
      <point x="16" y="24" type="curve"/>
      <point x="16" y="0" type="line"/>
      <point x="255" y="0" type="line"/>
      <point x="255" y="24" type="line"/>
      <point x="220" y="29"/>
      <point x="208" y="43"/>
      <point x="208" y="81" type="curve" smooth="yes"/>
    </contour>
    <contour>
      <point x="28" y="666" type="curve" smooth="yes"/>
      <point x="-6" y="666"/>
      <point x="-36" y="636"/>
      <point x="-36" y="602" type="curve" smooth="yes"/>
      <point x="-36" y="567"/>
      <point x="-7" y="537"/>
      <point x="28" y="537" type="curve" smooth="yes"/>
      <point x="64" y="537"/>
      <point x="93" y="565"/>
      <point x="93" y="600" type="curve" smooth="yes"/>
      <point x="93" y="636"/>
      <point x="63" y="666"/>
    </contour>
    <contour>
      <point x="237" y="666" type="curve" smooth="yes"/>
      <point x="204" y="666"/>
      <point x="174" y="636"/>
      <point x="174" y="603" type="curve" smooth="yes"/>
      <point x="174" y="566"/>
      <point x="202" y="537"/>
      <point x="237" y="537" type="curve" smooth="yes"/>
      <point x="274" y="537"/>
      <point x="303" y="565"/>
      <point x="303" y="600" type="curve" smooth="yes"/>
      <point x="303" y="636"/>
      <point x="273" y="666"/>
    </contour>
  </outline>
</glyph>
<glyph name="ntilde" format="1">
  <advance width="556"/>
  <unicode hex="00F1"/>
  <outline>
    <contour>
      <point x="212" y="461" type="line"/>
      <point x="21" y="461" type="line"/>
      <point x="21" y="437" type="line"/>
      <point x="65" y="430"/>
      <point x="74" y="420"/>
      <point x="74" y="378" type="curve" smooth="yes"/>
      <point x="74" y="84" type="line" smooth="yes"/>
      <point x="74" y="42"/>
      <point x="66" y="33"/>
      <point x="21" y="24" type="curve"/>
      <point x="21" y="0" type="line"/>
      <point x="262" y="0" type="line"/>
      <point x="262" y="24" type="line"/>
      <point x="225" y="29"/>
      <point x="213" y="44"/>
      <point x="213" y="81" type="curve" smooth="yes"/>
      <point x="213" y="348" type="line" smooth="yes"/>
      <point x="213" y="352"/>
      <point x="220" y="362"/>
      <point x="230" y="371" type="curve"/>
      <point x="252" y="394"/>
      <point x="276" y="406"/>
      <point x="299" y="406" type="curve" smooth="yes"/>
      <point x="334" y="406"/>
      <point x="351" y="379"/>
      <point x="351" y="323" type="curve" smooth="yes"/>
      <point x="351" y="81" type="line" smooth="yes"/>
      <point x="351" y="44"/>
      <point x="338" y="28"/>
      <point x="304" y="24" type="curve"/>
      <point x="304" y="0" type="line"/>
      <point x="539" y="0" type="line"/>
      <point x="539" y="24" type="line"/>
      <point x="500" y="27"/>
      <point x="490" y="39"/>
      <point x="490" y="81" type="curve" smooth="yes"/>
      <point x="490" y="332" type="line" smooth="yes"/>
      <point x="490" y="418"/>
      <point x="437" y="473"/>
      <point x="355" y="473" type="curve" smooth="yes"/>
      <point x="295" y="473"/>
      <point x="249" y="445"/>
      <point x="212" y="386" type="curve"/>
    </contour>
    <contour>
      <point x="138" y="549" type="line"/>
      <point x="142" y="577"/>
      <point x="161" y="596"/>
      <point x="187" y="596" type="curve" smooth="yes"/>
      <point x="200" y="596"/>
      <point x="208" y="593"/>
      <point x="251" y="574" type="curve" smooth="yes"/>
      <point x="280" y="561" type="line" smooth="yes"/>
      <point x="299" y="553"/>
      <point x="324" y="547"/>
      <point x="344" y="547" type="curve" smooth="yes"/>
      <point x="401" y="547"/>
      <point x="438" y="587"/>
      <point x="461" y="674" type="curve"/>
      <point x="418" y="674" type="line"/>
      <point x="405" y="638"/>
      <point x="391" y="625"/>
      <point x="364" y="625" type="curve" smooth="yes"/>
      <point x="353" y="625"/>
      <point x="349" y="626"/>
      <point x="325" y="637" type="curve" smooth="yes"/>
      <point x="285" y="655" type="line" smooth="yes"/>
      <point x="257" y="668"/>
      <point x="233" y="674"/>
      <point x="212" y="674" type="curve" smooth="yes"/>
      <point x="150" y="674"/>
      <point x="114" y="635"/>
      <point x="96" y="549" type="curve"/>
    </contour>
  </outline>
</glyph>
<glyph name="ograve" format="1">
  <advance width="500"/>
  <unicode hex="00F2"/>
  <outline>
    <contour>
      <point x="251" y="473" type="curve" smooth="yes"/>
      <point x="124" y="473"/>
      <point x="25" y="368"/>
      <point x="25" y="232" type="curve" smooth="yes"/>
      <point x="25" y="89"/>
      <point x="120" y="-14"/>
      <point x="251" y="-14" type="curve" smooth="yes"/>
      <point x="380" y="-14"/>
      <point x="476" y="90"/>
      <point x="476" y="229" type="curve" smooth="yes"/>
      <point x="476" y="369"/>
      <point x="380" y="473"/>
    </contour>
    <contour>
      <point x="252" y="442" type="curve" smooth="yes"/>
      <point x="310" y="442"/>
      <point x="329" y="387"/>
      <point x="329" y="223" type="curve" smooth="yes"/>
      <point x="329" y="69"/>
      <point x="309" y="17"/>
      <point x="251" y="17" type="curve" smooth="yes"/>
      <point x="192" y="17"/>
      <point x="172" y="68"/>
      <point x="172" y="214" type="curve" smooth="yes"/>
      <point x="172" y="390"/>
      <point x="190" y="442"/>
    </contour>
    <contour>
      <point x="329" y="528" type="line"/>
      <point x="192" y="685" type="line" smooth="yes"/>
      <point x="176" y="703"/>
      <point x="157" y="713"/>
      <point x="138" y="713" type="curve" smooth="yes"/>
      <point x="112" y="713"/>
      <point x="91" y="693"/>
      <point x="91" y="668" type="curve" smooth="yes"/>
      <point x="91" y="648"/>
      <point x="102" y="634"/>
      <point x="131" y="616" type="curve" smooth="yes"/>
      <point x="273" y="528" type="line"/>
    </contour>
  </outline>
</glyph>
<glyph name="oacute" format="1">
  <advance width="500"/>
  <unicode hex="00F3"/>
  <outline>
    <contour>
      <point x="251" y="473" type="curve" smooth="yes"/>
      <point x="124" y="473"/>
      <point x="25" y="368"/>
      <point x="25" y="232" type="curve" smooth="yes"/>
      <point x="25" y="89"/>
      <point x="120" y="-14"/>
      <point x="251" y="-14" type="curve" smooth="yes"/>
      <point x="380" y="-14"/>
      <point x="476" y="90"/>
      <point x="476" y="229" type="curve" smooth="yes"/>
      <point x="476" y="369"/>
      <point x="380" y="473"/>
    </contour>
    <contour>
      <point x="252" y="442" type="curve" smooth="yes"/>
      <point x="310" y="442"/>
      <point x="329" y="387"/>
      <point x="329" y="223" type="curve" smooth="yes"/>
      <point x="329" y="69"/>
      <point x="309" y="17"/>
      <point x="251" y="17" type="curve" smooth="yes"/>
      <point x="192" y="17"/>
      <point x="172" y="68"/>
      <point x="172" y="214" type="curve" smooth="yes"/>
      <point x="172" y="390"/>
      <point x="190" y="442"/>
    </contour>
    <contour>
      <point x="170" y="528" type="line"/>
      <point x="226" y="528" type="line"/>
      <point x="368" y="616" type="line" smooth="yes"/>
      <point x="400" y="636"/>
      <point x="408" y="646"/>
      <point x="408" y="669" type="curve" smooth="yes"/>
      <point x="408" y="695"/>
      <point x="389" y="713"/>
      <point x="360" y="713" type="curve" smooth="yes"/>
      <point x="341" y="713"/>
      <point x="324" y="704"/>
      <point x="307" y="685" type="curve" smooth="yes"/>
    </contour>
  </outline>
</glyph>
<glyph name="ocircumflex" format="1">
  <advance width="500"/>
  <unicode hex="00F4"/>
  <outline>
    <contour>
      <point x="251" y="473" type="curve" smooth="yes"/>
      <point x="124" y="473"/>
      <point x="25" y="368"/>
      <point x="25" y="232" type="curve" smooth="yes"/>
      <point x="25" y="89"/>
      <point x="120" y="-14"/>
      <point x="251" y="-14" type="curve" smooth="yes"/>
      <point x="380" y="-14"/>
      <point x="476" y="90"/>
      <point x="476" y="229" type="curve" smooth="yes"/>
      <point x="476" y="369"/>
      <point x="380" y="473"/>
    </contour>
    <contour>
      <point x="252" y="442" type="curve" smooth="yes"/>
      <point x="310" y="442"/>
      <point x="329" y="387"/>
      <point x="329" y="223" type="curve" smooth="yes"/>
      <point x="329" y="69"/>
      <point x="309" y="17"/>
      <point x="251" y="17" type="curve" smooth="yes"/>
      <point x="192" y="17"/>
      <point x="172" y="68"/>
      <point x="172" y="214" type="curve" smooth="yes"/>
      <point x="172" y="390"/>
      <point x="190" y="442"/>
    </contour>
    <contour>
      <point x="362" y="528" type="line"/>
      <point x="419" y="528" type="line"/>
      <point x="296" y="704" type="line"/>
      <point x="204" y="704" type="line"/>
      <point x="82" y="528" type="line"/>
      <point x="138" y="528" type="line"/>
      <point x="250" y="626" type="line"/>
    </contour>
  </outline>
</glyph>
<glyph name="odieresis" format="1">
  <advance width="500"/>
  <unicode hex="00F6"/>
  <outline>
    <contour>
      <point x="251" y="473" type="curve" smooth="yes"/>
      <point x="124" y="473"/>
      <point x="25" y="368"/>
      <point x="25" y="232" type="curve" smooth="yes"/>
      <point x="25" y="89"/>
      <point x="120" y="-14"/>
      <point x="251" y="-14" type="curve" smooth="yes"/>
      <point x="380" y="-14"/>
      <point x="476" y="90"/>
      <point x="476" y="229" type="curve" smooth="yes"/>
      <point x="476" y="369"/>
      <point x="380" y="473"/>
    </contour>
    <contour>
      <point x="252" y="442" type="curve" smooth="yes"/>
      <point x="310" y="442"/>
      <point x="329" y="387"/>
      <point x="329" y="223" type="curve" smooth="yes"/>
      <point x="329" y="69"/>
      <point x="309" y="17"/>
      <point x="251" y="17" type="curve" smooth="yes"/>
      <point x="192" y="17"/>
      <point x="172" y="68"/>
      <point x="172" y="214" type="curve" smooth="yes"/>
      <point x="172" y="390"/>
      <point x="190" y="442"/>
    </contour>
    <contour>
      <point x="145" y="666" type="curve" smooth="yes"/>
      <point x="111" y="666"/>
      <point x="81" y="636"/>
      <point x="81" y="602" type="curve" smooth="yes"/>
      <point x="81" y="567"/>
      <point x="110" y="537"/>
      <point x="145" y="537" type="curve" smooth="yes"/>
      <point x="181" y="537"/>
      <point x="210" y="565"/>
      <point x="210" y="600" type="curve" smooth="yes"/>
      <point x="210" y="636"/>
      <point x="180" y="666"/>
    </contour>
    <contour>
      <point x="354" y="666" type="curve" smooth="yes"/>
      <point x="321" y="666"/>
      <point x="291" y="636"/>
      <point x="291" y="603" type="curve" smooth="yes"/>
      <point x="291" y="566"/>
      <point x="319" y="537"/>
      <point x="354" y="537" type="curve" smooth="yes"/>
      <point x="391" y="537"/>
      <point x="420" y="565"/>
      <point x="420" y="600" type="curve" smooth="yes"/>
      <point x="420" y="636"/>
      <point x="390" y="666"/>
    </contour>
  </outline>
</glyph>
<glyph name="ugrave" format="1">
  <advance width="556"/>
  <unicode hex="00F9"/>
  <outline>
    <contour>
      <point x="343" y="-13" type="line"/>
      <point x="386" y="2"/>
      <point x="410" y="6"/>
      <point x="475" y="13" type="curve" smooth="yes"/>
      <point x="537" y="20" type="line"/>
      <point x="537" y="43" type="line"/>
      <point x="493" y="45"/>
      <point x="481" y="58"/>
      <point x="481" y="101" type="curve" smooth="yes"/>
      <point x="481" y="461" type="line"/>
      <point x="280" y="461" type="line"/>
      <point x="280" y="437" type="line"/>
      <point x="330" y="433"/>
      <point x="342" y="421"/>
      <point x="342" y="378" type="curve" smooth="yes"/>
      <point x="342" y="95" type="line"/>
      <point x="309" y="62"/>
      <point x="288" y="51"/>
      <point x="260" y="51" type="curve" smooth="yes"/>
      <point x="219" y="51"/>
      <point x="204" y="71"/>
      <point x="204" y="122" type="curve" smooth="yes"/>
      <point x="204" y="461" type="line"/>
      <point x="16" y="461" type="line"/>
      <point x="16" y="437" type="line"/>
      <point x="57" y="429"/>
      <point x="65" y="420"/>
      <point x="65" y="378" type="curve" smooth="yes"/>
      <point x="65" y="126" type="line" smooth="yes"/>
      <point x="65" y="38"/>
      <point x="115" y="-14"/>
      <point x="198" y="-14" type="curve" smooth="yes"/>
      <point x="250" y="-14"/>
      <point x="285" y="2"/>
      <point x="343" y="52" type="curve"/>
    </contour>
    <contour>
      <point x="357" y="528" type="line"/>
      <point x="220" y="685" type="line" smooth="yes"/>
      <point x="204" y="703"/>
      <point x="185" y="713"/>
      <point x="166" y="713" type="curve" smooth="yes"/>
      <point x="140" y="713"/>
      <point x="119" y="693"/>
      <point x="119" y="668" type="curve" smooth="yes"/>
      <point x="119" y="648"/>
      <point x="130" y="634"/>
      <point x="159" y="616" type="curve" smooth="yes"/>
      <point x="301" y="528" type="line"/>
    </contour>
  </outline>
</glyph>
<glyph name="udieresis" format="1">
  <advance width="556"/>
  <unicode hex="00FC"/>
  <outline>
    <contour>
      <point x="343" y="-13" type="line"/>
      <point x="386" y="2"/>
      <point x="410" y="6"/>
      <point x="475" y="13" type="curve" smooth="yes"/>
      <point x="537" y="20" type="line"/>
      <point x="537" y="43" type="line"/>
      <point x="493" y="45"/>
      <point x="481" y="58"/>
      <point x="481" y="101" type="curve" smooth="yes"/>
      <point x="481" y="461" type="line"/>
      <point x="280" y="461" type="line"/>
      <point x="280" y="437" type="line"/>
      <point x="330" y="433"/>
      <point x="342" y="421"/>
      <point x="342" y="378" type="curve" smooth="yes"/>
      <point x="342" y="95" type="line"/>
      <point x="309" y="62"/>
      <point x="288" y="51"/>
      <point x="260" y="51" type="curve" smooth="yes"/>
      <point x="219" y="51"/>
      <point x="204" y="71"/>
      <point x="204" y="122" type="curve" smooth="yes"/>
      <point x="204" y="461" type="line"/>
      <point x="16" y="461" type="line"/>
      <point x="16" y="437" type="line"/>
      <point x="57" y="429"/>
      <point x="65" y="420"/>
      <point x="65" y="378" type="curve" smooth="yes"/>
      <point x="65" y="126" type="line" smooth="yes"/>
      <point x="65" y="38"/>
      <point x="115" y="-14"/>
      <point x="198" y="-14" type="curve" smooth="yes"/>
      <point x="250" y="-14"/>
      <point x="285" y="2"/>
      <point x="343" y="52" type="curve"/>
    </contour>
    <contour>
      <point x="159" y="666" type="curve" smooth="yes"/>
      <point x="125" y="666"/>
      <point x="95" y="636"/>
      <point x="95" y="602" type="curve" smooth="yes"/>
      <point x="95" y="567"/>
      <point x="124" y="537"/>
      <point x="159" y="537" type="curve" smooth="yes"/>
      <point x="195" y="537"/>
      <point x="224" y="565"/>
      <point x="224" y="600" type="curve" smooth="yes"/>
      <point x="224" y="636"/>
      <point x="194" y="666"/>
    </contour>
    <contour>
      <point x="368" y="666" type="curve" smooth="yes"/>
      <point x="335" y="666"/>
      <point x="305" y="636"/>
      <point x="305" y="603" type="curve" smooth="yes"/>
      <point x="305" y="566"/>
      <point x="333" y="537"/>
      <point x="368" y="537" type="curve" smooth="yes"/>
      <point x="405" y="537"/>
      <point x="434" y="565"/>
      <point x="434" y="600" type="curve" smooth="yes"/>
      <point x="434" y="636"/>
      <point x="404" y="666"/>
    </contour>
  </outline>
</glyph>
<glyph name="yacute" format="1">
  <advance width="500"/>
  <unicode hex="00FD"/>
  <outline>
    <contour>
      <point x="480" y="461" type="line"/>
      <point x="329" y="461" type="line"/>
      <point x="329" y="437" type="line"/>
      <point x="372" y="435"/>
      <point x="384" y="428"/>
      <point x="384" y="404" type="curve" smooth="yes"/>
      <point x="384" y="393"/>
      <point x="382" y="384"/>
      <point x="373" y="359" type="curve" smooth="yes"/>
      <point x="305" y="167" type="line"/>
      <point x="233" y="352" type="line" smooth="yes"/>
      <point x="213" y="403"/>
      <point x="213" y="403"/>
      <point x="213" y="411" type="curve" smooth="yes"/>
      <point x="213" y="425"/>
      <point x="225" y="434"/>
      <point x="250" y="436" type="curve" smooth="yes"/>
      <point x="266" y="437" type="line"/>
      <point x="266" y="461" type="line"/>
      <point x="16" y="461" type="line"/>
      <point x="16" y="437" type="line"/>
      <point x="39" y="434"/>
      <point x="45" y="431"/>
      <point x="51" y="422" type="curve"/>
      <point x="54" y="422"/>
      <point x="99" y="324"/>
      <point x="116" y="282" type="curve" smooth="yes"/>
      <point x="236" y="-13" type="line"/>
      <point x="218" y="-66" type="line" smooth="yes"/>
      <point x="201" y="-116"/>
      <point x="175" y="-148"/>
      <point x="152" y="-148" type="curve" smooth="yes"/>
      <point x="143" y="-148"/>
      <point x="135" y="-140"/>
      <point x="135" y="-131" type="curve" smooth="yes"/>
      <point x="135" y="-130"/>
      <point x="135" y="-128"/>
      <point x="136" y="-125" type="curve"/>
      <point x="137" y="-120"/>
      <point x="138" y="-115"/>
      <point x="138" y="-111" type="curve" smooth="yes"/>
      <point x="138" y="-82"/>
      <point x="114" y="-62"/>
      <point x="80" y="-62" type="curve" smooth="yes"/>
      <point x="43" y="-62"/>
      <point x="16" y="-88"/>
      <point x="16" y="-126" type="curve" smooth="yes"/>
      <point x="16" y="-172"/>
      <point x="56" y="-205"/>
      <point x="113" y="-205" type="curve" smooth="yes"/>
      <point x="147" y="-205"/>
      <point x="176" y="-193"/>
      <point x="197" y="-172" type="curve" smooth="yes"/>
      <point x="218" y="-149"/>
      <point x="238" y="-109"/>
      <point x="273" y="-15" type="curve" smooth="yes"/>
      <point x="422" y="382" type="line" smooth="yes"/>
      <point x="439" y="424"/>
      <point x="449" y="434"/>
      <point x="480" y="437" type="curve"/>
    </contour>
    <contour>
      <point x="170" y="528" type="line"/>
      <point x="226" y="528" type="line"/>
      <point x="368" y="616" type="line" smooth="yes"/>
      <point x="400" y="636"/>
      <point x="408" y="646"/>
      <point x="408" y="669" type="curve" smooth="yes"/>
      <point x="408" y="695"/>
      <point x="389" y="713"/>
      <point x="360" y="713" type="curve" smooth="yes"/>
      <point x="341" y="713"/>
      <point x="324" y="704"/>
      <point x="307" y="685" type="curve" smooth="yes"/>
    </contour>
  </outline>
</glyph>
<glyph name="ydieresis" format="1">
  <advance width="500"/>
  <unicode hex="00FF"/>
  <outline>
    <contour>
      <point x="480" y="461" type="line"/>
      <point x="329" y="461" type="line"/>
      <point x="329" y="437" type="line"/>
      <point x="372" y="435"/>
      <point x="384" y="428"/>
      <point x="384" y="404" type="curve" smooth="yes"/>
      <point x="384" y="393"/>
      <point x="382" y="384"/>
      <point x="373" y="359" type="curve" smooth="yes"/>
      <point x="305" y="167" type="line"/>
      <point x="233" y="352" type="line" smooth="yes"/>
      <point x="213" y="403"/>
      <point x="213" y="403"/>
      <point x="213" y="411" type="curve" smooth="yes"/>
      <point x="213" y="425"/>
      <point x="225" y="434"/>
      <point x="250" y="436" type="curve" smooth="yes"/>
      <point x="266" y="437" type="line"/>
      <point x="266" y="461" type="line"/>
      <point x="16" y="461" type="line"/>
      <point x="16" y="437" type="line"/>
      <point x="39" y="434"/>
      <point x="45" y="431"/>
      <point x="51" y="422" type="curve"/>
      <point x="54" y="422"/>
      <point x="99" y="324"/>
      <point x="116" y="282" type="curve" smooth="yes"/>
      <point x="236" y="-13" type="line"/>
      <point x="218" y="-66" type="line" smooth="yes"/>
      <point x="201" y="-116"/>
      <point x="175" y="-148"/>
      <point x="152" y="-148" type="curve" smooth="yes"/>
      <point x="143" y="-148"/>
      <point x="135" y="-140"/>
      <point x="135" y="-131" type="curve" smooth="yes"/>
      <point x="135" y="-130"/>
      <point x="135" y="-128"/>
      <point x="136" y="-125" type="curve"/>
      <point x="137" y="-120"/>
      <point x="138" y="-115"/>
      <point x="138" y="-111" type="curve" smooth="yes"/>
      <point x="138" y="-82"/>
      <point x="114" y="-62"/>
      <point x="80" y="-62" type="curve" smooth="yes"/>
      <point x="43" y="-62"/>
      <point x="16" y="-88"/>
      <point x="16" y="-126" type="curve" smooth="yes"/>
      <point x="16" y="-172"/>
      <point x="56" y="-205"/>
      <point x="113" y="-205" type="curve" smooth="yes"/>
      <point x="147" y="-205"/>
      <point x="176" y="-193"/>
      <point x="197" y="-172" type="curve" smooth="yes"/>
      <point x="218" y="-149"/>
      <point x="238" y="-109"/>
      <point x="273" y="-15" type="curve" smooth="yes"/>
      <point x="422" y="382" type="line" smooth="yes"/>
      <point x="439" y="424"/>
      <point x="449" y="434"/>
      <point x="480" y="437" type="curve"/>
    </contour>
    <contour>
      <point x="161" y="666" type="curve" smooth="yes"/>
      <point x="127" y="666"/>
      <point x="97" y="636"/>
      <point x="97" y="602" type="curve" smooth="yes"/>
      <point x="97" y="567"/>
      <point x="126" y="537"/>
      <point x="161" y="537" type="curve" smooth="yes"/>
      <point x="197" y="537"/>
      <point x="226" y="565"/>
      <point x="226" y="600" type="curve" smooth="yes"/>
      <point x="226" y="636"/>
      <point x="196" y="666"/>
    </contour>
    <contour>
      <point x="370" y="666" type="curve" smooth="yes"/>
      <point x="337" y="666"/>
      <point x="307" y="636"/>
      <point x="307" y="603" type="curve" smooth="yes"/>
      <point x="307" y="566"/>
      <point x="335" y="537"/>
      <point x="370" y="537" type="curve" smooth="yes"/>
      <point x="407" y="537"/>
      <point x="436" y="565"/>
      <point x="436" y="600" type="curve" smooth="yes"/>
      <point x="436" y="636"/>
      <point x="406" y="666"/>
    </contour>
  </outline>
</glyph>
<glyph name="Abreve" format="1">
  <advance width="722"/>
  <unicode hex="0102"/>
  <outline>
    <contour>
      <point x="689" y="25" type="line"/>
      <point x="685" y="25" type="line" smooth="yes"/>
      <point x="646" y="25"/>
      <point x="630" y="46"/>
      <point x="580" y="164" type="curve" smooth="yes"/>
      <point x="357" y="690" type="line"/>
      <point x="329" y="690" type="line"/>
      <point x="107" y="142" type="line" smooth="yes"/>
      <point x="69" y="49"/>
      <point x="57" y="34"/>
      <point x="9" y="25" type="curve"/>
      <point x="9" y="0" type="line"/>
      <point x="212" y="0" type="line"/>
      <point x="212" y="25" type="line"/>
      <point x="153" y="29"/>
      <point x="130" y="40"/>
      <point x="130" y="66" type="curve" smooth="yes"/>
      <point x="130" y="79"/>
      <point x="138" y="104"/>
      <point x="159" y="158" type="curve" smooth="yes"/>
      <point x="174" y="197" type="line"/>
      <point x="399" y="197" type="line"/>
      <point x="433" y="119"/>
      <point x="445" y="83"/>
      <point x="445" y="61" type="curve" smooth="yes"/>
      <point x="445" y="40"/>
      <point x="432" y="30"/>
      <point x="397" y="28" type="curve"/>
      <point x="392" y="28"/>
      <point x="379" y="27"/>
      <point x="365" y="25" type="curve"/>
      <point x="365" y="0" type="line"/>
      <point x="689" y="0" type="line"/>
    </contour>
    <contour>
      <point x="189" y="236" type="line"/>
      <point x="283" y="479" type="line"/>
      <point x="384" y="236" type="line"/>
    </contour>
    <contour>
      <point x="453" y="901" type="line"/>
      <point x="436" y="838"/>
      <point x="407" y="814"/>
      <point x="345" y="814" type="curve" smooth="yes"/>
      <point x="281" y="814"/>
      <point x="249" y="840"/>
      <point x="238" y="901" type="curve"/>
      <point x="194" y="901" type="line"/>
      <point x="197" y="846"/>
      <point x="204" y="821"/>
      <point x="225" y="793" type="curve" smooth="yes"/>
      <point x="250" y="757"/>
      <point x="292" y="738"/>
      <point x="345" y="738" type="curve" smooth="yes"/>
      <point x="400" y="738"/>
      <point x="441" y="758"/>
      <point x="467" y="799" type="curve" smooth="yes"/>
      <point x="484" y="825"/>
      <point x="491" y="850"/>
      <point x="497" y="901" type="curve"/>
    </contour>
  </outline>
</glyph>
<glyph name="Aogonek" format="1">
  <advance width="722"/>
  <unicode hex="0104"/>
  <outline>
    <contour>
      <point x="689" y="25" type="line"/>
      <point x="645" y="25"/>
      <point x="633" y="40"/>
      <point x="580" y="164" type="curve" smooth="yes"/>
      <point x="357" y="690" type="line"/>
      <point x="329" y="690" type="line"/>
      <point x="107" y="142" type="line" smooth="yes"/>
      <point x="69" y="48"/>
      <point x="57" y="34"/>
      <point x="9" y="25" type="curve"/>
      <point x="9" y="0" type="line"/>
      <point x="212" y="0" type="line"/>
      <point x="212" y="25" type="line"/>
      <point x="152" y="29"/>
      <point x="130" y="40"/>
      <point x="130" y="66" type="curve" smooth="yes"/>
      <point x="130" y="79"/>
      <point x="138" y="104"/>
      <point x="159" y="157" type="curve" smooth="yes"/>
      <point x="174" y="197" type="line"/>
      <point x="399" y="197" type="line"/>
      <point x="433" y="119"/>
      <point x="445" y="83"/>
      <point x="445" y="61" type="curve" smooth="yes"/>
      <point x="445" y="39"/>
      <point x="432" y="30"/>
      <point x="397" y="28" type="curve"/>
      <point x="392" y="27"/>
      <point x="379" y="26"/>
      <point x="365" y="25" type="curve"/>
      <point x="365" y="0" type="line"/>
      <point x="636" y="0" type="line"/>
      <point x="602" y="-45"/>
      <point x="593" y="-64"/>
      <point x="593" y="-92" type="curve" smooth="yes"/>
      <point x="593" y="-139"/>
      <point x="638" y="-173"/>
      <point x="699" y="-173" type="curve" smooth="yes"/>
      <point x="749" y="-173"/>
      <point x="797" y="-144"/>
      <point x="822" y="-98" type="curve"/>
      <point x="800" y="-84" type="line"/>
      <point x="795" y="-86"/>
      <point x="794" y="-87"/>
      <point x="786" y="-91" type="curve" smooth="yes"/>
      <point x="766" y="-101"/>
      <point x="755" y="-104"/>
      <point x="740" y="-104" type="curve" smooth="yes"/>
      <point x="699" y="-104"/>
      <point x="677" y="-81"/>
      <point x="677" y="-40" type="curve" smooth="yes"/>
      <point x="677" y="-21"/>
      <point x="680" y="-10"/>
      <point x="689" y="0" type="curve"/>
    </contour>
    <contour>
      <point x="189" y="236" type="line"/>
      <point x="283" y="479" type="line"/>
      <point x="384" y="236" type="line"/>
    </contour>
  </outline>
</glyph>
